<svg xmlns="http://www.w3.org/2000/svg" viewBox="0 0 512 512">
  <rect width="512" height="512" rx="96" fill="#2D6A4F"/>
  <path d="M424.91 212.04L424.91 212.04Q419.56 238.03 405.84 257.94Q392.12 277.86 372.09 291.46Q352.05 305.06 327.76 311.98Q303.48 318.90 276.52 318.90L276.52 318.90Q249.56 318.90 231.23 314.29Q212.89 309.67 194.19 300.20L194.19 300.20L206.58 267.90Q217.75 276.16 232.08 281.14Q246.41 286.11 262.68 286.11L262.68 286.11Q286.24 286.11 304.57 277.01Q322.91 267.90 335.05 249.93Q347.19 231.96 351.56 206.21L351.56 206.21Q356.42 178.29 350.23 159.46Q344.04 140.64 329.46 131.05Q314.89 121.46 294.25 121.46L294.25 121.46Q279.44 121.46 271.30 129.23Q263.16 137 258.31 154.24L258.31 154.24Q257.82 156.67 255.03 166.87Q252.24 177.07 248.11 192.37Q243.98 207.67 238.76 226.37Q233.54 245.07 228.19 264.74Q222.85 284.41 217.75 303.11Q212.65 321.81 208.52 337.48Q204.39 353.14 201.96 363.34L201.96 363.34Q199.05 375.73 200.87 381.07Q202.69 386.41 208.04 387.63L208.04 387.63L222.61 391.03Q229.16 392.49 231.96 396.74Q234.75 400.99 234.75 406.81L234.75 406.81Q234.75 415.07 229.16 420.54Q223.58 426 213.38 426L213.38 426L102.39 426Q91.71 426 87.94 421.39Q84.18 416.77 84.18 409.24L84.18 409.24Q84.18 401.96 88.67 397.10Q93.16 392.24 99.96 390.06L99.96 390.06L108.46 387.39Q116.24 385.20 120.12 380.83Q124.01 376.46 126.92 367.23L126.92 367.23Q129.84 356.79 134.33 341.24Q138.82 325.70 144.16 306.88Q149.51 288.06 155.21 267.90Q160.92 247.74 166.39 228.07Q171.85 208.40 176.34 191.04Q180.84 173.67 184.11 160.44Q187.39 147.20 188.61 140.40L188.61 140.40Q189.82 133.84 187.76 129.96Q185.69 126.07 181.08 124.61L181.08 124.61L170.88 120.97Q165.29 118.30 162.26 114.66Q159.22 111.01 159.22 105.19L159.22 105.19Q159.22 96.20 164.93 91.10Q170.64 86 181.32 86L181.32 86L306.39 86Q338.21 86 362.86 95.23Q387.51 104.46 403.29 121.46Q419.08 138.46 424.91 161.41Q430.74 184.36 424.91 212.04Z" fill="#F0F4F2"/>
</svg>