<?xml version="1.0" encoding="utf-8" ?><svg xmlns="http://www.w3.org/2000/svg" xmlns:xlink="http://www.w3.org/1999/xlink" width="1024" height="1024" viewBox="0 0 1024 1024"><path fill="#2F363D" transform="scale(0.5 0.5)" d="M328.631 1208.26C323.066 1205.12 309.685 1198.72 308.545 1193.03C303.013 1165.41 305.291 1123.29 305.332 1096.05L305.422 957.004L305.226 842.022C305.232 821.159 305.012 800.298 305.71 779.42C306.344 760.429 311.208 748.855 327.945 738.577C341.079 730.513 354.41 722.984 367.706 715.265C396.029 698.854 424.463 682.633 453.004 666.604L636.484 561.17L780.818 478.111C805.252 463.98 849.379 436.745 873.525 427.75C886.43 431.649 897.42 438.501 909.148 445.103C910.125 449.005 910.669 450.857 910.974 454.821C912.138 469.996 912.544 482.851 911.21 498.184C872.044 518.36 834.002 543.45 795.151 564.421C788.664 567.923 782.096 571.9 775.879 575.875C778.784 581.719 776.427 578.27 777.043 583.589L775.739 583.996C775.181 590.034 776.665 594.138 778.319 599.992C789.278 604.22 855.467 554.935 875.265 551.496C878.923 550.86 882.908 551.009 885.882 553.54C892.305 559.007 889.702 578.274 889.618 586.126C886.556 585.41 887.734 586.234 885.882 583.224L885.17 582.05C884.139 584.165 883.886 584.543 883.33 586.801C872.395 583.611 775.961 644.17 760.491 653.046L599.889 743.951C593.37 747.711 536.31 782.099 532.595 782.894C528.466 783.526 526.296 785.641 523.289 785.887L522.205 787.131L520.383 785.768C514.831 785.974 514.723 785.068 510.899 787.676C509.773 790.386 510.666 830.196 510.67 836.166L510.774 987.19C510.854 1015.17 511.048 1043.21 510.831 1071.12C510.707 1087.12 506.752 1094.98 492.61 1103.25C456.268 1124.5 419.216 1145.23 382.862 1166.47C375.15 1170.97 369.037 1167.36 361.204 1165.45C355.143 1168.88 346.938 1173.25 341.456 1177.16C340.969 1183.78 340.881 1188.91 340.905 1195.57L340.39 1194.96C340.263 1193.95 339.758 1189.92 338.897 1189.27C334.417 1185.89 335.716 1180.65 334.376 1176.29C334.34 1183.49 334.653 1198.56 333.962 1205.19L328.631 1208.26Z"/><path fill="#E48841" transform="scale(0.5 0.5)" d="M328.631 1208.26C323.066 1205.12 309.685 1198.72 308.545 1193.03C303.013 1165.41 305.291 1123.29 305.332 1096.05L305.422 957.004L305.226 842.022C305.232 821.159 305.012 800.298 305.71 779.42C306.344 760.429 311.208 748.855 327.945 738.577C341.079 730.513 354.41 722.984 367.706 715.265C396.029 698.854 424.463 682.633 453.004 666.604L636.484 561.17L780.818 478.111C805.252 463.98 849.379 436.745 873.525 427.75C886.43 431.649 897.42 438.501 909.148 445.103C910.125 449.005 910.669 450.857 910.974 454.821C912.138 469.996 912.544 482.851 911.21 498.184C872.044 518.36 834.002 543.45 795.151 564.421C788.664 567.923 782.096 571.9 775.879 575.875C778.784 581.719 776.427 578.27 777.043 583.589L775.739 583.996C770.944 584.623 704.084 624.305 694.936 629.604L461.916 763.75C430.56 781.718 387.743 808.996 356.609 824.398L339.715 834.293L340.011 1076.53C340.072 1099.71 340.263 1122.89 340.584 1146.06C340.66 1151.96 340.59 1172.21 341.456 1177.16C340.969 1183.78 340.881 1188.91 340.905 1195.57L340.39 1194.96C340.263 1193.95 339.758 1189.92 338.897 1189.27C334.417 1185.89 335.716 1180.65 334.376 1176.29C334.34 1183.49 334.653 1198.56 333.962 1205.19L328.631 1208.26Z"/><path fill="#535E6B" transform="scale(0.5 0.5)" d="M902.553 448.462L910.974 454.821C912.138 469.996 912.544 482.851 911.21 498.184C872.044 518.36 834.002 543.45 795.151 564.421C788.664 567.923 782.096 571.9 775.879 575.875C778.784 581.719 776.427 578.27 777.043 583.589L775.739 583.996C770.944 584.623 704.084 624.305 694.936 629.604L461.916 763.75C430.56 781.718 387.743 808.996 356.609 824.398L351.108 821.255L339.986 827.352C339.436 811.498 338.154 792.234 342.92 777.088C345.51 768.857 351.183 764.901 358.486 760.534C389.078 742.244 420.762 724.685 451.73 707.007L627.932 605.925L805.642 503.61C834.66 486.874 873.286 463.017 902.553 448.462Z"/><path fill="#2F363D" transform="scale(0.5 0.5)" d="M351.108 821.255C355.863 817.213 383.568 801.157 389.843 797.531L478.601 747.158L646.606 650.151C691.19 624.223 730.418 600.81 775.879 575.875C778.784 581.719 776.427 578.27 777.043 583.589L775.739 583.996C770.944 584.623 704.084 624.305 694.936 629.604L461.916 763.75C430.56 781.718 387.743 808.996 356.609 824.398L351.108 821.255Z"/><path fill="#2F363D" transform="scale(0.5 0.5)" d="M828.175 500.952C834.573 500.666 837.6 500.816 840.496 506.955C846.582 519.855 838.257 530.378 827.864 536.944C806.008 550.751 783.223 563.142 760.85 575.819L647.913 640.501L540.293 702.676C525.381 711.227 501.48 726.06 486.427 732.796C480.474 733.246 477.166 732.474 474.321 726.686C472.318 722.609 472.24 717.089 473.799 712.896C475.838 707.411 478.734 702.665 483.751 699.513C499.089 689.301 515.372 680.386 531.309 671.218L620.492 620.003L731.108 555.88C759.747 539.003 798.958 515.065 828.175 500.952Z"/><path fill="#FDFDFC" transform="scale(0.5 0.5)" d="M828.945 507.813C833.385 507.801 831.537 507.101 834.818 509.587C841.115 521.732 830.413 527.289 821.984 533.111C800.586 547.891 777.669 559.929 755.103 572.834L658.042 628.514C603.177 660.113 540.145 699.025 484.421 727.21C481.765 727.893 480.799 726.915 479.072 725.416C476.565 717.481 483.134 705.379 489.974 701.582C503.871 693.868 517.668 686.068 531.471 678.18L623.754 624.928L748.965 552.931C773.621 538.615 803.465 519.284 828.945 507.813Z"/><path fill="#2F363D" transform="scale(0.5 0.5)" d="M441.867 725.632C463.379 730.264 449.993 751.413 436.664 759.039C414.28 751.482 427.789 733.893 441.867 725.632Z"/><path fill="#FDFDFC" transform="scale(0.5 0.5)" d="M440.05 732.533L443.716 733.439C450.626 740.385 444.425 747.096 438.687 752.349C433.99 751.637 432.467 750.684 431.132 746.413C432.062 739.953 435.597 737.057 440.05 732.533Z"/><path fill="#2F363D" transform="scale(0.5 0.5)" d="M404.364 746.894C420.214 747.725 417.854 754.795 416.702 767.672C412.321 772.297 410.426 774.576 404.855 777.919C381.832 778.341 392.543 756.2 404.364 746.894Z"/><path fill="#E48841" transform="scale(0.5 0.5)" d="M406.024 752.462C407.206 752.75 408.792 753.471 409.975 753.945C415.959 761.269 409.377 767.088 403.604 771.879C390.988 769.457 401.529 757.131 406.024 752.462Z"/><path fill="#2F363D" transform="scale(0.5 0.5)" d="M369.68 767.09C393.158 765.206 383.794 787.336 372.849 797.54C371.946 797.501 371.043 797.45 370.141 797.388C354.532 796.261 358.385 785.588 360.795 774.773L369.68 767.09Z"/><path fill="#E48841" transform="scale(0.5 0.5)" d="M372.436 772.634C385.457 776.032 374.937 787.834 369.681 792.668C357.829 787.321 366.62 778.164 372.436 772.634Z"/><path fill="#363433" transform="scale(0.5 0.5)" d="M328.631 1208.26C323.066 1205.12 309.685 1198.72 308.545 1193.03C303.013 1165.41 305.291 1123.29 305.332 1096.05L305.422 957.004L305.226 842.022C305.232 821.159 305.012 800.298 305.71 779.42C306.344 760.429 311.208 748.855 327.945 738.577C341.079 730.513 354.41 722.984 367.706 715.265C396.029 698.854 424.463 682.633 453.004 666.604L636.484 561.17L780.818 478.111C805.252 463.98 849.379 436.745 873.525 427.75C886.43 431.649 897.42 438.501 909.148 445.103C910.125 449.005 910.669 450.857 910.974 454.821L902.553 448.462C873.286 463.017 834.66 486.874 805.642 503.61L627.932 605.925L451.73 707.007C420.762 724.685 389.078 742.244 358.486 760.534C351.183 764.901 345.51 768.857 342.92 777.088C338.154 792.234 339.436 811.498 339.986 827.352L351.108 821.255L356.609 824.398L339.715 834.293L340.011 1076.53C340.072 1099.71 340.263 1122.89 340.584 1146.06C340.66 1151.96 340.59 1172.21 341.456 1177.16C340.969 1183.78 340.881 1188.91 340.905 1195.57L340.39 1194.96C340.263 1193.95 339.758 1189.92 338.897 1189.27C334.417 1185.89 335.716 1180.65 334.376 1176.29C333.264 1089.25 334.023 1000.62 333.978 913.473L333.848 835.03C333.653 809.653 328.203 774.327 351.144 758.581C369.257 746.149 389.828 735.28 408.953 724.442L479.641 683.907L752.074 527.075C799.459 499.842 849.311 472.983 895.607 444.51C887.644 439.83 882.395 436.761 873.748 433.462C850.227 443.804 813.95 466.226 791.048 479.479L650.216 560.661L441.413 680.405L367.865 722.653C354.925 730.143 341.507 737.338 329.001 745.531C323.269 749.287 317.637 754.469 314.993 760.941C312.012 768.237 311.5 777.727 311.22 785.526C309.549 832.146 311.719 879.313 311.775 926.002C311.806 952.182 308.183 1177.29 313.513 1188.74C317.279 1196.82 326.639 1200.99 333.962 1205.19L328.631 1208.26Z"/><path fill="#FDFDFC" transform="scale(0.5 0.5)" d="M778.319 599.992C789.278 604.22 855.467 554.935 875.265 551.496C878.923 550.86 882.908 551.009 885.882 553.54C892.305 559.007 889.702 578.274 889.618 586.126C886.556 585.41 887.734 586.234 885.882 583.224L885.17 582.05C884.139 584.165 883.886 584.543 883.33 586.801C872.395 583.611 775.961 644.17 760.491 653.046L599.889 743.951C593.37 747.711 536.31 782.099 532.595 782.894C528.466 783.526 526.296 785.641 523.289 785.887L522.205 787.131L520.383 785.768C516.513 784.423 515.229 784.744 511.011 784.889C508.383 779.981 511.043 769.202 502.132 765.878C495.467 765.64 476.654 775.982 470.849 779.981C444.15 798.374 381.5 824.627 362.885 848.24C359.537 878.571 361.045 927.645 361.164 959.374C361.697 1015.79 361.617 1072.22 360.924 1128.63C360.889 1135.74 360.959 1142.56 361.277 1149.66C361.454 1153.6 363.374 1162.46 361.769 1165.12L361.204 1165.45C355.143 1168.88 346.938 1173.25 341.456 1177.16C340.59 1172.21 340.66 1151.96 340.584 1146.06C340.263 1122.89 340.072 1099.71 340.011 1076.53L339.715 834.293L356.609 824.398C387.743 808.996 430.56 781.718 461.916 763.75L694.936 629.604C704.084 624.305 770.944 584.623 775.739 583.996C775.181 590.034 776.665 594.138 778.319 599.992Z"/><path fill="#363433" transform="scale(0.5 0.5)" d="M778.319 599.992C789.278 604.22 855.467 554.935 875.265 551.496C878.923 550.86 882.908 551.009 885.882 553.54C892.305 559.007 889.702 578.274 889.618 586.126C886.556 585.41 887.734 586.234 885.882 583.224L885.17 582.05C884.139 584.165 883.886 584.543 883.33 586.801C872.395 583.611 775.961 644.17 760.491 653.046L599.889 743.951C593.37 747.711 536.31 782.099 532.595 782.894C528.466 783.526 526.296 785.641 523.289 785.887C524.009 774.135 524.601 764.89 526.343 753.195C543.484 737.614 595.785 709.674 618.604 696.719L751.376 620.529C755.998 617.881 779.297 605.529 780.754 602.945C778.659 601.365 779.471 602.349 778.319 599.992Z"/><path fill="#E48841" transform="scale(0.5 0.5)" d="M817.937 590.145C822.713 589.662 823.462 588.653 826.294 590.748L827.121 593.887C827.748 597.577 828.533 598.229 830.706 601.208C828.773 603.684 826.774 606.106 824.708 608.472C821.289 611.564 803.695 621.162 798.591 624.081L742.645 656.088C673.196 695.82 599.88 739.44 529.741 777.355C529.713 768.464 528.774 756.556 537.353 751.101C552.222 741.648 567.722 732.999 582.997 724.199L674.765 671.63L759.653 622.84C777.208 612.649 799.993 598.568 817.937 590.145Z"/><path fill="#D88749" transform="scale(0.5 0.5)" d="M817.937 590.145C827.82 583.692 869.63 558.073 879.499 557.152C883.805 560.6 882.967 571.091 882.88 576.427C867.654 585.01 839.838 601.755 824.708 608.472C826.774 606.106 828.773 603.684 830.706 601.208C828.533 598.229 827.748 597.577 827.121 593.887L826.294 590.748C823.462 588.653 822.713 589.662 817.937 590.145Z"/><path fill="#363433" transform="scale(0.5 0.5)" d="M827.121 593.887C828.51 590.402 828.657 589.112 831.725 586.938C835.514 586.506 833.845 586.089 836.946 588.055C839.927 595.172 836.156 597.41 830.706 601.208C828.533 598.229 827.748 597.577 827.121 593.887Z"/><path fill="#363433" transform="scale(0.5 0.5)" d="M865.582 566.407L868.456 566.928C871.662 569.73 870.762 568.051 871.538 571.977C870.356 576.582 869.715 576.95 866.555 580.736C861.969 578.993 860.815 578.584 860.227 573.566C861.484 569.644 862.363 569.289 865.582 566.407Z"/><path fill="#363433" transform="scale(0.5 0.5)" d="M848.742 575.385C852.233 576.856 853.417 578.657 854.38 582.116C853.64 586.313 852.748 586.857 849.896 590.293L846.647 589.543C841.191 584.248 844.826 580.454 848.742 575.385Z"/><path fill="#535E6B" transform="scale(0.5 0.5)" d="M499.608 771.891C504.708 773.27 503.994 789.315 504.016 794.214C504.221 841.068 503.923 887.923 504.093 934.781L504.055 1024.65C503.998 1042.19 505.743 1071.43 501.158 1087.18C493.184 1096.65 387.419 1157.56 372.178 1163.28C366.214 1161.95 367.688 1148.24 367.755 1143.12C368.118 1115.21 368.069 1087.29 368.003 1059.38L367.281 924.388C367.315 902.58 367.379 880.446 368.135 858.644C368.35 852.431 369.234 850.772 372.263 845.265C386.635 835.344 408.36 823.114 423.693 814.158C447.612 800.188 474.799 783.672 499.608 771.891Z"/><path fill="#363433" transform="scale(0.5 0.5)" d="M435.014 830.114C494.608 846.113 477.683 834.726 480.748 893.744C468.626 902.746 452.652 918.451 441.342 929.127C429.367 928.233 406.931 920.545 395.001 916.739C394.661 900.673 395.032 883.722 395.144 867.588C406.109 855.702 422.703 841.548 435.014 830.114Z"/><path fill="#E48841" transform="scale(0.5 0.5)" d="M400.818 873.471C412.005 875.405 424.959 879.435 435.996 882.622L436.03 922.603C424.504 919.969 412.16 915.738 400.811 912.147L400.818 873.471Z"/><path fill="#E48841" transform="scale(0.5 0.5)" d="M473.646 852.841C476.182 856.462 474.972 883.551 474.894 889.751C469.531 894.955 448.765 915.836 443.19 918.436C441.489 916.867 442.09 916.449 441.937 913.25L442.065 882.191C444.769 879.465 451.822 871.814 454.744 870.56C455.263 873.963 455.367 878.195 457.68 880.389L459.156 880.188C462.094 876.095 462.038 868.313 462.044 863.322C465.676 859.711 469.786 856.238 473.646 852.841Z"/><path fill="#E48841" transform="scale(0.5 0.5)" d="M418.835 853.765C430.899 856.794 441.359 859.961 453.226 863.669C448.486 867.852 443.079 872.149 438.169 876.206C432.235 876.306 410.341 869.483 403.577 867.517L418.835 853.765Z"/><path fill="#E48841" transform="scale(0.5 0.5)" d="M436.844 836.845C448.452 839.169 459.434 842.52 470.796 845.799L458.624 857.871C451.768 858.005 432.132 851.137 424.687 848.73L436.844 836.845Z"/><path fill="#2F363D" transform="scale(0.5 0.5)" d="M396.892 1064.86C420.226 1067.71 407.696 1088.85 394.632 1096.95C370.696 1095.61 384.322 1073.15 396.892 1064.86Z"/><path fill="#D88749" transform="scale(0.5 0.5)" d="M396.297 1071.67L399.633 1072.46C406.71 1079.44 399.059 1086.12 393.341 1090.95C389.716 1089.76 389.535 1089.21 388.213 1086.02C388.554 1079.67 392.189 1076.29 396.297 1071.67Z"/><path fill="#2F363D" transform="scale(0.5 0.5)" d="M397.752 1018.84C419.804 1024.8 406.035 1044.22 393.342 1052.17C370.213 1049.32 385.017 1026.46 397.752 1018.84Z"/><path fill="#D88749" transform="scale(0.5 0.5)" d="M396.145 1026.66L399.765 1027.44C406.691 1034.07 398.128 1041.48 392.944 1046.1C389.301 1044.71 389.145 1044.14 387.877 1041.52C387.852 1035.19 392.078 1031.37 396.145 1026.66Z"/><path fill="#2F363D" transform="scale(0.5 0.5)" d="M395.152 974.708C419.225 976.441 407.554 996.355 395.758 1006.16C370.372 1006.08 384.195 984.529 395.152 974.708Z"/><path fill="#D88749" transform="scale(0.5 0.5)" d="M396.968 980.562C400.758 982.06 401.28 983.049 402.659 986.047C402.346 992.46 398.263 995.785 393.949 1000.44L390.685 999.491C384.008 992.499 391.71 985.772 396.968 980.562Z"/><path fill="#FDFDFC" transform="scale(0.5 0.5)" d="M486.145 975.081C487.974 976.482 487.771 977.753 487.552 979.582C481.26 987.008 432.33 1012.14 420.317 1018.55L418.791 1017.68L418.368 1015.45C423.725 1007.84 474.728 981.302 486.145 975.081Z"/><path fill="#FDFDFC" transform="scale(0.5 0.5)" d="M486.101 1019.95L487.38 1020.71L487.987 1023.46C483.241 1030.4 431.19 1057.28 420.466 1063.08C418.629 1062.95 419.484 1063.28 417.974 1061.93L418.258 1059.82C424.74 1052.37 473.783 1026.63 486.101 1019.95Z"/><path fill="#FDFDFC" transform="scale(0.5 0.5)" d="M485.623 929.92C488.251 931.702 487.447 930.522 488.217 933.506C486.133 937.579 428.666 969.209 420.224 974.114L418.328 973.052L418.118 970.974C422.495 963.706 474.937 935.863 485.623 929.92Z"/><path fill="#FDFDFC" transform="scale(0.5 0.5)" d="M460.374 1048.91C462.482 1049.06 461.441 1048.84 463.406 1050.29L463.351 1052.34C458.093 1059.04 430.177 1073.1 421.276 1077.8C419.711 1078.48 420.58 1078.29 418.324 1077.44L418.085 1075.45C421.643 1069.57 452.709 1053.25 460.374 1048.91Z"/><path fill="#FDFDFC" transform="scale(0.5 0.5)" d="M462.814 958.962C463.736 959.519 463.154 959.09 464.247 960.589C458.82 969.068 429.999 983.504 420.269 987.479C418.246 986.574 419.063 987.308 417.991 985.097C420.312 979.391 455.145 961.951 462.814 958.962Z"/><path fill="#FDFDFC" transform="scale(0.5 0.5)" d="M459.381 1004.95C461.403 1005.16 460.413 1004.86 462.178 1006.46C459.957 1013.68 429.985 1028.47 421.486 1033.15L419.466 1033.26L417.967 1031.6L418.266 1029.96C426.759 1022.06 448.229 1011.08 459.381 1004.95Z"/><path fill="#2F363D" fill-opacity="0.88235295" transform="scale(0.5 0.5)" d="M879.058 708.852C879.429 708.88 879.801 708.889 880.17 708.936C883.7 709.383 886.572 710.59 888.492 713.75C891.687 719.008 890.542 847.648 889.887 860.219C889.645 864.862 889.19 869.336 887.692 873.77C875.471 886.206 822.353 914.013 804.653 924.122L679.581 995.944L590.212 1048.01C577.546 1055.37 546.044 1075.8 533.63 1076.79C526.305 1074.26 522.35 1067.47 523.383 1059.77C525.422 1044.58 519.53 914.029 527.195 908.414C550.862 891.077 592.872 869.51 617.215 855.866L727.919 792.61C761.958 772.924 795.558 752.185 830.263 733.636C844.41 726.075 864.374 713.595 879.058 708.852ZM535.505 1069.86C545.816 1067.39 604.097 1032.43 617.008 1024.92L727.695 961.029C774.153 934.232 821.748 909.003 867.517 881.022C872.329 878.081 876.956 874.779 881.327 871.215C882.702 868.008 883.404 864.226 883.379 860.705C883.039 813.179 884.643 765.433 882.537 717.969C882.47 716.454 881.214 715.496 880.022 714.929C873.111 717.458 867.312 721.01 860.827 724.341C816.298 747.214 774.049 773.436 730.809 798.387L610.641 867.163C590.306 878.705 545.533 899.625 530.443 915.994C527.191 931.519 530.939 957.577 530.484 974.261C529.743 1001.41 529.683 1028.84 529.983 1056C530.043 1061.41 530.262 1066.91 535.505 1069.86Z"/><path fill="#363433" transform="scale(0.5 0.5)" d="M835.177 751.187C840.235 750.9 842.13 751.02 845.745 754.653C848.92 762.497 848.259 806.299 846.075 814.388C843.93 822.335 803.966 841.978 794.484 847.129C792.164 847.939 792.011 847.76 789.505 847.681C785.77 845.707 784.413 842.502 782.11 838.792C781.249 826.969 781.475 796.125 782.944 784.709C792.41 772.809 820.944 758.325 835.177 751.187Z"/><path fill="#D88749" transform="scale(0.5 0.5)" d="M838.247 756.656L839.641 757.183C843.83 762.6 841.774 789.446 841.422 797.619C836.442 794.585 832.089 790.92 826.454 791.835C823.056 793.493 822.52 795.406 820.696 798.77C814.832 794.478 811.673 790.211 804.43 792.066C800.415 795.395 797.757 801.746 795.221 806.593L788.864 819.113C787.946 807.032 788.253 798.906 788.964 786.981C799.497 778.311 825.054 765.063 838.247 756.656Z"/><path fill="#363433" transform="scale(0.5 0.5)" d="M827.49 769.525C831.284 769.735 831.276 769.555 834.793 771.408C839.286 777.6 836.205 780.946 831.933 786.138C828.284 786.174 828.541 786.218 825.257 784.612C820.626 778.604 823.597 774.825 827.49 769.525Z"/><path fill="#D88749" transform="scale(0.5 0.5)" d="M816.44 805.194C820.84 807.109 818.739 807.019 822.878 806.293C825.568 803.913 826.366 800.555 827.641 797.106L838.36 803.111C830.762 806.933 822.62 811.231 814.925 814.721C808.409 819.08 798.854 823.874 791.774 827.679C796.66 816.947 801.538 808.307 807.349 798.163C811.477 800.848 812.866 801.834 816.44 805.194Z"/><path fill="#D88749" transform="scale(0.5 0.5)" d="M839.936 809.119C840.839 810.744 840.546 809.82 839.881 812.314C831.007 821.33 802.941 835.701 791.09 841.934C790.025 840.41 790.356 840.197 790.086 837.997C793.449 831.264 831.273 813.002 839.936 809.119Z"/><path fill="#363433" transform="scale(0.5 0.5)" d="M557.968 913.856C564.17 903.746 570.835 902.027 579.961 895.916C636.545 858.024 619.362 896.624 622.228 939.406C617.589 946.896 610.405 950.737 603.036 955.486C591.562 961.138 576.501 974.357 563.958 974.708C559.767 972.721 560.82 972.855 557.772 968.426C558.15 950.483 557.977 931.835 557.968 913.856Z"/><path fill="#E48841" transform="scale(0.5 0.5)" d="M615.939 883.739C617.052 903.001 617.899 919.805 615.255 939.107C603.431 951.116 585.408 958.438 570.957 967.813C568.343 968.918 567.458 969.1 565.252 967.836C560.97 958.024 562.849 925.402 564.784 914.776C578.584 904.376 600.404 891.989 615.939 883.739Z"/><path fill="#D88749" transform="scale(0.5 0.5)" d="M577.837 924.016C580.458 921.415 582.601 922.361 584.813 918.331C586.199 915.806 588.975 912.602 590.654 910.194C592.099 908.121 595.804 909.001 598.063 909.155C602.513 910.569 607.315 911.514 610.5 914.656C612.079 919.847 610.612 920.902 607.645 925.204C607.073 928.851 607.192 930.706 604.704 933.394L602.955 933.68C600.77 934.056 600.547 934.139 598.559 935.274C597.029 937.944 596.548 938.696 595.434 941.643C593.258 942.956 591.614 943.904 589.329 945.088L585.313 947.802C578.843 947.303 572.187 945.905 565.784 944.735C565.232 951.76 563.927 958.498 565.954 965.009C568.027 967.268 567.94 967.058 570.957 967.813C568.343 968.918 567.458 969.1 565.252 967.836C560.97 958.024 562.849 925.402 564.784 914.776C565.174 922.117 565.494 928.718 565.447 936.061C568.183 932.236 572.291 924.819 577.032 924.077L577.837 924.016Z"/><path fill="#442713" transform="scale(0.5 0.5)" d="M585.313 947.802C583.305 942.04 589.003 915.179 592.953 913.422C594.634 922.001 590.988 936.073 589.329 945.088L585.313 947.802Z"/><path fill="#442713" transform="scale(0.5 0.5)" d="M598.063 909.155C602.513 910.569 607.315 911.514 610.5 914.656C612.079 919.847 610.612 920.902 607.645 925.204C605.598 927.811 603.363 931.274 600.301 931.948L599.363 930.389C599.774 925.926 602.969 924.191 605.054 918.94C603.532 916.168 603.296 916.933 599.14 915.675C597.211 912.707 597.849 913.489 598.063 909.155Z"/><path fill="#442713" transform="scale(0.5 0.5)" d="M577.837 924.016C579.419 925.086 578.92 924.778 580.071 926.474C579.178 931.951 573.809 932.895 574.369 937.208C576.917 938.374 578.332 939.053 580.807 940.48L580.584 942.335C576.834 945.306 571.505 944.329 568.328 940.925C567.482 934.965 572.763 930.673 576.144 925.461L577.032 924.077L577.837 924.016Z"/><path fill="#D88749" transform="scale(0.5 0.5)" d="M725.966 816.935C729.572 817.505 730.806 818.088 732.881 820.865C734.097 825.238 733.679 873.932 732.469 878.924C727.552 885.433 687.645 905.998 678.41 910.683C674.983 910.196 673.62 908.726 670.847 906.634C669.446 902.006 670.933 852.812 672.372 846.872C677.433 840.05 717.352 820.446 725.966 816.935Z"/><path fill="#E48841" transform="scale(0.5 0.5)" d="M710.512 851.969C709.23 846.341 708.525 845.197 705.006 840.613C704.346 832.24 718.788 824.392 725.858 822.481L726.949 822.936C728.875 832.135 729.455 866.914 728.102 875.532C725.316 879.004 724.111 879.632 720.42 882.295C717.742 882.186 717.155 882.082 714.522 881.525L713.373 879.622C713.824 875.641 713.846 874.652 713.185 870.717L713.714 868.347L718.753 865.497C720.603 861.956 720.048 863.876 719.771 859.374C716.521 855.084 716.504 856.974 710.94 854.015L710.512 851.969Z"/><path fill="#363433" transform="scale(0.5 0.5)" d="M684.713 857.268C691.72 847.941 701.409 841.29 710.512 851.969L710.94 854.015C716.504 856.974 716.521 855.084 719.771 859.374C720.048 863.876 720.603 861.956 718.753 865.497L713.714 868.347L713.185 870.717C712.185 874.392 711.884 876.955 709.383 879.795L707.7 879.639L705.416 875.523L704.195 875.579C701.52 881.006 701.601 884.576 698.6 889.067C693.848 881.471 693.776 869.671 692.956 860.467C691.22 870.15 691.146 877.158 690.933 886.931L688.308 886.462C683.094 880.047 688.24 865.297 684.713 857.268Z"/><path fill="#E48841" transform="scale(0.5 0.5)" d="M697.929 849.605C704.042 854.056 705.652 863.153 706.813 870.066C703.888 869.755 703.84 869.683 701.063 868.639C696.427 863.601 697.755 856.627 697.929 849.605Z"/><path fill="#8C969F" fill-opacity="0.50980395" transform="scale(0.5 0.5)" d="M746.908 887.879C750.208 889.68 749.197 888.401 750.495 891.433C748.981 895.044 718.595 909.731 712.386 913.036C696.366 921.757 680.52 930.792 664.856 940.137L662.755 939.422L662.262 937.22C667.844 927.744 733.153 894.867 746.908 887.879Z"/><path fill="#8C969F" fill-opacity="0.44313726" transform="scale(0.5 0.5)" d="M856.477 824.739C859.401 824.797 858.232 824.199 860.214 826.225C857.152 833.541 790.42 869.122 778.36 875.965C776.582 876.36 777.045 876.172 775.068 875.746L774.77 874.438C778.16 866.721 844.539 831.145 856.477 824.739Z"/><path fill="#8C969F" fill-opacity="0.50588238" transform="scale(0.5 0.5)" d="M633.442 967.786L634.325 970.974C633.074 974.277 558.783 1017.25 549.794 1021.91C548.159 1018.93 548.344 1018.42 549.424 1015.62C556.825 1009.47 625.964 969.939 633.442 967.786Z"/><path fill="#8C969F" fill-opacity="0.46666667" transform="scale(0.5 0.5)" d="M746.801 902.849C747.769 903.774 747.885 904.317 748.568 905.555C746.456 912.485 718.82 926.27 711.829 930.23C695.309 939.634 678.877 949.19 662.533 958.897C661.614 957.292 661.679 956.863 661.184 955.029C661.515 954.225 661.846 953.42 662.177 952.616C686.519 936.463 723.055 918.019 746.801 902.849Z"/><path fill="#8C969F" fill-opacity="0.50196081" transform="scale(0.5 0.5)" d="M631.109 951.911C634.524 950.671 633.041 950.454 635.784 951.614C636.335 953.356 636.751 953.21 635.961 954.545C633.057 959.453 561.998 997.709 552.067 1002.61L550.22 1002.3L549.334 999.898C551.158 995.947 607.164 964.989 614.934 961.169C620.399 958.289 625.775 955.043 631.109 951.911Z"/><path fill="#8C969F" fill-opacity="0.3882353" transform="scale(0.5 0.5)" d="M858.848 839.827C859.749 840.793 859.793 841.264 860.387 842.528C857.466 849.653 790.018 884.117 776.565 893.306C776.321 892.993 776.001 892.726 775.834 892.366C775.389 891.403 775.412 890.011 775.794 889.053C779.143 880.665 846.515 846.651 858.848 839.827Z"/><path fill="#8C969F" fill-opacity="0.40784314" transform="scale(0.5 0.5)" d="M835.438 870.043C836.702 869.936 837.133 870.226 838.457 870.572L838.758 872.726C835.112 877.468 787.655 902.796 778.502 908.121C776.35 909.24 776.474 909.032 774.042 909.232L775.637 909.421L774.233 907.964L775.033 904.735C782.227 896.458 823.663 876.089 835.438 870.043Z"/><path fill="#8C969F" fill-opacity="0.42352942" transform="scale(0.5 0.5)" d="M720.804 934.654L722.684 935.484L723.354 937.325C719.72 943.525 675.153 967.379 665.573 973.393L662.98 972.784L662.269 970.426C664.849 964.017 711.658 939.751 720.804 934.654Z"/><path fill="#8C969F" fill-opacity="0.51764709" transform="scale(0.5 0.5)" d="M609.823 996.827L612.094 997.152L613.069 998.96C610.428 1004.95 562.831 1029.58 552.632 1037.17C550.019 1035.9 551.084 1036.79 549.727 1034.08C550.029 1033.24 550.331 1032.4 550.633 1031.57C567.079 1021.07 593.881 1006.05 609.823 996.827Z"/><path fill="#FDFDFC" fill-opacity="0.011764706" transform="scale(0.5 0.5)" d="M603.036 955.486C610.405 950.737 617.589 946.896 622.228 939.406C622.389 944.27 621.701 946.75 623.944 950.556C626.648 952.155 627.974 951.877 631.109 951.911C625.775 955.043 620.399 958.289 614.934 961.169L614.472 956.66C611.364 954.307 607.6 955.306 603.036 955.486Z"/><path fill="#363433" transform="scale(0.5 0.5)" d="M943.215 1316.53L942.085 1314.99C934.893 1305.3 926.756 1298.46 928.045 1284.64C928.613 1276.72 933.711 1271.73 940.073 1267.51C964.799 1251.09 991.881 1236.39 1018.09 1222.33C1041.13 1209.97 1070.32 1188.19 1093.75 1178.9C1106.13 1183.27 1194.02 1233.75 1203.2 1241.69C1204.7 1248.33 1199.2 1251.7 1195.66 1257.37C1195.61 1262.18 1195.76 1267.14 1194.89 1271.83C1214.86 1279.38 1203.35 1284.96 1191.72 1292.41C1209.93 1301.5 1240.63 1319.85 1258.54 1330.82C1284.34 1346.64 1339.26 1374.26 1359.1 1393.49C1365.36 1408.03 1365.56 1512.41 1363.3 1533.69C1355.04 1545.81 1350.02 1548.08 1335.29 1551.71C1306.62 1535.81 1278.61 1518.37 1249.55 1501.34C1238.55 1494.9 1173.19 1459.32 1170.75 1448.28C1167.53 1433.69 1170.26 1394.34 1169.46 1377.21C1169.32 1372.19 1169.93 1362.42 1168.99 1358.61C1161.93 1360.79 1131.59 1379.81 1123.79 1384.44C1096.86 1400.41 1071.03 1416.28 1042.92 1430.4C1016.31 1418.04 989.169 1398.49 963.256 1384.45C944.397 1374.23 916.396 1357.83 924.787 1332.63C927.743 1323.76 935.3 1320.04 943.215 1316.53Z"/><path fill="#2F363D" transform="scale(0.5 0.5)" d="M1042.92 1430.4C1016.31 1418.04 989.169 1398.49 963.256 1384.45C944.397 1374.23 916.396 1357.83 924.787 1332.63C927.743 1323.76 935.3 1320.04 943.215 1316.53C945.472 1317.59 949.862 1319.5 951.846 1320.65C964.585 1327.82 1042.6 1370.44 1045.72 1377.93C1044.25 1381.33 1041.73 1381.84 1038.18 1382.62L1040.39 1384.19C1054.34 1386.6 1134.99 1328.18 1155.17 1322.57C1157.59 1321.89 1158.71 1323.68 1160.4 1325.03L1161.36 1325.19C1164.95 1322.76 1164.25 1322.38 1167.71 1322.52C1169.69 1325.2 1169.29 1330.27 1169.42 1333.87L1168.3 1339.19C1168.22 1341.31 1168.69 1346.54 1166.62 1347.66C1125.19 1369.89 1085 1396.73 1043.81 1419.08C1024.55 1407.01 956.443 1364.13 938.887 1359.86C953.642 1373.22 970.949 1381.05 988.105 1390.92C1005.54 1400.95 1025.98 1415.33 1044.14 1423.21C1059.99 1414.48 1162.97 1353.11 1167.8 1352.21C1169 1355.12 1168.66 1353.89 1168.19 1357.39L1168.99 1358.61C1161.93 1360.79 1131.59 1379.81 1123.79 1384.44C1096.86 1400.41 1071.03 1416.28 1042.92 1430.4Z"/><path fill="#FDFDFC" transform="scale(0.5 0.5)" d="M1161.36 1325.19C1164.95 1322.76 1164.25 1322.38 1167.71 1322.52C1169.69 1325.2 1169.29 1330.27 1169.42 1333.87L1168.3 1339.19C1162.85 1342.5 1157.7 1345.86 1151.84 1348.39C1140.09 1356.45 1125.45 1364.39 1112.88 1371.6C1090.41 1384.21 1068.15 1397.2 1046.11 1410.55C1045.97 1404.15 1046 1397.56 1045.96 1391.15C1074.43 1377.01 1111.06 1354.57 1138.71 1338.04C1146.16 1333.74 1153.13 1329.68 1160.4 1325.03L1161.36 1325.19Z"/><path fill="#535E6B" transform="scale(0.5 0.5)" d="M951.846 1320.65C964.585 1327.82 1042.6 1370.44 1045.72 1377.93C1044.25 1381.33 1041.73 1381.84 1038.18 1382.62L942.072 1326.2L951.846 1320.65Z"/><path fill="#FDFDFC" transform="scale(0.5 0.5)" d="M943.208 1334.46C951.756 1338.15 968.375 1348.73 976.919 1353.77L1039.83 1390.79L1040.05 1408.86C1030.97 1404.98 1013.56 1393.99 1004.59 1388.69L944.079 1352.95C944.111 1346.08 943.811 1341.33 943.208 1334.46Z"/><path fill="#535E6B" transform="scale(0.5 0.5)" d="M932.939 1329.46C939.334 1335.14 939.12 1351.68 935.868 1359.04C929.279 1347.54 927.987 1341.83 932.939 1329.46Z"/><path fill="#FDFDFC" transform="scale(0.5 0.5)" d="M1176.2 1311.23C1189.03 1316.04 1222.94 1337.22 1237.11 1345.34C1266.49 1362.69 1296.19 1379.57 1325.24 1397.46C1337.05 1404.74 1341.19 1410.37 1341.18 1424.51C1341.16 1453.54 1341.28 1482.41 1341.98 1511.44C1342.25 1522.52 1342.17 1534.57 1340.55 1545.5C1340.33 1545.54 1340.11 1545.62 1339.89 1545.62C1332.08 1545.61 1214.77 1475.07 1199.69 1465.23C1191.36 1459.8 1183.39 1454.28 1176.2 1447.37C1174.01 1409.17 1173.86 1349.37 1176.2 1311.23Z"/><path fill="#363433" transform="scale(0.5 0.5)" d="M1218.06 1423.09C1218.02 1432.19 1217.64 1446.81 1219.38 1455.29L1221.17 1455.75L1220.82 1456.54C1229.77 1439.96 1218.62 1407.15 1226.25 1399.65C1232.94 1397.9 1246.23 1408.2 1251.95 1411.95C1251.69 1427.41 1250.28 1462.47 1253.88 1475.45L1255.43 1476.46C1258.51 1473.33 1258.08 1461.97 1258.05 1457.42C1257.99 1451.89 1257.91 1446.36 1257.79 1440.83C1266.95 1446.1 1277.46 1451.83 1286.06 1457.76C1285.87 1466.36 1284.12 1489.35 1288.84 1495.46L1290.09 1495.35C1293.1 1485.03 1289.17 1433.32 1292.73 1428.23C1298.41 1427.12 1314.26 1438.37 1319.74 1441.87C1320.06 1465.13 1319.27 1489.51 1319.96 1512.43C1322.44 1516.04 1325.19 1519.86 1327.53 1523.53C1314.04 1519.83 1186.94 1447.34 1183.32 1440.03C1192.1 1436.26 1190.06 1436.81 1190.7 1426.78C1190.2 1420.96 1188.16 1413.05 1193.79 1409.92C1197.7 1410.16 1199.78 1412.14 1203.09 1414.38L1218.06 1423.09Z"/><path fill="#2F363D" transform="scale(0.5 0.5)" d="M1190.7 1426.78C1190.2 1420.96 1188.16 1413.05 1193.79 1409.92C1197.7 1410.16 1199.78 1412.14 1203.09 1414.38C1198.76 1415.85 1195.82 1416.85 1191.32 1417.86C1191.34 1420.69 1191.71 1424.39 1190.7 1426.78Z"/><path fill="#E48841" transform="scale(0.5 0.5)" d="M1297.5 1501.66C1297 1492.95 1295.23 1440.81 1299.17 1437.28L1301.38 1437.98L1303.82 1439.49C1306.98 1440.95 1310.37 1443.01 1313.43 1444.75L1313.95 1510.84L1297.5 1501.66Z"/><path fill="#D88749" transform="scale(0.5 0.5)" d="M1297.5 1501.66C1297 1492.95 1295.23 1440.81 1299.17 1437.28L1301.38 1437.98C1297.37 1443.67 1297.5 1495.88 1303.33 1500.25C1316.73 1492.61 1311.13 1451.79 1303.82 1439.49C1306.98 1440.95 1310.37 1443.01 1313.43 1444.75L1313.95 1510.84L1297.5 1501.66Z"/><path fill="#E48841" transform="scale(0.5 0.5)" d="M1229.88 1405.93C1233.62 1407.54 1242.03 1412.91 1245.94 1415.29C1246.09 1433.81 1246.11 1452.34 1245.98 1470.86C1240.68 1468.66 1235.11 1465.36 1230.03 1462.55L1229.88 1405.93Z"/><path fill="#E48841" transform="scale(0.5 0.5)" d="M1263.73 1452.07C1268.55 1454.35 1275.17 1458.6 1279.89 1461.46C1280.11 1470.39 1280.45 1481.02 1279.17 1489.74C1275.4 1489.88 1267.69 1484.66 1264 1482.51C1263.63 1472.37 1263.54 1462.22 1263.73 1452.07Z"/><path fill="#E48841" transform="scale(0.5 0.5)" d="M1196.06 1417.28L1203.91 1422.07L1212 1426.97L1212 1452.19C1202.48 1447.63 1197.79 1446.97 1196.06 1435.52L1196.06 1417.28Z"/><path fill="#D88749" transform="scale(0.5 0.5)" d="M1203.91 1422.07L1212 1426.97L1212 1452.19C1202.48 1447.63 1197.79 1446.97 1196.06 1435.52L1198.57 1438.71C1200.98 1441.78 1202.31 1444.18 1206.4 1442.35C1208.71 1435.62 1205.89 1428.99 1203.91 1422.07Z"/><path fill="#2F363D" transform="scale(0.5 0.5)" d="M1235.64 1375.99L1237.56 1376.27C1246.28 1382.47 1266.1 1412.79 1273.41 1423.45C1284.42 1418.94 1295.18 1413.44 1305.87 1408.19C1301.86 1406.47 1300.8 1406.35 1298.05 1403.17L1298.83 1401.95C1307.33 1401.5 1310.94 1403.15 1318.74 1406.02C1316.13 1413.42 1315.45 1417.13 1310.58 1423.39L1308.58 1423.81L1308.6 1424.39C1308.46 1420.74 1308.71 1419.31 1306.84 1416.15C1303.42 1415.63 1303.52 1416.33 1299.71 1417.98L1272.39 1430.82C1260.29 1416.75 1247.49 1397.89 1236.57 1382.51C1229.63 1385.74 1208.23 1396.67 1201.8 1395.12L1202.15 1393.41C1210.1 1386.11 1225.39 1380.45 1235.64 1375.99Z"/><path fill="#E48841" transform="scale(0.5 0.5)" d="M1095.12 1185.05C1102.48 1188.9 1113.6 1194.44 1119.93 1199.37C1140.73 1209.58 1176.58 1232.48 1197.5 1244.98C1179.06 1256.76 1158.65 1267.94 1139.68 1279.09C1109.64 1297.08 1079.31 1314.59 1048.7 1331.6C1039.35 1326.44 950.637 1275 948.43 1271.85C949.165 1269.8 948.542 1270.54 950.074 1269.47C958.587 1263.12 973.526 1255.23 983.071 1250.28C987.945 1246.86 993.143 1243.76 998.405 1240.97C1025.08 1226.88 1050.13 1209.02 1077.03 1195.52C1083.43 1191.5 1088.43 1188.59 1095.12 1185.05Z"/><path fill="#D88749" transform="scale(0.5 0.5)" d="M1095.12 1185.05C1102.48 1188.9 1113.6 1194.44 1119.93 1199.37C1112.39 1198.75 1105.2 1194.56 1097.4 1191.8C1090.18 1193.45 1084.43 1194.94 1077.03 1195.52C1083.43 1191.5 1088.43 1188.59 1095.12 1185.05Z"/><path fill="#D88749" transform="scale(0.5 0.5)" d="M950.074 1269.47C958.587 1263.12 973.526 1255.23 983.071 1250.28C974.431 1263.43 964.913 1266.72 950.074 1269.47Z"/><path fill="#363433" transform="scale(0.5 0.5)" d="M1094.31 1248.2C1086.8 1243.15 1066.55 1233.36 1063.77 1226.99C1065.12 1218.62 1082.4 1211.16 1090.08 1207.59C1106 1216.73 1142.13 1236.55 1154.49 1247.55C1143.97 1257.39 1132.64 1260.37 1125.57 1266.57L1123.01 1268.45C1114.68 1269.78 1114.22 1263.87 1106.11 1259.73C1103.41 1259.95 1101.43 1260.5 1099.24 1259.1C1098.02 1253.82 1097.52 1252.57 1094.31 1248.2Z"/><path fill="#D88749" transform="scale(0.5 0.5)" d="M1094.31 1248.2C1104.73 1254.03 1115.26 1261.18 1125.57 1266.57L1123.01 1268.45C1114.68 1269.78 1114.22 1263.87 1106.11 1259.73C1103.41 1259.95 1101.43 1260.5 1099.24 1259.1C1098.02 1253.82 1097.52 1252.57 1094.31 1248.2Z"/><path fill="#FDFDFC" transform="scale(0.5 0.5)" d="M1088.57 1214.79C1093.44 1214.36 1138.08 1243.04 1145.15 1247.41L1126.4 1258.85C1121.31 1259.45 1077.08 1230.97 1069.84 1226.5C1076.51 1222.62 1082.13 1219.05 1088.57 1214.79Z"/><path fill="#FDFDFC" transform="scale(0.5 0.5)" d="M1188.49 1258.03L1189.19 1258.13C1190.7 1261.53 1190.05 1269.63 1190.01 1273.92C1178.79 1282.14 1156.31 1294.64 1143.81 1301.97L1052.57 1354.83L1051.86 1354.76C1050.38 1351.69 1050.65 1342.43 1050.56 1338.39C1068.28 1326.42 1089.3 1316.22 1107.66 1305.15C1134.6 1288.91 1160.84 1273.19 1188.49 1258.03Z"/><path fill="#FDFDFC" transform="scale(0.5 0.5)" d="M949.624 1281.23C981.087 1297.43 1013.9 1318.29 1044.81 1336.46C1044.7 1342.71 1044.82 1349.31 1044.84 1355.59C1025.9 1343.77 1006.7 1332.36 987.263 1321.37C976.035 1314.9 958.739 1305.69 949.066 1298.44C949 1292.11 949.162 1287.55 949.624 1281.23Z"/><path fill="#D88749" transform="scale(0.5 0.5)" d="M939.428 1274.66C944.772 1280.06 943.256 1293.77 943.666 1302.46C952.967 1309.3 970.681 1319.25 980.924 1325.26L1047.62 1364.03C1063.33 1356.43 1080.88 1345.57 1096.03 1336.63L1156.64 1301.14C1164.49 1296.48 1192.21 1277.9 1198.88 1280.04L1198.85 1281.71L1196.56 1283.71L1103.89 1338.01C1086.47 1348.21 1065.87 1361 1047.85 1369.26C1046.03 1368.32 1044.21 1367.37 1042.41 1366.4C1020.56 1354.65 999.732 1341.44 978.534 1328.49C966.581 1320.58 951.507 1314.48 940.886 1304.94C931.725 1296.72 934.45 1283.9 939.428 1274.66Z"/><path fill="#E48841" transform="scale(0.5 0.5)" d="M1351.1 1400.61C1351.98 1400.73 1354.31 1401.29 1355.24 1401.49C1359.88 1406.42 1358.09 1517.31 1358 1533.93C1355.85 1535.73 1352.79 1537.91 1350.49 1539.65C1349.85 1539.9 1349.12 1539.77 1348.43 1539.79C1346.78 1535.96 1347.57 1443.5 1347.98 1432.04C1348.24 1424.93 1345.29 1415.02 1345.52 1407.55C1345.59 1405.13 1349.19 1402.4 1351.1 1400.61Z"/><path fill="#D88749" transform="scale(0.5 0.5)" d="M1253.88 1335.56L1315.49 1371.33C1326.83 1377.91 1342.85 1386.51 1352.89 1394.22L1341.89 1400.93C1319.44 1385.04 1290.81 1371.24 1267.24 1356.32C1260.2 1351.87 1251.09 1347.26 1244.46 1342.53C1248.13 1337.66 1247.85 1338.12 1253.88 1335.56Z"/><path fill="#E48841" transform="scale(0.5 0.5)" d="M1210.2 1322.49C1213.33 1316.89 1210.54 1316.89 1216.32 1313.99C1228.87 1320.97 1241.51 1328.79 1253.88 1335.56C1247.85 1338.12 1248.13 1337.66 1244.46 1342.53C1232.67 1336.37 1221.55 1329.41 1210.2 1322.49Z"/><path fill="#D88749" transform="scale(0.5 0.5)" d="M1194.83 1300.99C1202.46 1305.25 1208.94 1309.27 1216.32 1313.99C1210.54 1316.89 1213.33 1316.89 1210.2 1322.49C1201.42 1317.78 1191.77 1312 1183.05 1307C1186.65 1304.85 1191.02 1302.85 1194.83 1300.99Z"/><path fill="#363433" transform="scale(0.5 0.5)" d="M1584.6 1002.96C1616.68 1014.51 1644.63 1032.78 1674.1 1049.71C1683.78 1055.27 1703.11 1065.94 1711.21 1072.33C1715.16 1087.46 1717.13 1108.53 1710.08 1123C1708.56 1126.12 1705.51 1128.01 1702.94 1130.23C1710.07 1135.69 1713.74 1140.39 1713.97 1149.84C1714.34 1164.92 1717.96 1186.39 1703.11 1195.57C1711.07 1200.56 1714 1202.59 1713.66 1212.42L1714.05 1249.66C1706.83 1261.28 1672.85 1278.49 1659.1 1286.06C1641.88 1295.54 1610.9 1318.39 1593.7 1323.8C1577.49 1328.9 1513.22 1281.77 1497.19 1275.02C1492.45 1273.01 1479.79 1265.59 1475.99 1263.42C1467.13 1257.01 1461.48 1252.7 1461.25 1240.54C1461.04 1229.4 1461.47 1217.97 1462.05 1206.85C1464.49 1202.96 1468.11 1198.58 1471.04 1194.98C1460.18 1189.47 1461.81 1183.03 1460.94 1171.57L1461.02 1141.53L1467.84 1134.15C1469.35 1132.41 1468.94 1133.1 1469.71 1130.98C1469.02 1128.04 1464.36 1121.93 1462.32 1118.4C1461.97 1106.57 1462.23 1087.52 1460.86 1076.59C1476.18 1059.23 1560.5 1016.53 1584.6 1002.96Z"/><path fill="#363433" transform="scale(0.5 0.5)" d="M1699.59 1191.36C1700.91 1193.42 1701.17 1194.49 1703.11 1195.57C1711.07 1200.56 1714 1202.59 1713.66 1212.42L1714.05 1249.66C1706.83 1261.28 1672.85 1278.49 1659.1 1286.06C1641.88 1295.54 1610.9 1318.39 1593.7 1323.8C1577.49 1328.9 1513.22 1281.77 1497.19 1275.02C1492.45 1273.01 1479.79 1265.59 1475.99 1263.42C1467.13 1257.01 1461.48 1252.7 1461.25 1240.54C1461.04 1229.4 1461.47 1217.97 1462.05 1206.85C1464.49 1202.96 1468.11 1198.58 1471.04 1194.98C1477.89 1198.07 1476.5 1199.64 1483.35 1195.52C1516.45 1213.26 1550.71 1237.02 1584.4 1252.35L1590.94 1252.03C1619.41 1238.68 1644.33 1221.49 1671.76 1206.29C1679.97 1201.75 1691.12 1194.86 1699.59 1191.36Z"/><path fill="#535E6B" transform="scale(0.5 0.5)" d="M1707.91 1213.07C1708.55 1211.8 1709.14 1211.54 1710.29 1210.48L1712.3 1210.59L1713.66 1212.42L1714.05 1249.66C1706.83 1261.28 1672.85 1278.49 1659.1 1286.06C1641.88 1295.54 1610.9 1318.39 1593.7 1323.8C1577.49 1328.9 1513.22 1281.77 1497.19 1275.02C1492.45 1273.01 1479.79 1265.59 1475.99 1263.42L1480.08 1258.43L1541.89 1294.36C1553.9 1301.39 1571.42 1312.33 1583.86 1317.63C1584.1 1305.01 1584.52 1292.13 1584.14 1279.53C1585.67 1279.4 1588.86 1279.03 1590.25 1279.06C1602.64 1275.94 1696.2 1222.41 1707.91 1213.07Z"/><path fill="#2F363D" transform="scale(0.5 0.5)" d="M1707.91 1213.07C1708.55 1211.8 1709.14 1211.54 1710.29 1210.48L1712.3 1210.59L1713.66 1212.42L1714.05 1249.66C1706.83 1261.28 1672.85 1278.49 1659.1 1286.06C1641.88 1295.54 1610.9 1318.39 1593.7 1323.8C1577.49 1328.9 1513.22 1281.77 1497.19 1275.02C1492.45 1273.01 1479.79 1265.59 1475.99 1263.42L1480.08 1258.43L1541.89 1294.36C1553.9 1301.39 1571.42 1312.33 1583.86 1317.63C1584.1 1305.01 1584.52 1292.13 1584.14 1279.53C1585.67 1279.4 1588.86 1279.03 1590.25 1279.06C1591.52 1290.19 1590.86 1306.48 1590.66 1317.95C1605.92 1311.29 1695.18 1260.24 1706.39 1250.35C1709.54 1237.06 1708.51 1226.57 1707.91 1213.07Z"/><path fill="#535E6B" transform="scale(0.5 0.5)" d="M1467.03 1213.57C1486.55 1225.69 1508.07 1237.9 1528.02 1249.46C1541.66 1257.36 1570.35 1275.2 1584.14 1279.53C1584.52 1292.13 1584.1 1305.01 1583.86 1317.63C1571.42 1312.33 1553.9 1301.39 1541.89 1294.36L1480.08 1258.43L1468.19 1251.08C1467.04 1237.85 1467.01 1226.85 1467.03 1213.57Z"/><path fill="#2F363D" transform="scale(0.5 0.5)" d="M1501.64 1243.52C1507.66 1244.04 1509.9 1245.34 1515.11 1248.28C1521.4 1257.92 1521.47 1261.41 1517.56 1272.07C1516.1 1271.59 1514.65 1271.07 1513.22 1270.51C1500.5 1265.42 1496.25 1255.95 1501.64 1243.52Z"/><path fill="#FDFDFC" transform="scale(0.5 0.5)" d="M1504.36 1250.4C1511.78 1252.3 1512.84 1255.97 1514.04 1262.91C1506.72 1261.08 1505.92 1256.96 1504.36 1250.4Z"/><path fill="#2F363D" transform="scale(0.5 0.5)" d="M1477.1 1229.76C1490.05 1229.95 1499.45 1244.11 1491.53 1256.33C1477.91 1255.67 1467.73 1242.34 1477.1 1229.76Z"/><path fill="#FDFDFC" transform="scale(0.5 0.5)" d="M1480.47 1236.54C1487.32 1239 1488.21 1243.68 1488.31 1250.2C1482.03 1246.2 1479.49 1244.4 1480.47 1236.54Z"/><path fill="#D88749" transform="scale(0.5 0.5)" d="M1690.16 1202.4C1698.76 1197.9 1699.86 1201.6 1706.76 1207.85C1703.63 1209.79 1700.15 1212.09 1696.92 1213.77L1691.3 1217.1C1664.15 1233.09 1636.37 1248.13 1609.35 1264.35C1600.75 1268.64 1593.44 1276.13 1583.08 1272.05C1558.88 1262.51 1535.02 1246.09 1512.27 1233.4C1503.08 1228.26 1475.75 1214.18 1471.81 1206.83C1472.83 1202.89 1471.78 1204.35 1474.65 1202.02C1477.63 1201.28 1482.53 1201.63 1485.18 1203.15C1510.53 1218.25 1538 1232.39 1562.9 1248.03C1593.05 1266.96 1604.94 1252.21 1632.13 1236.26C1651.55 1225.11 1670.9 1213.82 1690.16 1202.4Z"/><path fill="#535E6B" transform="scale(0.5 0.5)" d="M1695.38 1134.69C1698.08 1132.66 1699.67 1131.1 1702.94 1130.23C1710.07 1135.69 1713.74 1140.39 1713.97 1149.84C1714.34 1164.92 1717.96 1186.39 1703.11 1195.57C1701.17 1194.49 1700.91 1193.42 1699.59 1191.36C1691.12 1194.86 1679.97 1201.75 1671.76 1206.29C1644.33 1221.49 1619.41 1238.68 1590.94 1252.03L1584.4 1252.35C1550.71 1237.02 1516.45 1213.26 1483.35 1195.52C1476.5 1199.64 1477.89 1198.07 1471.04 1194.98C1460.18 1189.47 1461.81 1183.03 1460.94 1171.57L1461.02 1141.53L1467.84 1134.15C1468.68 1136.38 1469.26 1137.67 1469.8 1140.01C1483.01 1129.33 1504.69 1150.83 1517.4 1156.24C1534.74 1163.61 1574.24 1196.98 1593.33 1191.19C1606.3 1187.25 1630.51 1172.13 1643.17 1164.76L1695.38 1134.69Z"/><path fill="#535E6B" transform="scale(0.5 0.5)" d="M1467.29 1148.72C1496.39 1164.67 1523.82 1182.6 1552.92 1198.35C1561.22 1202.85 1575.32 1211.08 1583.97 1213.84L1584.4 1252.35C1550.71 1237.02 1516.45 1213.26 1483.35 1195.52C1477.68 1191.45 1472.53 1187.96 1467.45 1183.16C1467.11 1171.68 1467.06 1160.2 1467.29 1148.72Z"/><path fill="#2F363D" transform="scale(0.5 0.5)" d="M1500.78 1178.64C1513.27 1180.16 1514.91 1183.65 1521.36 1193.69C1520.44 1197.6 1519.15 1201.88 1518.07 1205.79C1503.97 1208.56 1496.44 1191.79 1500.78 1178.64Z"/><path fill="#FDFDFC" transform="scale(0.5 0.5)" d="M1504.34 1185.38C1511.92 1187.3 1512.71 1191.25 1514.08 1198.15C1506.39 1195.75 1505.8 1192.64 1504.34 1185.38Z"/><path fill="#2F363D" transform="scale(0.5 0.5)" d="M1477.21 1163.5C1491.63 1166.65 1498.08 1177.33 1491.66 1191.1C1475.8 1187.1 1468.35 1178.92 1477.21 1163.5Z"/><path fill="#FDFDFC" transform="scale(0.5 0.5)" d="M1478.41 1170.39C1486.14 1172.29 1487.1 1177.36 1489.22 1183.93C1480.31 1181.43 1480.11 1178.83 1478.41 1170.39Z"/><path fill="#535E6B" transform="scale(0.5 0.5)" d="M1708.04 1148.96L1707.47 1185.19L1699.59 1191.36C1691.12 1194.86 1679.97 1201.75 1671.76 1206.29C1644.33 1221.49 1619.41 1238.68 1590.94 1252.03C1590.12 1241 1590.8 1225.3 1591.02 1213.83C1607.37 1208.57 1632.68 1192.82 1648.29 1183.65L1708.04 1148.96Z"/><path fill="#2F363D" transform="scale(0.5 0.5)" d="M1695.38 1134.69C1698.08 1132.66 1699.67 1131.1 1702.94 1130.23C1710.07 1135.69 1713.74 1140.39 1713.97 1149.84C1714.34 1164.92 1717.96 1186.39 1703.11 1195.57C1701.17 1194.49 1700.91 1193.42 1699.59 1191.36L1707.47 1185.19L1708.04 1148.96L1648.29 1183.65C1632.68 1192.82 1607.37 1208.57 1591.02 1213.83C1590.8 1225.3 1590.12 1241 1590.94 1252.03L1584.4 1252.35L1583.97 1213.84C1575.32 1211.08 1561.22 1202.85 1552.92 1198.35C1523.82 1182.6 1496.39 1164.67 1467.29 1148.72C1467.06 1160.2 1467.11 1171.68 1467.45 1183.16C1472.53 1187.96 1477.68 1191.45 1483.35 1195.52C1476.5 1199.64 1477.89 1198.07 1471.04 1194.98C1460.18 1189.47 1461.81 1183.03 1460.94 1171.57L1461.02 1141.53L1467.84 1134.15C1468.68 1136.38 1469.26 1137.67 1469.8 1140.01C1470.01 1140.62 1470.1 1140.98 1470.5 1141.56C1475.64 1149.07 1572.16 1203.16 1583.66 1206.11C1588.06 1207.25 1592.81 1207.22 1597.08 1205.57C1611.9 1199.85 1625.92 1189.17 1639.6 1181.06C1661.84 1167.89 1684.49 1155.37 1706.91 1142.53C1703.4 1139.73 1699.17 1137.15 1695.38 1134.69Z"/><path fill="#E48841" transform="scale(0.5 0.5)" d="M1587.64 1009.2C1593.7 1011.51 1597.44 1012.72 1602.89 1016.26C1617.97 1022.96 1639.98 1036.65 1655.02 1045.2C1670.11 1053.78 1694.08 1066.79 1707.45 1076.98C1702.79 1079.6 1694.21 1084.74 1689.65 1086.66C1675.46 1096.35 1654.04 1107.07 1638.77 1116.3C1624.56 1124.28 1610.29 1134.22 1595.32 1140.51C1582.1 1146.06 1559.06 1129.6 1547.6 1122.89L1504.39 1097.71C1493.34 1091.16 1481.22 1083.41 1469.81 1077.99L1468.1 1077.19C1475.84 1071.37 1483.46 1066.95 1491.94 1062.35C1500.44 1055.57 1529.98 1039.89 1540.22 1034.31C1553.41 1025.78 1573.25 1014.94 1587.64 1009.2Z"/><path fill="#D88749" transform="scale(0.5 0.5)" d="M1602.89 1016.26C1617.97 1022.96 1639.98 1036.65 1655.02 1045.2C1670.11 1053.78 1694.08 1066.79 1707.45 1076.98C1702.79 1079.6 1694.21 1084.74 1689.65 1086.66C1692.45 1082.7 1694.76 1082.45 1698.45 1076.77C1697.4 1068.51 1674.93 1065.99 1668.62 1061.74C1664.85 1059.25 1659.93 1050.73 1656.07 1048.92C1637.86 1040.38 1616.37 1032.26 1602.89 1016.26Z"/><path fill="#D88749" transform="scale(0.5 0.5)" d="M1491.94 1062.35C1500.44 1055.57 1529.98 1039.89 1540.22 1034.31C1536.63 1044.63 1528.13 1043.83 1519.47 1049.99C1516.36 1052.2 1512.25 1057.02 1509.61 1059.97C1503.72 1062.29 1498.27 1062.31 1491.94 1062.35Z"/><path fill="#E48841" transform="scale(0.5 0.5)" d="M1467.11 1083.03C1481.44 1090.68 1496.42 1099.7 1510.68 1107.84C1524.4 1115.67 1542.45 1125.32 1554.89 1134.42C1563.71 1138.55 1576.82 1146.05 1584.93 1148.86C1584.87 1161.98 1584.99 1173.36 1583.78 1186.41C1563.41 1177.69 1533.57 1159.34 1514.33 1147.55C1503.17 1141.55 1491.66 1135.53 1480.61 1129.37C1463.76 1119.96 1466.6 1099.7 1467.11 1083.03Z"/><path fill="#D88749" transform="scale(0.5 0.5)" d="M1467.11 1083.03C1481.44 1090.68 1496.42 1099.7 1510.68 1107.84C1524.4 1115.67 1542.45 1125.32 1554.89 1134.42C1543.43 1132.82 1533.35 1122.32 1523.21 1124.56C1520.7 1126.9 1521.49 1126.28 1520.83 1130.56C1520.62 1134.06 1520.83 1134.89 1518.69 1137.71C1515.25 1139.6 1514.12 1139.23 1510.22 1139.05C1512.03 1142.05 1513.36 1144.09 1514.33 1147.55C1503.17 1141.55 1491.66 1135.53 1480.61 1129.37C1463.76 1119.96 1466.6 1099.7 1467.11 1083.03Z"/><path fill="#363433" transform="scale(0.5 0.5)" d="M1510.22 1139.05C1508.32 1135.72 1489.4 1121.8 1502.58 1114.8C1512.96 1114.21 1517.71 1121.95 1520.83 1130.56C1520.62 1134.06 1520.83 1134.89 1518.69 1137.71C1515.25 1139.6 1514.12 1139.23 1510.22 1139.05Z"/><path fill="#FDFDFC" transform="scale(0.5 0.5)" d="M1505.7 1119.83C1512.31 1122.8 1512.59 1126.1 1514.27 1132.69C1506.54 1130.28 1506.16 1126.96 1505.7 1119.83Z"/><path fill="#363433" transform="scale(0.5 0.5)" d="M1476.78 1098.32C1490.81 1101.72 1498.36 1111.15 1492.26 1125.18C1475.01 1123.73 1471.4 1113.55 1476.78 1098.32Z"/><path fill="#FDFDFC" transform="scale(0.5 0.5)" d="M1478.24 1105.37C1486.43 1107.29 1487.4 1109.95 1488.1 1118.15C1480.89 1116.04 1479.82 1111.99 1478.24 1105.37Z"/><path fill="#E48841" transform="scale(0.5 0.5)" d="M1704.62 1085.81C1706.02 1085.67 1705.19 1085.6 1706.98 1086.59C1708.87 1093.07 1707.85 1112.75 1707.57 1120.58C1692.73 1130.46 1674.72 1139.47 1659.18 1148.58C1637.31 1161.42 1615.85 1174.52 1593.24 1186.06L1591.17 1186.53C1588.89 1183.04 1589.99 1154.55 1590.06 1148.66C1608.16 1142.92 1620.15 1134.19 1636.5 1124.83C1658.92 1111.99 1681.61 1097.44 1704.62 1085.81Z"/><path fill="#2F363D" transform="scale(0.5 0.5)" d="M1096.93 1449.32C1100.14 1449.52 1105.13 1449.9 1108.11 1451.14C1137.89 1464.05 1163.51 1481.12 1191.35 1498.39C1204.93 1506.81 1241.5 1524.69 1250.83 1537.99C1256.09 1545.49 1254.48 1572.3 1250.9 1581.74C1225.35 1601.32 1186.89 1619.29 1159.5 1637.36C1144.31 1647.38 1116.58 1665.02 1098.96 1666.06C1085.63 1665.85 1072.73 1657.42 1061.39 1650.93C1024.51 1629.8 987.391 1608.75 951.555 1585.89C948.354 1583.85 945.054 1580.28 942.522 1577.49C942.319 1568.54 940.22 1539.17 945.087 1534.96C965.812 1518.22 993.387 1504.26 1016.74 1491.37C1035.77 1480.87 1077.84 1451.32 1096.93 1449.32Z"/><path fill="#535E6B" transform="scale(0.5 0.5)" d="M1095.05 1456.15C1101.07 1455.98 1105.52 1456.95 1110.99 1459.38C1126.87 1466.47 1232.39 1528.53 1241.02 1536.95C1243.53 1539.4 1245.85 1542.03 1245.91 1545.61C1237.53 1556.57 1194.32 1579.24 1180.69 1586.93C1158.66 1599.35 1127.54 1622.16 1104.22 1629.33C1089.33 1629.42 1085.74 1627.83 1072.97 1620.75C1049.78 1607.9 1026.72 1593.67 1004.12 1579.82C991.803 1572.27 956.682 1555.54 950.205 1543.97C952.738 1531.36 1026.74 1494.04 1041.5 1484.66C1051.36 1478.4 1084.88 1458.56 1095.05 1456.15Z"/><path fill="#2F363D" transform="scale(0.5 0.5)" d="M1091.53 1490.43C1102.35 1489.19 1149.25 1493.63 1149.19 1507.77C1144.84 1515.16 1132.16 1519.55 1124.1 1522.26C1106.39 1518.85 1080.64 1514.56 1065.65 1525.93C1035.43 1548.85 1070.97 1561.89 1089.9 1565.49C1090.6 1575.61 1089.28 1581.3 1087.38 1591.12C999.038 1590.88 982.136 1498.92 1091.53 1490.43Z"/><path fill="#FDFDFC" transform="scale(0.5 0.5)" d="M1081.41 1585.49C1056.69 1581.38 1009.76 1568.5 1023.55 1531.02C1033.83 1503.04 1080.09 1493.59 1106 1496.59C1118.55 1498.04 1130.53 1501.6 1142.91 1506.48C1136.92 1509.75 1130.41 1513.77 1124.48 1517.27C1110.26 1512.88 1104.29 1511.89 1089.52 1512.05L1067.67 1517.33C1060.5 1521.33 1050.31 1529.53 1048.9 1537.77C1045.16 1559.59 1068.15 1567.39 1084.24 1570.6L1081.41 1585.49Z"/><path fill="#363433" transform="scale(0.5 0.5)" d="M1159.82 1507.77C1178.08 1509.01 1185.43 1534.72 1181.3 1549.68C1177.35 1563.96 1171.3 1571.07 1159.24 1578.6C1153.5 1575.5 1147.93 1571.69 1142.45 1568.12C1128.45 1558.52 1118.83 1554.96 1105.43 1542.59C1120.64 1530.06 1142.57 1517.93 1159.82 1507.77Z"/><path fill="#E48841" transform="scale(0.5 0.5)" d="M1146.08 1523.52C1152.33 1519 1156.05 1517.03 1163.03 1513.65C1175.67 1526.66 1179.57 1533.73 1175.25 1551.76C1169.8 1561.86 1167.64 1564.25 1158.99 1571.8C1144.02 1562 1128.99 1552.31 1113.89 1542.71C1124.44 1535.87 1134.91 1529.33 1146.08 1523.52Z"/><path fill="#D88749" transform="scale(0.5 0.5)" d="M1146.08 1523.52C1152.33 1519 1156.05 1517.03 1163.03 1513.65C1175.67 1526.66 1179.57 1533.73 1175.25 1551.76C1173.82 1542.52 1173.81 1530.1 1167.19 1522.73C1161.9 1516.83 1153.72 1523.16 1146.08 1523.52Z"/><path fill="#363433" transform="scale(0.5 0.5)" d="M1092.75 1599.56C1093.32 1588.49 1093 1554.95 1102.57 1549.47C1110 1549.36 1140.45 1571.53 1150.51 1577.23C1153.77 1580.71 1153.26 1579.24 1154.11 1583.45C1153.28 1585.47 1153.36 1585.9 1152.03 1587.5C1127.59 1597.98 1119.38 1598.98 1092.75 1599.56Z"/><path fill="#2F363D" transform="scale(0.5 0.5)" d="M1150.51 1577.23C1153.77 1580.71 1153.26 1579.24 1154.11 1583.45C1153.28 1585.47 1153.36 1585.9 1152.03 1587.5C1149.58 1586.11 1149.69 1586.11 1147.78 1584C1147.77 1580.15 1148 1581.09 1150.51 1577.23Z"/><path fill="#E48841" transform="scale(0.5 0.5)" d="M1103.65 1556C1118.25 1564.14 1132.74 1573.77 1146.85 1582.85L1137.47 1587.08C1121.32 1592.03 1116.47 1592.58 1099.74 1593.73C1100.27 1581.29 1101.23 1568.22 1103.65 1556Z"/><path fill="#535E6B" transform="scale(0.5 0.5)" d="M949.983 1555.41L1021.95 1598.06C1048.51 1613.77 1066.28 1625.6 1095.26 1636.82C1096.01 1644.16 1095.76 1652.48 1095.72 1659.94C1079.18 1657.39 1035.46 1628.64 1018.21 1618.46L950.178 1578.59C949.87 1571.17 950.013 1562.9 949.983 1555.41Z"/><path fill="#535E6B" transform="scale(0.5 0.5)" d="M1244.95 1556.99C1248.87 1560.86 1246.35 1573.13 1245.74 1578.37C1235 1584.04 1221.08 1593.12 1210.31 1599.57L1148.82 1635.95C1134.29 1644.51 1119.96 1653.64 1104.36 1659.99C1100.67 1655.53 1101.8 1642.01 1101.89 1635.67C1113.21 1633.96 1122.88 1628 1132.73 1622.4C1170.37 1600.98 1207.03 1577.95 1244.95 1556.99Z"/><path fill="#FDFDFC" fill-opacity="0.0078431377" transform="scale(0.5 0.5)" d="M532.595 782.894C536.31 782.099 593.37 747.711 599.889 743.951L760.491 653.046C775.961 644.17 872.395 583.611 883.33 586.801C881.282 594.914 882.117 616.613 882.256 625.576L883.112 682.286C862.689 701.726 821.645 721.23 796.59 735.272L694.647 793.203C658.314 814.213 622.738 836.447 585.446 855.907C569.388 864.287 550.53 877.288 533.727 883.226C527.043 877.925 529.978 836.369 529.664 826.065C529.345 815.647 526.611 790.448 532.595 782.894ZM550.422 816.123C592.618 789.837 644.388 760.765 688.093 736.404L734.935 710.231C741.237 706.66 758.917 698.179 760.743 692.264C758.529 690.439 759.76 690.911 756.946 690.741C745.187 695.797 726.179 706.981 714.568 713.57L647.124 751.898L583.493 788.009C575.642 792.49 552.859 803.816 547.646 811.742C547.012 812.706 547.504 813.878 547.743 815.063C548.914 815.656 549.257 816.038 550.422 816.123ZM552.358 793.783C577.321 778.601 603.346 764.819 628.803 750.495L706.389 705.86C723.387 696.264 740.607 686.779 757.645 677.228C759.821 676.008 760.372 675.023 761.501 672.917L761.433 670.946C758.813 669.261 760.232 669.62 756.985 670.037C710.528 694.2 666.16 721.179 620.705 747.032L572.576 774.347C567.378 777.283 551.492 785.096 548.647 789.245C548.022 792.619 547.652 791.205 549.247 793.737C550.847 793.93 550.922 794.152 552.358 793.783ZM549.709 835.269C556.483 830.689 565.211 826.165 572.486 822.279C617.547 798.217 661.096 771.467 705.413 746.06C717.425 739.155 729.494 732.35 741.618 725.645C746.021 723.217 754.716 719.757 757.391 716.082L757.46 714.091C754.689 712.141 756.246 712.687 752.493 712.868C698.379 741.615 645.622 772.988 592.284 803.139C577.694 811.386 562.621 818.81 548.173 827.262C547.596 828.351 547.019 829.439 546.442 830.528C546.515 834.356 545.798 832.901 547.999 835.315L549.709 835.269ZM551.201 853.884C585.956 835.405 619.254 816.281 653.035 796.099C658.7 792.715 680.629 780.573 684.201 776.877L684.351 775.016C682.684 773.566 683.02 773.571 681.088 772.723C664.317 783.857 551.356 844.216 547.317 851.232L547.908 853.266C549.095 853.54 550.012 853.849 551.201 853.884Z"/><path fill="#E48841" transform="scale(0.5 0.5)" d="M855.722 611.433L857.438 611.23L859.268 612.833C862.442 623.684 862.203 675.911 860.789 687.22C852.997 693.647 839.846 698.228 830.769 703.109C814.622 711.793 798.583 720.981 782.319 729.413C775.884 725.104 777.387 667.682 777.753 658.123C790.761 645.95 839.966 615.249 855.722 611.433Z"/><path fill="#8C969F" fill-opacity="0.3882353" transform="scale(0.5 0.5)" d="M756.946 690.741C759.76 690.911 758.529 690.439 760.743 692.264C758.917 698.179 741.237 706.66 734.935 710.231L688.093 736.404C644.388 760.765 592.618 789.837 550.422 816.123C549.257 816.038 548.914 815.656 547.743 815.063C547.504 813.878 547.012 812.706 547.646 811.742C552.859 803.816 575.642 792.49 583.493 788.009L647.124 751.898L714.568 713.57C726.179 706.981 745.187 695.797 756.946 690.741Z"/><path fill="#8C969F" fill-opacity="0.41960785" transform="scale(0.5 0.5)" d="M756.985 670.037C760.232 669.62 758.813 669.261 761.433 670.946L761.501 672.917C760.372 675.023 759.821 676.008 757.645 677.228C740.607 686.779 723.387 696.264 706.389 705.86L628.803 750.495C603.346 764.819 577.321 778.601 552.358 793.783C550.922 794.152 550.847 793.93 549.247 793.737C547.652 791.205 548.022 792.619 548.647 789.245C551.492 785.096 567.378 777.283 572.576 774.347L620.705 747.032C666.16 721.179 710.528 694.2 756.985 670.037Z"/><path fill="#8C969F" fill-opacity="0.40000001" transform="scale(0.5 0.5)" d="M752.493 712.868C756.246 712.687 754.689 712.141 757.46 714.091L757.391 716.082C754.716 719.757 746.021 723.217 741.618 725.645C729.494 732.35 717.425 739.155 705.413 746.06C661.096 771.467 617.547 798.217 572.486 822.279C565.211 826.165 556.483 830.689 549.709 835.269L547.999 835.315C545.798 832.901 546.515 834.356 546.442 830.528C547.019 829.439 547.596 828.351 548.173 827.262C562.621 818.81 577.694 811.386 592.284 803.139C645.622 772.988 698.379 741.615 752.493 712.868Z"/><path fill="#8C969F" fill-opacity="0.43529412" transform="scale(0.5 0.5)" d="M681.088 772.723C683.02 773.571 682.684 773.566 684.351 775.016L684.201 776.877C680.629 780.573 658.7 792.715 653.035 796.099C619.254 816.281 585.956 835.405 551.201 853.884C550.012 853.849 549.095 853.54 547.908 853.266L547.317 851.232C551.356 844.216 664.317 783.857 681.088 772.723Z"/><path fill="#363433" transform="scale(0.5 0.5)" d="M1585.55 882.959C1607.79 862.286 1629.82 841.373 1651.62 820.223C1660.55 811.443 1687.88 783.298 1696.79 777.116C1703.43 778.017 1738.03 816.146 1740.79 823.369C1739.51 829.837 1604.81 958.779 1587.94 973.993C1573.18 959.683 1549.77 937.546 1536.58 922.29C1535.72 920.875 1531.61 916.692 1530.24 915.236C1513.81 898.837 1492.1 879.293 1479.92 860.235C1485.66 852.75 1515.13 822.13 1521.64 823.728C1537.06 827.515 1573.69 872.154 1585.55 882.959Z"/><path fill="#E48841" transform="scale(0.5 0.5)" d="M1696.77 785.653C1704.71 789.886 1727.34 815.416 1734.87 823.619C1716.94 842.819 1695.68 861.664 1676.64 880.064C1647.11 908.597 1617.79 938.263 1587.65 966.07L1525.91 902.18C1512.79 889.385 1499.55 874.936 1487 861.489C1498.1 849.982 1509.76 837.971 1521.77 827.458C1542.88 846.799 1564.87 871.581 1585.75 892.27C1600.68 879.184 1615.59 864.041 1629.92 850.143L1696.77 785.653Z"/><path fill="#363433" transform="scale(0.5 0.5)" d="M823.689 1403.76C831.744 1402.68 840.265 1403.35 848.424 1403.7C873.326 1405.54 903.893 1412.21 921.065 1431.91C926.433 1437.99 930.526 1445.09 933.1 1452.78C934.727 1461.59 934.336 1468.74 933.925 1477.64C931.077 1498.34 927.087 1510.91 908.109 1522.38C904.936 1522.47 901.096 1522.94 897.887 1523.25C890.674 1525.36 884.134 1528.25 875.982 1530.45C844.147 1539.06 819.817 1534.62 789.305 1523.69C789.018 1519.16 788.875 1517.6 787.779 1513.23L781.28 1511.29C778.49 1510.29 776.509 1507.72 773.567 1505.96C771.444 1504.44 767.207 1504.35 764.435 1503.96L763.764 1504.19L759.254 1504.31C746.779 1493.25 748.572 1460.56 755.294 1446.35C757.368 1444.63 758.591 1443.14 760.404 1441.16C758.139 1432.67 756.886 1441.21 754.221 1431.9L798.749 1404.13L804.566 1404.3L806.751 1407.56C808.624 1407.13 807.597 1407.48 809.759 1406.34L811.804 1406.86C817.106 1406.57 818.734 1405.65 823.689 1403.76Z"/><path fill="#D88749" transform="scale(0.5 0.5)" d="M788.008 1420.54C826.3 1408.28 860.655 1403.29 897.669 1422.24C952.718 1450.41 923.154 1498.39 875.493 1508.13C842.915 1514.79 809.932 1513.79 780.356 1496.37C757.436 1482.22 750.047 1465.42 763.087 1440.82C770.424 1432.36 778.413 1426.22 788.008 1420.54Z"/><path fill="#363433" transform="scale(0.5 0.5)" d="M841.783 1415.45C876.951 1414.63 941.433 1438.69 904.804 1485.06C891.401 1502.03 864.121 1505.3 843.449 1506.58C808.499 1506.65 776.743 1497.18 766.637 1460.11C777.016 1423.45 808.439 1417.2 841.783 1415.45Z"/><path fill="#FDFDFC" transform="scale(0.5 0.5)" d="M773.029 1464.58C795.556 1437.06 832.72 1431.67 866.183 1438.35C878.303 1441.23 900.068 1448.43 906.834 1459.38C917.181 1476.12 888.536 1489.72 878.029 1495.47L871.502 1497.02C867.014 1497.98 860.81 1499.14 856.504 1500.29C849.691 1501.37 837.818 1501.65 831.114 1500.36C805.821 1496.64 784.414 1489.77 773.029 1464.58Z"/><path fill="#8C969F" transform="scale(0.5 0.5)" d="M871.502 1497.02C860.829 1489.26 805.329 1460.8 802.536 1453.68L803.373 1452.01L805.39 1451.35C811.635 1453.62 818.011 1458.7 823.966 1462.27C840.326 1472.07 864.584 1482.2 878.029 1495.47L871.502 1497.02Z"/><path fill="#8C969F" transform="scale(0.5 0.5)" d="M831.114 1500.36C834.195 1500.26 838.001 1500.61 840.365 1499C839.016 1494.12 795.316 1474.14 787.603 1464.94L787.4 1463.2C794.629 1461.94 847.922 1494.36 856.504 1500.29C849.691 1501.37 837.818 1501.65 831.114 1500.36Z"/><path fill="#8C969F" transform="scale(0.5 0.5)" d="M819.481 1441.4C829.13 1443.73 878.332 1473.24 887.599 1480.26C888.972 1483.35 888.577 1482.29 887.517 1486.38C876.891 1482.02 830.694 1454.05 818.84 1445.81C817.985 1445.22 819.035 1442.99 819.481 1441.4Z"/><path fill="#8C969F" transform="scale(0.5 0.5)" d="M843.196 1437.98C857.369 1439.41 889.471 1461.68 902.092 1470.51C902.092 1470.51 903.32 1474.15 903.461 1474.57C901.216 1474.11 896.626 1472.64 893.564 1471.02C877.275 1462.4 859.327 1452.49 844.472 1441.58C844.047 1440.38 843.621 1439.18 843.196 1437.98Z"/><path fill="#D88749" transform="scale(0.5 0.5)" d="M841.212 1421.43C871.178 1422.1 892.307 1427.44 909.535 1453.6C886.601 1435.02 873.798 1431.06 844.093 1429.84C812.331 1429.87 798.397 1434.53 773.793 1454.4C793.005 1426.78 809.342 1423.84 841.212 1421.43Z"/><path fill="#D88749" transform="scale(0.5 0.5)" d="M929.032 1481.23C925.678 1498.33 920.203 1508.4 905.302 1518.49C902.865 1520.13 900.393 1521.72 897.887 1523.25C890.674 1525.36 884.134 1528.25 875.982 1530.45C844.147 1539.06 819.817 1534.62 789.305 1523.69C789.018 1519.16 788.875 1517.6 787.779 1513.23L787.511 1509.39C789.221 1508.38 789.727 1507.88 791.832 1508.74C828.602 1523.75 871.42 1521.52 906.16 1502.04C915.872 1496.59 921.764 1489.87 929.032 1481.23Z"/><path fill="#2F363D" transform="scale(0.5 0.5)" d="M798.749 1404.13L804.566 1404.3L806.751 1407.56C808.624 1407.13 807.597 1407.48 809.759 1406.34L811.804 1406.86C810.418 1407.86 809.439 1409.06 808.603 1409.71C802.38 1414.6 794.075 1414.92 788.008 1420.54C778.413 1426.22 770.424 1432.36 763.087 1440.82L760.404 1441.16C758.139 1432.67 756.886 1441.21 754.221 1431.9L798.749 1404.13Z"/><path fill="#D88749" transform="scale(0.5 0.5)" d="M755.507 1482.91C760.979 1488.3 767.3 1494.66 773.377 1499.3C771.027 1500.5 766.528 1502.63 764.435 1503.96L763.764 1504.19C758.442 1496.23 757.574 1491.99 755.507 1482.91Z"/><path fill="#363433" fill-opacity="0.92941177" transform="scale(0.5 0.5)" d="M714.132 1526.67C705.14 1520.09 694.241 1513.64 684.82 1507.77C654.564 1488.92 680.238 1479.2 698.026 1467.71C716.7 1455.64 735.898 1444.26 754.221 1431.9C756.886 1441.21 758.139 1432.67 760.404 1441.16C758.591 1443.14 757.368 1444.63 755.294 1446.35L755.86 1442.01L754.977 1441.17C743.785 1446.08 682.191 1484.99 674.539 1492.83C680.164 1498.59 713.34 1517.51 720.725 1520.05C726.714 1519.95 733.155 1513.86 738.81 1510.71L750.691 1513.07C754.154 1510.24 757.325 1508.24 759.254 1504.31L763.764 1504.19L764.435 1503.96C767.207 1504.35 771.444 1504.44 773.567 1505.96C768.475 1509.51 763.456 1513.16 758.514 1516.92C761.313 1520.09 763.489 1523.61 768.028 1523.85C775.595 1524.25 778.216 1522.65 781.425 1515.95C781.417 1514.3 781.48 1512.92 781.28 1511.29L787.779 1513.23C788.875 1517.6 789.018 1519.16 789.305 1523.69C819.817 1534.62 844.147 1539.06 875.982 1530.45C884.134 1528.25 890.674 1525.36 897.887 1523.25C901.096 1522.94 904.936 1522.47 908.109 1522.38C906.959 1523.14 905.796 1523.88 904.618 1524.6C861.445 1550.78 823.589 1539.16 780.065 1528.52C772.944 1532.79 764.837 1536.17 766.189 1545.64C772.479 1555.88 817.755 1578.64 829.669 1583.02L830.665 1582.59C848.477 1575.05 869.893 1557.49 886.719 1546.88C916.853 1527.88 947.476 1509.13 976.651 1488.74C976.864 1487.87 977.076 1487.01 977.289 1486.14L979.253 1485.62C981.026 1486.49 981.618 1486.7 983.509 1487.3C985.567 1483.66 984.164 1443.75 985.069 1435.47C987.451 1450.69 987.236 1474.78 987.212 1490.28C981.204 1496.02 940.823 1520.2 931.396 1526.19C901.692 1545.08 871.647 1564.93 841.6 1583.31C837.116 1586.05 832.773 1588.17 827.744 1589.75C810.975 1584.14 776.752 1561.74 760.194 1552.6C732.519 1566.97 707.811 1590.9 679.53 1603.97C664.856 1610.8 644.231 1585.95 650.251 1573.31C659.023 1554.9 696.517 1535.56 714.132 1526.67Z"/><path fill="#E48841" transform="scale(0.5 0.5)" d="M667.87 1563.65C682.831 1553.85 729.517 1521.35 742.903 1516.68C786.9 1536.39 738.699 1557.93 719.492 1570.63C709.201 1578.61 697.554 1585.81 686.586 1592.92C684.989 1586.97 683.974 1583.48 681.732 1577.68C676.659 1571.9 673.789 1568.46 667.87 1563.65Z"/><path fill="#D88749" transform="scale(0.5 0.5)" d="M689.015 1586.87C705.202 1577.44 702.199 1570.88 719.492 1570.63C709.201 1578.61 697.554 1585.81 686.586 1592.92C684.989 1586.97 683.974 1583.48 681.732 1577.68C685.19 1580.23 686.672 1583.23 689.015 1586.87Z"/><path fill="#E48841" transform="scale(0.5 0.5)" d="M659.794 1568.52C660.946 1568.91 662.085 1569.34 663.209 1569.8C676.685 1575.36 682.932 1586.08 676.718 1599.79C674.062 1598.82 671.475 1597.67 668.975 1596.35C656.974 1589.91 652.603 1580.49 659.794 1568.52Z"/><path fill="#363433" fill-opacity="0.90196079" transform="scale(0.5 0.5)" d="M909.148 445.103L913.022 447.847C913.023 453.44 912.622 501.802 913.786 503.021C916.795 485.01 913.474 466.951 914.75 449.975C919.666 460.104 918.045 506.843 918.077 520.678L918.37 624.554L918.585 808.473C918.419 829.11 918.471 849.784 917.949 870.426C917.363 893.639 909.716 897.486 891.378 908.434C853.149 931.259 814.208 952.799 775.669 975.059L539.995 1111.78L409.755 1186.16C396.261 1193.92 363.192 1215.48 351.334 1218.18C342.388 1214.94 336.942 1211.84 328.631 1208.26L333.962 1205.19C334.653 1198.56 334.34 1183.49 334.376 1176.29C335.716 1180.65 334.417 1185.89 338.897 1189.27C339.758 1189.92 340.263 1193.95 340.39 1194.96L340.905 1195.57C342.216 1211.63 350.282 1213.37 363.351 1206.13C492.913 1132.77 621.863 1058.33 750.187 982.831L835.354 933.602C847.667 926.584 860.432 919.909 872.696 912.758C884.321 905.98 908.347 893.774 910.469 879.424C912.409 866.308 911.949 850.19 911.978 836.733L912.114 772.685C912.183 684.301 910.786 594.533 911.613 506.37C863.192 531.337 823.062 555.243 777.043 583.589C776.427 578.27 778.784 581.719 775.879 575.875C782.096 571.9 788.664 567.923 795.151 564.421C834.002 543.45 872.044 518.36 911.21 498.184C912.544 482.851 912.138 469.996 910.974 454.821C910.669 450.857 910.125 449.005 909.148 445.103Z"/><path fill="#FDFDFC" fill-opacity="0.0078431377" transform="scale(0.5 0.5)" d="M933.925 1477.64C936.588 1472.45 936.772 1470.53 937.622 1464.75L937.893 1462.83L940.156 1462.15C947.628 1471.01 966.495 1482.9 977.289 1486.14C977.076 1487.01 976.864 1487.87 976.651 1488.74C947.476 1509.13 916.853 1527.88 886.719 1546.88C869.893 1557.49 848.477 1575.05 830.665 1582.59L829.669 1583.02C817.755 1578.64 772.479 1555.88 766.189 1545.64C764.837 1536.17 772.944 1532.79 780.065 1528.52C823.589 1539.16 861.445 1550.78 904.618 1524.6C905.796 1523.88 906.959 1523.14 908.109 1522.38C927.087 1510.91 931.077 1498.34 933.925 1477.64Z"/><path fill="#363433" fill-opacity="0.85882354" transform="scale(0.5 0.5)" d="M883.33 586.801C883.886 584.543 884.139 584.165 885.17 582.05L885.882 583.224C887.734 586.234 886.556 585.41 889.618 586.126C889.772 614.66 890.578 657.061 888.212 684.665C887.35 694.723 800.097 740.309 787.424 747.353L699.486 797.024C646.698 826.81 594.719 858.439 541.388 887.356C536.293 890.119 531.885 890.141 526.838 887.299C519.931 874.422 525.375 831.6 522.886 814.685C522.208 810.082 521.82 791.464 522.205 787.131L523.289 785.887C526.296 785.641 528.466 783.526 532.595 782.894C526.611 790.448 529.345 815.647 529.664 826.065C529.978 836.369 527.043 877.925 533.727 883.226C550.53 877.288 569.388 864.287 585.446 855.907C622.738 836.447 658.314 814.213 694.647 793.203L796.59 735.272C821.645 721.23 862.689 701.726 883.112 682.286L882.256 625.576C882.117 616.613 881.282 594.914 883.33 586.801Z"/><path fill="#363433" transform="scale(0.5 0.5)" d="M971.971 1430.23C973.308 1430.38 973.582 1430.16 974.964 1429.9C976.015 1427.84 976.846 1426.44 978.063 1424.48L983.292 1424.14C985.173 1428.57 985.259 1430.47 985.069 1435.47C984.164 1443.75 985.567 1483.66 983.509 1487.3C981.618 1486.7 981.026 1486.49 979.253 1485.62L977.289 1486.14C966.495 1482.9 947.628 1471.01 940.156 1462.15C939.294 1455.03 940.15 1454.51 943.858 1448.07C944.485 1447.77 948.564 1444.04 949.617 1443.24C957.538 1437.2 962.444 1433.45 971.971 1430.23Z"/><path fill="#E48841" transform="scale(0.5 0.5)" d="M976.628 1433.89C980.057 1441.03 980.76 1472.49 981.105 1481.65L962.529 1470.1C932.983 1452.91 958.408 1444.51 976.628 1433.89Z"/><path fill="#363433" fill-opacity="0.87843138" transform="scale(0.5 0.5)" d="M798.749 1404.13C810.047 1396.98 865.254 1360.39 873.94 1362.28C878.607 1363.29 883.143 1365.14 887.39 1367.31C909.935 1378.78 931.518 1393.45 953.282 1406.39C962.763 1412.03 975.113 1417.01 983.292 1424.14L978.063 1424.48C976.846 1426.44 976.015 1427.84 974.964 1429.9C973.582 1430.16 973.308 1430.38 971.971 1430.23C972.606 1428.18 972.597 1428.09 972.938 1426.01C968.211 1419.22 893.446 1379.75 881.034 1370.6C870.288 1362.68 840.119 1385.6 828.163 1393.42C824.503 1395.62 816.972 1399.47 815.034 1402.74C817.143 1405 820.549 1404 823.689 1403.76C818.734 1405.65 817.106 1406.57 811.804 1406.86L809.759 1406.34C807.597 1407.48 808.624 1407.13 806.751 1407.56L804.566 1404.3L798.749 1404.13Z"/><path fill="#FDFDFC" fill-opacity="0.015686275" transform="scale(0.5 0.5)" d="M1460.94 1171.57C1455.75 1165.8 1459.45 1147.27 1459.25 1139.53C1459.12 1134.7 1453.12 1134.98 1452.58 1127.83C1458.35 1117.74 1458.87 1126.56 1458.8 1113.21C1458.75 1105.56 1456.92 1081.03 1460.86 1076.59C1462.23 1087.52 1461.97 1106.57 1462.32 1118.4C1464.36 1121.93 1469.02 1128.04 1469.71 1130.98C1468.94 1133.1 1469.35 1132.41 1467.84 1134.15L1461.02 1141.53L1460.94 1171.57Z"/><path fill="#FDFDFC" fill-opacity="0.0078431377" transform="scale(0.5 0.5)" d="M773.567 1505.96C776.509 1507.72 778.49 1510.29 781.28 1511.29C781.48 1512.92 781.417 1514.3 781.425 1515.95C778.216 1522.65 775.595 1524.25 768.028 1523.85C763.489 1523.61 761.313 1520.09 758.514 1516.92C763.456 1513.16 768.475 1509.51 773.567 1505.96Z"/><path fill="#E48841" fill-opacity="0.96078432" transform="scale(0.5 0.5)" d="M1138.09 993.416C1143.93 993.455 1154.05 998.581 1157.88 1003.18C1159.82 1005.52 1158.8 1007.66 1158.32 1010.34C1153.7 1009.27 1144.98 1004.81 1141.46 1001.49C1137.8 998.031 1138.31 997.866 1138.09 993.416Z"/><path fill="#D88749" fill-opacity="0.95294118" transform="scale(0.5 0.5)" d="M748.398 1070.73C756.397 1070.51 769.475 1077.45 770.805 1086.21C765.231 1087.06 760.061 1083.85 755.41 1080.77C749.686 1076.99 749.401 1076.36 748.398 1070.73Z"/><path fill="#FDFDFC" fill-opacity="0.011764706" transform="scale(0.5 0.5)" d="M828.163 1393.42C833.218 1402.44 840.583 1396.61 848.424 1403.7C840.265 1403.35 831.744 1402.68 823.689 1403.76C820.549 1404 817.143 1405 815.034 1402.74C816.972 1399.47 824.503 1395.62 828.163 1393.42Z"/><path fill="#E48841" fill-opacity="0.96078432" transform="scale(0.5 0.5)" d="M694.041 1137.65C700.299 1137.83 709.256 1143.28 714.367 1147.08C716.812 1148.9 716.205 1150.62 716.175 1153.35C707.887 1155.07 695.855 1146.58 694.041 1137.65Z"/><path fill="#E48841" fill-opacity="0.97254902" transform="scale(0.5 0.5)" d="M725.725 1157.57C731.959 1157.85 742.615 1161.92 746.602 1167.01C747.57 1168.25 746.722 1170.2 746.428 1171.88C738.59 1172.53 726.656 1166.38 725.725 1157.57Z"/><path fill="#D88749" fill-opacity="0.94901961" transform="scale(0.5 0.5)" d="M673.407 1404.86C681.375 1405.45 693.129 1411.58 694.039 1420.4C686.22 1422.86 674.694 1413.47 673.407 1404.86Z"/><path fill="#D88749" fill-opacity="0.97647059" transform="scale(0.5 0.5)" d="M1034.19 1036.12C1037.6 1036.26 1038.15 1036.16 1039.88 1038.64C1038.61 1043.21 1028.83 1047.9 1024.48 1050.44C1021.65 1050.88 1023 1051.01 1020.42 1049.58C1017.4 1042.25 1028.45 1038.96 1034.19 1036.12Z"/><path fill="#E48841" fill-opacity="0.95294118" transform="scale(0.5 0.5)" d="M1261.35 1064.53C1268.25 1064.9 1281.54 1071.83 1279.16 1080.84C1274.49 1080.16 1265.73 1075.13 1262.75 1071.47C1260.24 1068.39 1260.98 1068.2 1261.35 1064.53Z"/><path fill="#D88749" fill-opacity="0.94901961" transform="scale(0.5 0.5)" d="M1170.42 1011.33C1174.21 1012.04 1184.8 1016.96 1187.3 1020.22C1189.47 1023.07 1188.69 1023.45 1188.13 1026.76C1178.46 1025.87 1169.78 1021.98 1170.42 1011.33Z"/><path fill="#E48841" fill-opacity="0.96078432" transform="scale(0.5 0.5)" d="M580.278 1299.91C583.305 1301.99 582.463 1300.65 583.355 1303.76C580.931 1309.57 573.95 1312.96 568.51 1316.29C565.637 1315.65 565.322 1315.04 564.068 1312.82C565.756 1307.5 575.057 1303.11 580.278 1299.91Z"/><path fill="#E48841" fill-opacity="0.95686275" transform="scale(0.5 0.5)" d="M1097.57 1000.15C1098.04 1000.31 1099.85 1001.47 1100.36 1001.78L1100.79 1004.05C1098.41 1008.81 1088.24 1013.34 1083.37 1015.86C1080.37 1014.13 1081.34 1015.32 1080.04 1012.44C1081.62 1007.52 1092.86 1002.62 1097.57 1000.15Z"/><path fill="#E48841" fill-opacity="0.95686275" transform="scale(0.5 0.5)" d="M634.251 1103.69C641.321 1103.57 647.712 1107.5 653.169 1111.84C655.794 1113.92 655.201 1115.44 655.178 1118.5C647.673 1118.24 635.245 1112.06 634.251 1103.69Z"/><path fill="#D88749" fill-opacity="0.95294118" transform="scale(0.5 0.5)" d="M554.324 1334.55C559.846 1335.61 567.441 1340.1 571.33 1344.27C573.592 1346.7 572.787 1347.62 572.247 1350.39C567.699 1349 556.929 1345.26 554.097 1341.3C552.223 1338.68 553.368 1337.42 554.324 1334.55Z"/><path fill="#E48841" fill-opacity="0.94509804" transform="scale(0.5 0.5)" d="M1200.2 1028.32C1204.25 1029.25 1214.32 1034.2 1216.97 1037.7C1219.2 1040.64 1218.34 1041.46 1217.84 1045.11C1213.09 1043.88 1203.97 1039.44 1200.95 1035.35C1198.96 1032.65 1199.74 1031.51 1200.2 1028.32Z"/><path fill="#E48841" fill-opacity="0.97254902" transform="scale(0.5 0.5)" d="M757.093 1172.69C763.52 1174.74 769.965 1177.51 774.684 1182.34C775.896 1186.04 775.844 1184.15 774.315 1188.17C768.545 1187.12 761.268 1183.48 757.024 1179.3C755.447 1175.29 755.681 1177.41 757.093 1172.69Z"/><path fill="#D88749" fill-opacity="0.97647059" transform="scale(0.5 0.5)" d="M1122.52 984.781C1126.78 985.511 1126.34 984.762 1129.03 987.204L1128.51 989.479C1124.68 993.67 1120.46 995.644 1115.53 998.501C1112.16 998.672 1111.39 998.691 1109.55 996.354C1110.28 991.558 1118.56 987.239 1122.52 984.781Z"/><path fill="#E48841" fill-opacity="0.96078432" transform="scale(0.5 0.5)" d="M585.248 1352.62C590.919 1354.76 597.777 1358.19 601.844 1362.72C602.757 1366.47 602.863 1364.58 600.804 1368.5C594.197 1365.76 587.963 1364.09 583.76 1358.49C583.31 1354.49 582.992 1356.41 585.248 1352.62Z"/><path fill="#E48841" fill-opacity="0.94509804" transform="scale(0.5 0.5)" d="M912.79 1105.82C916.143 1106.59 916.406 1107.1 916.856 1110.03C913.949 1115.32 906.758 1118.58 901.416 1121.34C898.006 1120.42 899.227 1121.37 897.347 1118.84C898.74 1113.65 907.802 1109.07 912.79 1105.82Z"/><path fill="#D88749" fill-opacity="0.94901961" transform="scale(0.5 0.5)" d="M608.12 1283.84C611.011 1283.89 612.274 1284.19 613.844 1286.4C611.979 1291.69 604.571 1294.93 599.485 1297.82C596.76 1297.82 595.747 1297.41 594.105 1295.49C595.528 1290.18 603.123 1286.79 608.12 1283.84Z"/><path fill="#D88749" fill-opacity="0.92941177" transform="scale(0.5 0.5)" d="M1353.07 1116.58C1360.63 1118.65 1372.59 1123.13 1370.89 1132.45C1366.09 1131.87 1354.43 1125.65 1352.16 1121C1351.56 1119.75 1352.59 1117.97 1353.07 1116.58Z"/><path fill="#D88749" fill-opacity="0.93725491" transform="scale(0.5 0.5)" d="M1291.39 1081.48C1296.63 1082.99 1306.85 1087.71 1309.38 1092.92C1310.04 1094.26 1308.93 1095.64 1308.3 1097.09C1302.81 1096.31 1294.85 1091.89 1290.96 1087.47C1289.91 1083.8 1290.06 1085.73 1291.39 1081.48Z"/><path fill="#E48841" fill-opacity="0.97254902" transform="scale(0.5 0.5)" d="M670.52 1248.05L673.224 1249.8C675.836 1256.4 663.582 1260.85 658.374 1263.69C655.494 1260.91 656.234 1262.51 655.53 1259.04C657.852 1253.77 665.3 1250.78 670.52 1248.05Z"/><path fill="#D88749" fill-opacity="0.94509804" transform="scale(0.5 0.5)" d="M665.213 1120.57C670.306 1121.15 679.707 1126.34 683.762 1129.72C685.967 1131.56 685.338 1133 685.071 1135.23C679.959 1136.42 672.437 1132.08 668.643 1128.71C665.224 1125.67 665.307 1124.95 665.213 1120.57Z"/><path fill="#E48841" fill-opacity="0.92941177" transform="scale(0.5 0.5)" d="M781.635 1088.31C785.816 1089.46 794.984 1093.9 797.944 1097.2C800.495 1100.05 799.709 1100.35 799.293 1103.79C793.893 1103.63 787.386 1100.63 783.665 1096.78C780.652 1093.67 781.436 1092.26 781.635 1088.31Z"/><path fill="#E48841" fill-opacity="0.93725491" transform="scale(0.5 0.5)" d="M1475.11 1316.53C1479.12 1317.26 1477.67 1316.29 1480.04 1318.76L1479.5 1320.8C1474.44 1325.96 1468.67 1328.7 1462.28 1331.9C1460.01 1332.23 1461.16 1332.23 1458.81 1331.26L1458.87 1328.96C1462.14 1324.82 1470.39 1319.74 1475.11 1316.53Z"/><path fill="#D88749" fill-opacity="0.93333334" transform="scale(0.5 0.5)" d="M649.418 1062.42C654.235 1063.31 666.265 1069.36 669.053 1073.87C669.799 1075.08 668.752 1076.99 668.313 1078.43C663.398 1077.71 651.704 1071.55 648.866 1067.04C648.113 1065.85 649.051 1063.87 649.418 1062.42Z"/><path fill="#E48841" fill-opacity="0.93725491" transform="scale(0.5 0.5)" d="M1380.94 1133.56C1388.89 1134.53 1399.64 1139.69 1400.79 1148.43C1393.76 1148.8 1380.29 1142.45 1380.94 1133.56Z"/><path fill="#E48841" fill-opacity="0.92941177" transform="scale(0.5 0.5)" d="M615.049 1370.65C618.837 1371.47 629.796 1376.47 632.228 1380.23C633.912 1382.84 632.813 1383.87 631.827 1386.54C626.817 1385.14 616.578 1380 614.408 1375.09C613.7 1373.48 614.404 1372.83 615.049 1370.65Z"/><path fill="#D88749" fill-opacity="0.92941177" transform="scale(0.5 0.5)" d="M604.605 1087.02C609.647 1087.58 620.602 1093.1 624.325 1096.78C626.44 1098.86 625.73 1099.13 625.794 1102.43C618.094 1101.64 605.209 1095.7 604.605 1087.02Z"/><path fill="#E48841" fill-opacity="0.91764706" transform="scale(0.5 0.5)" d="M738.27 1114.52C743.813 1114.91 754.357 1120.67 757.965 1124.95C759.014 1126.2 758.375 1127.93 758.217 1129.62C752.785 1130.01 746.572 1125.79 742.366 1122.52C738.37 1119.41 738.555 1118.59 738.27 1114.52Z"/><path fill="#D88749" fill-opacity="0.93333334" transform="scale(0.5 0.5)" d="M829.703 1167.63C837.088 1167.73 850.3 1173.23 850.513 1181.7C842.458 1181.69 831.654 1176.05 829.703 1167.63Z"/><path fill="#E48841" fill-opacity="0.92941177" transform="scale(0.5 0.5)" d="M841.325 1124.46C846.219 1125.29 853.965 1128.33 856.977 1132.65C858.816 1135.29 857.83 1136.66 857.092 1139.76C848.925 1139.03 841.541 1132.96 841.325 1124.46Z"/><path fill="#E48841" fill-opacity="0.95294118" transform="scale(0.5 0.5)" d="M644.444 1387.13C649.931 1388.42 657.807 1392.89 661.369 1397.61C661.878 1401.37 662.26 1399.69 660.224 1402.85C654.965 1401.02 647.721 1396.53 643.791 1392.45C642.725 1389.03 642.691 1390.75 644.444 1387.13Z"/><path fill="#D88749" fill-opacity="0.94509804" transform="scale(0.5 0.5)" d="M690.511 1036.61C695.672 1036.93 705.662 1041.95 708.916 1045.99C709.984 1047.32 709.368 1048.79 709.211 1050.57C702.145 1051.43 689.864 1045.04 690.511 1036.61Z"/><path fill="#D88749" fill-opacity="0.94901961" transform="scale(0.5 0.5)" d="M1066.34 1018.55C1068.7 1018.82 1067.83 1018.66 1070.05 1019.95L1070.36 1021.71C1068.18 1026.47 1058.12 1030.62 1053.18 1033.1C1050.85 1032.57 1051.02 1032.61 1049.37 1030.86L1049.79 1028.89C1053.91 1024.91 1061.08 1021.43 1066.34 1018.55Z"/><path fill="#D88749" fill-opacity="0.93333334" transform="scale(0.5 0.5)" d="M1232.77 1047.01C1238.02 1048.65 1244.68 1053.39 1248.26 1057.7C1249.09 1061.49 1249.29 1059.68 1247.39 1063.3C1241.69 1060.73 1231.4 1056.13 1230.64 1049.51L1232.77 1047.01Z"/><path fill="#E48841" fill-opacity="0.96078432" transform="scale(0.5 0.5)" d="M1444.32 1334.15C1446.65 1335.34 1446.49 1335.27 1448.17 1337.3L1447.66 1339.45C1444.24 1343.08 1438.14 1345.66 1433.51 1348.04C1430.77 1347.89 1431.82 1348.12 1429.3 1346.71L1428.94 1344.85C1431.3 1340.14 1439.52 1336.54 1444.32 1334.15Z"/><path fill="#E48841" fill-opacity="0.94509804" transform="scale(0.5 0.5)" d="M801.053 1149.63C808.362 1152.22 821.239 1155.63 819.261 1164.82C811.507 1162.85 799.741 1159.28 801.053 1149.63Z"/><path fill="#D88749" fill-opacity="0.93725491" transform="scale(0.5 0.5)" d="M709.235 1096.51C714.503 1097.6 722.983 1102.44 727.08 1106.41C728.053 1110.04 728.152 1108.21 726.074 1112.01C718.805 1109.56 707.444 1105.24 709.235 1096.51Z"/><path fill="#E48841" fill-opacity="0.9254902" transform="scale(0.5 0.5)" d="M720.045 1052.69C724.496 1053.89 735.919 1059.81 738.337 1063.96C739.27 1065.57 738.546 1066.12 737.932 1068.56C732.793 1067.6 723.912 1062.3 719.955 1058.42C718.737 1054.91 718.927 1056.75 720.045 1052.69Z"/><path fill="#E48841" fill-opacity="0.96078432" transform="scale(0.5 0.5)" d="M732.77 1212.77L734.555 1213.9C737.686 1220.2 725.502 1224.6 720.561 1227.31C718.171 1226.16 718.363 1226.19 716.943 1223.92L717.454 1221.81C721.503 1217.34 727.231 1215.16 732.77 1212.77Z"/><path fill="#D88749" fill-opacity="0.94117647" transform="scale(0.5 0.5)" d="M971.449 1072.02C974.342 1071.8 975.624 1071.95 977.686 1073.74L977.229 1075.84C973.479 1080.2 970.536 1081.34 965.521 1083.95C962.69 1085.43 962.914 1085.38 959.72 1085.3L959.496 1082.79C962.248 1076.41 965.597 1075.12 971.449 1072.02Z"/><path fill="#D88749" fill-opacity="0.94901961" transform="scale(0.5 0.5)" d="M761.515 1197.05C764.014 1197.49 763.909 1197.37 765.998 1198.76L765.57 1200.77C761.769 1204.56 755.444 1207.42 750.55 1210.04C747.707 1209.37 748.714 1209.81 746.405 1207.92L746.604 1205.77C750.657 1201.07 755.514 1198.44 761.515 1197.05Z"/><path fill="#E48841" fill-opacity="0.9254902" transform="scale(0.5 0.5)" d="M861.45 1185.67C868.838 1185.61 878.482 1190.86 880.257 1198.51C875.699 1199.84 870.587 1197.76 866.707 1195.08C862.26 1192.01 862.277 1190.62 861.45 1185.67Z"/><path fill="#E48841" fill-opacity="0.94509804" transform="scale(0.5 0.5)" d="M679.036 1079.45C685.295 1079.79 693.597 1084.32 697.377 1089.44C698.423 1090.86 697.657 1092.11 697.325 1093.96C693.044 1093.57 684.499 1089.26 681.373 1086.25C678.283 1083.27 679.076 1083.48 679.036 1079.45Z"/><path fill="#E48841" fill-opacity="0.90980393" transform="scale(0.5 0.5)" d="M771.232 1132.51C776.189 1133.16 786.314 1138.09 788.901 1142.65C789.707 1144.07 788.633 1145.79 788.107 1147.48C784.182 1146.68 774.831 1142.02 772.221 1138.8C769.902 1135.94 770.65 1135.6 771.232 1132.51Z"/><path fill="#D88749" fill-opacity="0.93725491" transform="scale(0.5 0.5)" d="M880.923 1124.69C884.923 1125.22 884.246 1124.52 886.83 1126.74L886.206 1128.99C882.265 1132.94 878.337 1134.7 873.45 1137.39C871.489 1137.68 870.9 1137.33 868.825 1136.99L868.206 1135.64C869.706 1130.43 876.173 1127.5 880.923 1124.69Z"/><path fill="#E48841" fill-opacity="0.96078432" transform="scale(0.5 0.5)" d="M922.112 1221.55C931.33 1223.46 940.34 1224.6 940.132 1235.62C932.379 1234.19 923.029 1230.13 922.112 1221.55Z"/><path fill="#E48841" fill-opacity="0.95294118" transform="scale(0.5 0.5)" d="M705.734 1423.09C713.143 1424.39 721.829 1427.84 719.657 1436.57C714.473 1435.89 706.747 1432.7 703.941 1427.95C703.917 1424.53 703.49 1426.14 705.734 1423.09Z"/><path fill="#E48841" fill-opacity="0.93725491" transform="scale(0.5 0.5)" d="M942.294 1090.01C945.057 1089.55 943.964 1089.56 946.783 1090.42C947.759 1096.27 937.822 1100.46 933.316 1102.52C931.904 1102.53 930.827 1102.13 929.392 1101.78C926.449 1096.74 938.452 1092.01 942.294 1090.01Z"/><path fill="#E48841" fill-opacity="0.93333334" transform="scale(0.5 0.5)" d="M701.483 1230.14C703.556 1231.51 702.99 1231.15 704.653 1233.13L704.43 1235.15C701.462 1238.8 693.727 1242.57 689.184 1245.21C688.42 1244.69 687.475 1243.62 686.78 1242.91L687.087 1240.73C691.004 1235.66 695.857 1233.18 701.483 1230.14Z"/><path fill="#E48841" fill-opacity="0.9137255" transform="scale(0.5 0.5)" d="M1414.77 1351.8C1416.37 1352.71 1416.41 1352.9 1417.8 1354.14L1417.66 1356.28C1415.05 1359.09 1406.82 1363.39 1402.59 1366.15C1400.29 1365.01 1400.46 1365.09 1399.1 1362.9L1399.72 1360.76C1403.84 1356.77 1409.54 1354.43 1414.77 1351.8Z"/><path fill="#FDFDFC" fill-opacity="0.019607844" transform="scale(0.5 0.5)" d="M933.1 1452.78C938.346 1450.7 937.727 1448.93 943.858 1448.07C940.15 1454.51 939.294 1455.03 940.156 1462.15L937.893 1462.83L937.622 1464.75C936.772 1470.53 936.588 1472.45 933.925 1477.64C934.336 1468.74 934.727 1461.59 933.1 1452.78Z"/><path fill="#D88749" fill-opacity="0.92941177" transform="scale(0.5 0.5)" d="M1003.24 1053.87C1006.11 1053.75 1006.71 1053.79 1008.26 1055.67C1006.64 1060.49 998.935 1064.28 994.289 1067.19C991.158 1067.8 992.299 1068.23 990.296 1067C989.778 1060.82 998.452 1056.54 1003.24 1053.87Z"/><path fill="#E48841" fill-opacity="0.97254902" transform="scale(0.5 0.5)" d="M549.159 1318.73C550.113 1319.08 551.243 1319.9 552.159 1320.47C554.24 1326.51 546.039 1329.57 541.517 1331.84C538.485 1331.74 538.391 1331.43 536.999 1329.4C538.7 1323.77 544.054 1321.57 549.159 1318.73Z"/><path fill="#363433" transform="scale(0.5 0.5)" d="M913.022 447.847L914.75 449.975C913.474 466.951 916.795 485.01 913.786 503.021C912.622 501.802 913.023 453.44 913.022 447.847Z"/><path fill="#E48841" fill-opacity="0.86666667" transform="scale(0.5 0.5)" d="M1503.79 1300.62C1505.19 1301.42 1505.5 1301.77 1506.76 1302.8L1506.33 1304.68C1502.87 1308.36 1496.85 1310.88 1492.17 1313.27C1491.13 1312.97 1490.49 1312.41 1489.51 1311.79L1489.66 1309.76C1493.07 1306.21 1499.33 1303.15 1503.79 1300.62Z"/><defs><linearGradient id="gradient_0" gradientUnits="userSpaceOnUse" x1="1525.4448" y1="916.7486" x2="1528.9836" y2="923.00928"><stop offset="0" stop-color="#FEFEFD" stop-opacity="0"/><stop offset="1" stop-color="#FEFEFD" stop-opacity="0.050980393"/></linearGradient></defs><path fill="url(#gradient_0)" transform="scale(0.5 0.5)" d="M1536.58 922.29C1535.89 922.52 1532.48 924.4 1531.53 924.869C1527.33 923.923 1525.51 923.746 1524.69 919.578C1526.65 916.092 1525.88 917.225 1530.24 915.236C1531.61 916.692 1535.72 920.875 1536.58 922.29Z"/></svg>