<?xml version="1.0" encoding="utf-8" ?><svg xmlns="http://www.w3.org/2000/svg" xmlns:xlink="http://www.w3.org/1999/xlink" width="1024" height="1024" viewBox="0 0 1024 1024"><path fill="#423A32" transform="scale(0.5 0.5)" d="M927.731 598.936C943.268 600.767 939.777 619.002 939.404 631.457C938.618 657.686 943.469 693.975 936.116 718.929C923.429 733.002 844.042 772.89 822.954 784.823L558.215 934.435L437.486 1002.33C424.526 1009.65 392.945 1030.3 380.3 1033.48C376.155 1033.21 369.091 1030.3 368.775 1026.22C367.688 1012.18 363.966 916.088 372.473 910.783C425.582 877.655 481.956 848.534 536.471 818.034L748.32 698.76C789.788 675.798 831.261 652.842 872.06 628.712C889.582 618.349 909.283 607.535 927.731 598.936Z"/><path fill="#E08640" transform="scale(0.5 0.5)" d="M424.862 1002.75C414.726 1009.92 400.106 1016.38 389.514 1023.34C385.212 1026.17 379.474 1026.86 375.063 1023.55C374.072 1020.97 373.461 1018.65 373.151 1015.89C371.914 1004.87 372.985 992.85 372.975 981.697C372.958 965.11 371.56 947.145 373.469 930.731C373.964 926.468 374.7 920.197 377.624 916.894C386.81 906.516 516.472 835.967 538.786 823.372C660.881 754.456 782.432 684.208 905.352 616.796C910.969 613.716 922.67 605.722 928.853 605.748C930.331 605.755 931.089 606.968 931.841 608.112C933.454 610.569 933.704 615.164 933.885 617.992C934.473 627.166 933.501 636.63 933.643 645.874C933.917 663.786 935.401 682.529 934.133 700.348C933.884 703.851 933.336 707.373 932.231 710.716C930.975 714.519 929.092 717.312 926.037 719.909C919.012 725.883 909.996 729.449 901.993 733.952C889.329 741.077 877.142 748.918 864.064 755.294C840.818 769.942 815.657 782.883 791.62 796.389L658.615 871.428L510.385 954.958C483.128 970.346 452.221 988.812 424.862 1002.75Z"/><path fill="#D48E57" transform="scale(0.5 0.5)" d="M424.862 1002.75C414.726 1009.92 400.106 1016.38 389.514 1023.34C385.212 1026.17 379.474 1026.86 375.063 1023.55C374.072 1020.97 373.461 1018.65 373.151 1015.89C371.914 1004.87 372.985 992.85 372.975 981.697C372.958 965.11 371.56 947.145 373.469 930.731C373.964 926.468 374.7 920.197 377.624 916.894C386.81 906.516 516.472 835.967 538.786 823.372C660.881 754.456 782.432 684.208 905.352 616.796C910.969 613.716 922.67 605.722 928.853 605.748C930.331 605.755 931.089 606.968 931.841 608.112C933.454 610.569 933.704 615.164 933.885 617.992C934.473 627.166 933.501 636.63 933.643 645.874C933.917 663.786 935.401 682.529 934.133 700.348C933.884 703.851 933.336 707.373 932.231 710.716C930.975 714.519 929.092 717.312 926.037 719.909C919.012 725.883 909.996 729.449 901.993 733.952C889.329 741.077 877.142 748.918 864.064 755.294C864.421 754.756 864.764 754.208 865.135 753.679C870.226 746.411 881.404 741.657 889.131 737.631C901.117 731.385 917.197 724.582 925.015 712.992C934.876 698.374 931.114 633.202 929.737 613.731C903.113 619.036 889.796 628.569 867.973 643.938C861.831 648.264 850.384 651.663 843.636 656.044C786.36 689.486 727.655 720.539 670.816 754.676C653.466 765.096 632.684 773.044 615.339 783.578C601.334 792.083 588.491 800.79 574.074 808.859L465.592 869.731C445.093 881.188 391.49 907.307 378.304 922.182C373.676 941.174 372.69 1000.58 377.386 1019.57C384.695 1026.79 411.514 1003.83 424.862 1002.75Z"/><path fill="#343B42" transform="scale(0.5 0.5)" d="M525.564 976.01C533.475 977.352 533.935 978.51 538.404 985.083C537.269 1055.15 538.397 1125.55 537.505 1195.62C537.364 1206.72 527.175 1214.98 518.41 1220.3C492.723 1235.91 465.792 1249.73 440.066 1265.33C429.381 1271.54 390.233 1295.16 381.742 1296.6C376.354 1296.99 371.085 1296.3 369.632 1290.48C365.714 1274.79 367.55 1251.53 367.649 1235.54L367.741 1168.6C367.942 1139.29 368.107 1109.97 368.314 1080.68C368.42 1065.71 374.638 1059.45 386.821 1051.73C407.565 1038.59 429.952 1025.09 451.749 1013.73C473.592 1002.34 502.637 983.221 525.564 976.01Z"/><path fill="#59626E" transform="scale(0.5 0.5)" d="M524.579 981.981C531.288 982.736 533.027 986.966 532.702 993.567C532.083 1006.11 531.883 1017.92 532.018 1030.46L532.956 1126.85C533.055 1141 536.329 1198.88 525.905 1207.34C512.886 1217.9 486.632 1231.39 471.139 1240.14L382.967 1290.52C381.173 1290.32 377.372 1289.55 376.259 1288.15C368.576 1278.49 375.705 1095.48 376.053 1068.01C388.723 1058.08 413.538 1043.97 427.851 1035.62C459.623 1016.91 491.877 999.02 524.579 981.981Z"/><path fill="#423A32" transform="scale(0.5 0.5)" d="M407.483 1186.72C434.564 1189.04 419.896 1212.84 405.776 1222.8C379.651 1221.33 396.053 1195.99 407.483 1186.72Z"/><path fill="#423A32" transform="scale(0.5 0.5)" d="M407.908 1083.99C433.494 1086.86 419.246 1109.27 406.582 1119.31C379.91 1118.76 393.719 1093.46 407.908 1083.99Z"/><path fill="#E08640" transform="scale(0.5 0.5)" d="M410.227 1089.68C412.48 1090.72 411.702 1090.13 413.485 1091.84C415.25 1093.53 416.075 1095.82 415.832 1098.31C415.139 1105.41 409.006 1110.27 403.73 1114.16C389.02 1108.38 403.349 1094.9 410.227 1089.68Z"/><path fill="#423A32" transform="scale(0.5 0.5)" d="M407.128 1135.84C434.356 1137.57 419.568 1160.21 406.603 1170.46C379.456 1169.27 394.963 1145.94 407.128 1135.84Z"/><path fill="#D48E57" transform="scale(0.5 0.5)" d="M408.936 1141.83C413.776 1142.6 411.826 1141.59 415.285 1144.34C419.245 1152.17 410.817 1160.1 405.179 1164.34C402.147 1164.19 402.333 1164.11 399.631 1162.63C394.543 1154.62 403.109 1146.81 408.936 1141.83Z"/><path fill="#F4F4F2" transform="scale(0.5 0.5)" d="M510.644 1033.91C511.125 1034.12 512.225 1035.08 512.697 1035.46L512.572 1037.46C505.793 1045.94 448.831 1075.81 436.331 1082.62C433.96 1080.62 434.722 1081.82 433.84 1078.96C436.849 1073.38 499.508 1040.06 510.644 1033.91Z"/><path fill="#F4F4F2" transform="scale(0.5 0.5)" d="M510.387 1135.86C512.462 1136.39 511.565 1135.82 512.899 1137.84C510.554 1145.12 447.63 1178.42 436.331 1184.66C433.155 1183.09 434.063 1184.3 432.901 1181.48C436.289 1176.18 500.243 1141.55 510.387 1135.86Z"/><path fill="#F4F4F2" transform="scale(0.5 0.5)" d="M510.886 1084.86C513.466 1086.46 512.575 1085.4 513.777 1088.05C508.292 1094.24 448.067 1127.33 436.046 1134.16C434.091 1133.09 434 1132.35 433.894 1130.53C439.805 1122.58 499.31 1091.25 510.886 1084.86Z"/><path fill="#F4F4F2" transform="scale(0.5 0.5)" d="M481.806 1168.88L483.484 1170.34L483.397 1172.51C477.594 1180.32 445.047 1196.22 435.366 1201.3C434.087 1199.62 434.487 1200.19 433.813 1198.09C438.568 1190.77 471.727 1174.28 481.806 1168.88Z"/><path fill="#F4F4F2" transform="scale(0.5 0.5)" d="M482.007 1066.84L484.158 1067.47L484.396 1069.57C479.144 1077.24 446.155 1093.57 436.798 1098.54L434.799 1097.62L434.554 1095.38C438.863 1088.71 472.997 1071.63 482.007 1066.84Z"/><path fill="#F4F4F2" transform="scale(0.5 0.5)" d="M481.668 1117.94C482.225 1118.08 483.239 1118.71 483.803 1119.02L483.836 1121.1C478.697 1128.44 445.325 1144.8 436.287 1149.55L434.621 1148.75L434.236 1146.71C438.667 1139.7 472 1123.11 481.668 1117.94Z"/><path fill="#59626E" transform="scale(0.5 0.5)" d="M471.867 816.633C476.866 818.816 475.119 832.127 474.964 837.01C469.42 841.479 451.268 851.145 444.111 855.31C420.736 868.913 396.726 881.567 373.718 895.871C367.432 891.815 370.201 880.245 370.797 873.5C405.137 855.275 438.433 833.98 471.867 816.633Z"/><path fill="#A0A6A9" fill-opacity="0.25490198" transform="scale(0.5 0.5)" d="M797.48 641.792L798.834 642.212C800.643 644.718 800.322 643.366 799.869 646.391C793.678 655.632 727.138 689.439 713.502 696.007L711.119 696.354L709.735 695.298L709.772 693.367C718.683 682.012 781.432 654.24 797.48 641.792Z"/><path fill="#A0A6A9" fill-opacity="0.24313726" transform="scale(0.5 0.5)" d="M692.988 699.698C696.416 701.542 696.529 702.591 696.089 706.054C689.908 713.826 657.858 729.892 647.452 735.1L644.959 734.705C643.017 732.269 643.38 733.602 643.695 730.617C648.574 724.075 683.501 705.556 692.988 699.698Z"/><path fill="#A0A6A9" fill-opacity="0.25098041" transform="scale(0.5 0.5)" d="M866.073 602.558L867.7 603.19C870.018 606.114 869.497 604.511 869.477 608.111C864.6 615.119 828.788 633.128 819.553 637.946L817.699 637.48C815.611 634.828 816.127 636.332 816.394 632.725C821.45 626.269 856.619 607.923 866.073 602.558Z"/><path fill="#A0A6A9" fill-opacity="0.27843139" transform="scale(0.5 0.5)" d="M933.408 564.106L936.037 565.405L936.604 567.955C933.345 576.626 898.585 594.238 889.081 599.205C887.465 599.433 887.037 599.222 885.37 599.023L884.443 597.283C886.617 590.536 924.537 569.467 933.408 564.106Z"/><path fill="#59626E" transform="scale(0.5 0.5)" d="M980.257 835.267C989.089 830.988 1005.63 820.658 1014.68 815.435C1040.33 800.715 1065.89 785.848 1091.37 770.833C1104.31 763.284 1124.84 750.699 1139.32 745.717C1144.95 743.781 1156.21 751.594 1161.16 755.185C1164.81 757.607 1167.54 759.217 1171.39 761.314C1172.38 780.225 1171.94 802.244 1171.99 821.49L1172.17 925.702C1172.12 946.575 1172.21 967.449 1172.44 988.321C1173.34 1032.98 1181.72 1048.95 1135.18 1070.58C1125.28 1075.19 1113.7 1083.81 1103.19 1088.25L1099.51 1087.63C1092.32 1092.78 1096.11 1093.08 1085.72 1092.74C1084.41 1092.46 1078.83 1090.28 1077.26 1089.7C1075.72 1085.27 1075.37 1084.79 1072.75 1080.81C1068.67 1079.35 1063.88 1077.03 1059.84 1077.81C1055.44 1082.9 1062.59 1096.02 1064.36 1102.7C1055.43 1110.38 1026.34 1126.13 1014.72 1132.78L918.527 1187.5C911.451 1191.49 887.318 1204.33 883.599 1209.1C882.692 1211.27 883.129 1210.5 881.391 1212.22C876.192 1213.28 869.945 1210.09 867.59 1205.56L868.726 1204.07C869.388 1195.61 869.076 1179.33 868.674 1170.99C868.154 1180.9 868.272 1193.14 868.098 1203.23C863.342 1200.35 859.615 1197.61 855.155 1194.35C851.11 1168.05 853.851 1130.35 853.61 1103.71L853.327 999.047C853.211 973.608 851.177 942.919 855.641 918.234C857.135 909.974 896.285 889.216 904.871 884.321L973.526 845.393L966.67 844.504C974.148 840.257 972.969 844.154 980.257 835.267Z"/><path fill="#E08640" transform="scale(0.5 0.5)" d="M980.257 835.267C989.089 830.988 1005.63 820.658 1014.68 815.435C1040.33 800.715 1065.89 785.848 1091.37 770.833C1104.31 763.284 1124.84 750.699 1139.32 745.717C1144.95 743.781 1156.21 751.594 1161.16 755.185C1160.61 759.315 1161.01 758.755 1163.69 763.112C1147.68 769.892 1127.97 781.886 1112.41 790.739L1035.82 834.37L938.786 889.508C920.333 900.005 901.483 910.446 883.448 921.642C879.419 924.143 876.603 928.369 874.038 932.336C872.865 992.34 873.849 1057.09 873.84 1117.5C873.833 1131.93 873.95 1146.37 874.188 1160.8C874.331 1169.47 874.991 1181.52 874.008 1189.73C872.515 1196.01 871.984 1198.24 868.726 1204.07C869.388 1195.61 869.076 1179.33 868.674 1170.99C868.154 1180.9 868.272 1193.14 868.098 1203.23C863.342 1200.35 859.615 1197.61 855.155 1194.35C851.11 1168.05 853.851 1130.35 853.61 1103.71L853.327 999.047C853.211 973.608 851.177 942.919 855.641 918.234C857.135 909.974 896.285 889.216 904.871 884.321L973.526 845.393L966.67 844.504C974.148 840.257 972.969 844.154 980.257 835.267Z"/><path fill="#423A32" transform="scale(0.5 0.5)" d="M980.257 835.267C989.089 830.988 1005.63 820.658 1014.68 815.435C1040.33 800.715 1065.89 785.848 1091.37 770.833C1104.31 763.284 1124.84 750.699 1139.32 745.717C1144.95 743.781 1156.21 751.594 1161.16 755.185C1160.61 759.315 1161.01 758.755 1163.69 763.112C1147.68 769.892 1127.97 781.886 1112.41 790.739L1035.82 834.37L938.786 889.508C920.333 900.005 901.483 910.446 883.448 921.642C879.419 924.143 876.603 928.369 874.038 932.336C872.865 992.34 873.849 1057.09 873.84 1117.5C873.833 1131.93 873.95 1146.37 874.188 1160.8C874.331 1169.47 874.991 1181.52 874.008 1189.73C872.515 1196.01 871.984 1198.24 868.726 1204.07C869.388 1195.61 869.076 1179.33 868.674 1170.99L867.916 1004.78C867.824 982.282 866.73 952.024 869.184 929.728C870.057 921.8 884.062 913.451 890.779 909.318C909.326 900.105 931.021 887.043 949.271 876.893C965.767 867.717 988.766 855.219 1003.96 844.629C1022.53 835.708 1042.75 823.274 1060.97 812.911L1155.76 758.961C1150.97 756.049 1146.07 753.507 1141.13 750.866C1127.45 756.267 1094.53 776.445 1080 784.803L973.526 845.393L966.67 844.504C974.148 840.257 972.969 844.154 980.257 835.267Z"/><path fill="#D48E57" transform="scale(0.5 0.5)" d="M890.779 909.318C897.36 900.705 992.553 845.528 1003.96 844.629C988.766 855.219 965.767 867.717 949.271 876.893C931.021 887.043 909.326 900.105 890.779 909.318Z"/><path fill="#343B42" transform="scale(0.5 0.5)" d="M1163.69 763.112C1161.01 758.755 1160.61 759.315 1161.16 755.185C1164.81 757.607 1167.54 759.217 1171.39 761.314C1172.38 780.225 1171.94 802.244 1171.99 821.49L1172.17 925.702C1172.12 946.575 1172.21 967.449 1172.44 988.321C1173.34 1032.98 1181.72 1048.95 1135.18 1070.58C1125.28 1075.19 1113.7 1083.81 1103.19 1088.25L1099.51 1087.63C1092.32 1092.78 1096.11 1093.08 1085.72 1092.74C1084.41 1092.46 1078.83 1090.28 1077.26 1089.7C1075.72 1085.27 1075.37 1084.79 1072.75 1080.81C1078.24 1082.45 1085.25 1085.42 1090.7 1087.58C1112.4 1077.71 1139.94 1060.49 1160.9 1048.18C1169.72 1032.1 1166.54 1003.5 1166.37 985.012L1166.13 913.856L1166.1 823.199C1166.1 811.941 1167.4 770.799 1163.69 763.112Z"/><path fill="#343B42" transform="scale(0.5 0.5)" d="M874.008 1189.73C874.359 1198.64 872.933 1207.11 883.599 1209.1C882.692 1211.27 883.129 1210.5 881.391 1212.22C876.192 1213.28 869.945 1210.09 867.59 1205.56L868.726 1204.07C871.984 1198.24 872.515 1196.01 874.008 1189.73Z"/><path fill="#F4F4F2" transform="scale(0.5 0.5)" d="M1111.6 945.798C1112.73 945.692 1113.2 945.943 1114.38 946.209L1113.87 947.878C1102.85 959.78 1004.67 1012.62 986.271 1020.37C985.89 1020.47 984.074 1020.5 983.604 1020.52L983.829 1019.01C992.112 1009.72 1095.65 953.552 1111.6 945.798Z"/><path fill="#D48E57" transform="scale(0.5 0.5)" d="M1045.71 959.876C1049.3 960.085 1049.21 959.451 1051.34 961.339C1051.28 961.603 1051.25 961.878 1051.15 962.13C1048.56 968.728 990.563 998.681 980.716 1004.64C977.18 1004.54 978.689 1005.08 975.926 1003.31L975.963 1001.05C981.219 994.23 1034.84 965.79 1045.71 959.876Z"/><path fill="#F4F4F2" transform="scale(0.5 0.5)" d="M1029.08 1057.9L1030.68 1059.13C1028.59 1064.62 965.217 1098.66 956.395 1103.34C954.452 1102.93 955.306 1103.42 953.96 1101.66C954.078 1101.28 954.155 1100.89 954.313 1100.52C957.723 1092.69 1018.67 1062.12 1029.08 1057.9Z"/><path fill="#D48E57" transform="scale(0.5 0.5)" d="M1004.97 963.002L1006.59 963.34L1007.37 964.857C1004.53 970.345 961.383 993.711 953.36 997.398L950.77 995.312L951.267 992.81C958.023 984.749 994.292 966.674 1004.97 963.002Z"/><path fill="#F4F4F2" transform="scale(0.5 0.5)" d="M945.021 909.194C946.366 909.702 946.858 910.097 948.095 910.838C950.293 918.577 936.924 967.753 933.919 977.814C932.546 977.322 932.122 976.973 930.858 976.236C928.92 966.711 941.704 920.284 945.021 909.194Z"/><path fill="#F4F4F2" transform="scale(0.5 0.5)" d="M1075.65 920.87L1077.58 922.229L1077.8 924.183C1073.43 931.168 1030.42 954.016 1020.57 959.57C1018.98 957.571 1018.92 957.747 1018.63 955.249C1022.99 949.676 1066.16 926.599 1075.65 920.87Z"/><path fill="#F4F4F2" transform="scale(0.5 0.5)" d="M958.266 910.706C966.379 914.15 974.593 918.829 982.393 923.038C977.452 933.273 969.746 945.064 963.488 954.578C961.891 955.76 962.593 955.38 960.454 955.662L959.553 954.199C960.687 946.63 969.282 934.023 973.633 927.015C965.419 922.583 956.534 921.166 958.266 910.706Z"/><path fill="#F4F4F2" transform="scale(0.5 0.5)" d="M917.736 932.694L918.82 933.844C919.481 940.471 908.108 955.329 904.188 960.806C909.332 963.957 918.597 966.894 921.322 971.725L920.77 973.536L917.761 974.714C906.797 972.979 903.614 971.476 895.597 964.409C902.397 953.034 908.198 941.912 917.736 932.694Z"/><path fill="#D48E57" transform="scale(0.5 0.5)" d="M1055.06 1019.86C1057.4 1020.73 1056.48 1019.99 1057.6 1022.42C1054.68 1030.04 1022.84 1045.56 1014.45 1049.56L1013.31 1049.57L1011.96 1047.96L1012.22 1045.63C1017.92 1037.75 1045.46 1024.77 1055.06 1019.86Z"/><path fill="#D48E57" transform="scale(0.5 0.5)" d="M998.69 1051.95C999.819 1052.19 999.119 1051.96 1000.63 1053L1000.35 1055.47C995.087 1062.73 963.476 1079 954.29 1081.76L952.769 1079.95L953.433 1077.8C960.246 1070.51 988.696 1056.43 998.69 1051.95Z"/><path fill="#F4F4F2" transform="scale(0.5 0.5)" d="M1087.86 1022.91L1089.58 1025.02L1089.04 1027.04C1082.44 1034.07 1053.46 1049.31 1043.21 1055.16C1041.15 1053.34 1041.98 1054.4 1041.15 1051.63C1044.88 1044.73 1078.6 1027.91 1087.86 1022.91Z"/><path fill="#F4F4F2" transform="scale(0.5 0.5)" d="M1135.48 888.087C1137.16 888.487 1136.57 888.504 1138.16 890.235C1135.5 897.308 1102.38 913.538 1093.42 918.379L1091.61 918.63L1090.11 917.04L1090.77 914.765C1099.27 907.224 1124.34 894.204 1135.48 888.087Z"/><path fill="#F4F4F2" transform="scale(0.5 0.5)" d="M971.697 1110.05C972.488 1111.1 972.33 1111.44 972.644 1112.92C968.225 1120.26 938.809 1134.85 930.402 1139.39C929.847 1137.82 928.962 1136.5 929.67 1135.43C935.426 1126.78 962.572 1114.35 971.697 1110.05Z"/><path fill="#F4F4F2" transform="scale(0.5 0.5)" d="M937.505 998.929C947.369 1005.2 906.999 1023.8 902.406 1026.31C901.102 1025.45 901.26 1025.3 900.274 1023.94L900.906 1021.59C907.654 1014.31 928.109 1004.09 937.505 998.929Z"/><path fill="#F4F4F2" transform="scale(0.5 0.5)" d="M963.606 1005.92L966.06 1007.14C966.556 1008.57 967.285 1009.53 966.511 1010.4C960.43 1017.2 937.283 1028.86 929.257 1031.28L927.003 1030.6L926.915 1028.96C931.731 1022.7 955.269 1010.68 963.606 1005.92Z"/><path fill="#F4F4F2" transform="scale(0.5 0.5)" d="M941.69 1145.87C942.762 1147.39 942.523 1147.53 943.006 1149.5C940.057 1157.16 911.392 1170.53 903.413 1174.71C902.61 1172.61 902.68 1172.74 902.846 1170.48C907.863 1163.99 933.04 1151.03 941.69 1145.87Z"/><path fill="#F4F4F2" transform="scale(0.5 0.5)" d="M965.197 1048.85C967.262 1049.5 966.349 1048.88 967.734 1050.96C965.817 1057.71 936.494 1072.04 929.677 1075.73C927.982 1075.2 928.723 1075.41 927.291 1073.44L927.839 1071.37C934.185 1064.67 956.395 1053.6 965.197 1048.85Z"/><path fill="#D48E57" transform="scale(0.5 0.5)" d="M1134.63 974.963C1136.11 975.05 1136.01 975.258 1137.48 975.989L1137.61 978.142C1132.77 985.488 1112.03 994.928 1103.42 999.143L1101.09 998.606L1100.59 996.849C1104.05 989.697 1126.68 979.038 1134.63 974.963Z"/><path fill="#F4F4F2" transform="scale(0.5 0.5)" d="M967.82 1025.92C973.841 1034.44 944.508 1045.44 938.339 1048.31C936.912 1045.77 937.117 1047.09 937.75 1044.21C944.245 1036.97 958.763 1030.55 967.82 1025.92Z"/><path fill="#D48E57" transform="scale(0.5 0.5)" d="M1087.86 1000.92C1090.56 1002.96 1089.88 1001.68 1090.41 1004.62C1087.29 1010.48 1077.37 1014.38 1071.31 1017.41C1069.7 1016.89 1069.78 1016.69 1068.34 1015.63L1068.48 1013.44C1072.69 1007.8 1081.5 1004.07 1087.86 1000.92Z"/><path fill="#423A32" fill-opacity="0.88627452" transform="scale(0.5 0.5)" d="M847.452 1069.69C833.004 1077.45 817.826 1086.76 803.471 1094.97L705.364 1151.1L499.277 1267.62L406.896 1319.96C392.27 1328.3 375.361 1339.28 359.905 1345.98C348.569 1351.13 310.389 1325.33 308.304 1316.09C304.391 1298.75 305.778 1267.3 305.734 1249.31L305.538 1158.19L305.616 941.892C305.678 901.441 305.739 860.776 306.252 820.33C306.307 816.028 307.913 797.218 309.696 793.612C313.277 786.369 322.174 776.873 329.129 772.658C358.977 754.569 390.281 738.69 420.578 721.461L649.225 592.678L807.462 503.706C831.14 490.135 854.548 476.205 878.636 463.296C888.933 457.778 900.323 450.748 910.772 445.867C913.479 445.938 919.708 445.552 921.29 446.863C913.636 451.974 893.008 462.561 883.854 467.721L799.038 515.561C701.461 569.334 604.367 623.979 507.768 679.49L395.978 742.321C299.208 796.811 310.161 779.404 311.376 890.123L311.571 967.423L311.955 1194.5C312.003 1234.21 311.369 1273.56 312.053 1313.27C317.852 1320.69 326.76 1328.4 335.525 1331.78L337.56 1331.62C337.997 1328.2 338.093 1326.83 338.124 1323.38C339.863 1318.54 339.61 1311.5 339.775 1306.14C339.855 1312.62 338.514 1316.12 343.744 1320.36C344.427 1324.1 343.569 1327.54 345.342 1331.44C349.317 1340.57 356.627 1341.12 364.734 1336.73C411.403 1311.46 456.926 1284.2 503.07 1258.05C617.643 1191.97 732.584 1126.53 847.888 1061.73C847.947 1052.63 847.889 1043.53 847.714 1034.42C813.382 1052.28 777.421 1073.67 743.746 1093.01L651.023 1145.41C628.423 1158.39 606.185 1172.19 583.256 1184.55C570.726 1191.3 565.684 1194.14 554.905 1184.23C553.084 1175.7 553.291 1166.72 553.382 1158.02C553.967 1099.5 552.251 1041.11 552.354 982.584C552.387 963.662 556.778 957.224 573.654 947.126C610.297 925.2 648.756 906.09 685.908 885.097L841.682 796.056C868.02 780.959 894.621 764.489 922.217 752.073C931.655 747.826 939.457 758.969 939.864 767.781C940.324 777.728 940.575 787.119 940.575 797.006C940.526 816.745 940.28 836.483 939.838 856.217C945.438 853.518 951.244 850.477 956.807 847.641C961.44 847.652 963.262 847.52 966.67 844.504L973.526 845.393L904.871 884.321C896.285 889.216 857.135 909.974 855.641 918.234C851.177 942.919 853.211 973.608 853.327 999.047L853.61 1103.71C853.851 1130.35 851.11 1168.05 855.155 1194.35C859.615 1197.61 863.342 1200.35 868.098 1203.23C868.272 1193.14 868.154 1180.9 868.674 1170.99C869.076 1179.33 869.388 1195.61 868.726 1204.07L867.59 1205.56C869.945 1210.09 876.192 1213.28 881.391 1212.22C883.129 1210.5 882.692 1211.27 883.599 1209.1C887.318 1204.33 911.451 1191.49 918.527 1187.5L1014.72 1132.78C1026.34 1126.13 1055.43 1110.38 1064.36 1102.7C1062.59 1096.02 1055.44 1082.9 1059.84 1077.81C1063.88 1077.03 1068.67 1079.35 1072.75 1080.81C1075.37 1084.79 1075.72 1085.27 1077.26 1089.7C1073.02 1088.18 1069.22 1086.88 1065.11 1084.99C1070.18 1098.5 1075.08 1112.08 1079.79 1125.72C1082.95 1134.96 1086.47 1146.86 1090.69 1155.43C1094.02 1150.54 1100.4 1139.4 1105.39 1138.21C1112.17 1141.08 1132.34 1162.06 1136.46 1167.97L1136.81 1169.94L1140.1 1171.11L1141.25 1173.99C1129.56 1179.89 1118.19 1153.49 1107.55 1147.76C1098.63 1149.19 1099.07 1163.27 1090.14 1166.25C1082.7 1162.82 1071.55 1123.93 1066.47 1112.95C1065.91 1112.62 1065.44 1112.06 1064.8 1111.95C1061.91 1111.47 890.71 1215.05 880.332 1214.83C871.933 1214.65 857.861 1205.24 852.103 1199.36C850.206 1197.42 848.654 1195.47 848.014 1192.79C845.527 1182.35 847.354 1167.29 847.357 1156.46L847.452 1069.69ZM572.259 1183.16C582.894 1178.16 593.714 1171.28 603.964 1165.26C675.449 1123.34 748.442 1084.17 820.042 1042.43C829.028 1037.19 838.204 1032.2 847.649 1027.88L847.167 962.499C846.727 923.949 840.421 908.762 882.235 890.496C889.439 887.349 927.946 865.42 934.24 860.534C934.918 845.366 936.486 772.574 931.815 761.136C928.424 758.043 927.715 758.198 922.875 758.806C897.955 769.652 860.795 792.069 835.996 806.099C789.033 832.069 742.39 858.613 696.078 885.725C670.353 900.426 644.495 914.894 618.509 929.127C603.496 937.281 588.24 944.932 573.652 953.837C560.62 961.794 558.55 966.35 558.649 981.187C558.86 1012.76 559.674 1044.27 559.792 1075.84L560.16 1152.12C560.274 1163.83 554.794 1186.29 572.259 1183.16Z"/><path fill="#423A32" transform="scale(0.5 0.5)" d="M645.951 941.151C650.229 941.933 651.485 941.79 654.668 944.455C658.558 950.524 657.536 1044.18 656.731 1056.12C648.051 1070.16 606.489 1091.96 590.374 1098.15C589.539 1098.28 589.276 1098.34 588.332 1098.35C585.962 1098.35 583.808 1098.3 582.104 1096.45C576.445 1090.33 578.937 996.299 580.682 980.642C591.292 966.26 628.859 947.843 645.951 941.151Z"/><path fill="#E08640" transform="scale(0.5 0.5)" d="M587.532 1091.87C583.825 1073.98 585.086 1053.75 585.08 1035.56C585.076 1022.69 584.536 1009.68 585.039 996.83C585.355 988.755 586.096 982.773 592.288 977.253C598.182 971.999 642.434 946.5 648.388 947.194C650.168 947.401 650.329 948.473 651.291 949.819C649.92 981.292 651.745 1015.82 650.945 1047.93C651.316 1057.65 649.346 1059.54 641.088 1064.14C624.101 1073.6 605.777 1085.2 587.532 1091.87Z"/><path fill="#D48E57" transform="scale(0.5 0.5)" d="M587.532 1091.87C583.825 1073.98 585.086 1053.75 585.08 1035.56C585.076 1022.69 584.536 1009.68 585.039 996.83C585.355 988.755 586.096 982.773 592.288 977.253C598.182 971.999 642.434 946.5 648.388 947.194C650.168 947.401 650.329 948.473 651.291 949.819L649.932 950.019C648.643 950.199 647.341 950.281 646.042 950.375C640.748 950.76 595.853 978.351 590.243 983.573C589.266 1010.24 587.441 1059.8 589.638 1085.71C608.958 1079.27 627.976 1067.53 646.456 1058.43C647.929 1054.7 649.146 1051.53 650.945 1047.93C651.316 1057.65 649.346 1059.54 641.088 1064.14C624.101 1073.6 605.777 1085.2 587.532 1091.87Z"/><path fill="#E08640" transform="scale(0.5 0.5)" d="M733.75 892.697C739.621 888.645 750.776 883.819 757.762 882.652C759.797 883.652 759.292 882.946 760.04 884.948C766.597 902.509 755.833 959.022 762.531 976.57C763.586 979.333 764.747 982.573 763.855 985.548C763.383 987.123 762.193 988.579 761.248 989.9C759.472 992.385 759.236 993.473 759.158 996.631C759.088 999.469 759.219 1000.86 757.746 1003.3C738.131 1014.32 717.834 1025.25 697.972 1035.77C695.051 1037.32 691.923 1035.27 689.933 1033.39C688.644 1030.11 688.281 937.634 690.328 932.627C686.271 917.328 693.353 912.019 706.055 910.767C712.373 910.144 713.89 903.114 718.373 898.709C728.956 900.025 727.424 894.809 733.75 892.697Z"/><path fill="#D48E57" transform="scale(0.5 0.5)" d="M690.328 932.627C686.271 917.328 693.353 912.019 706.055 910.767C712.373 910.144 713.89 903.114 718.373 898.709C728.956 900.025 727.424 894.809 733.75 892.697C737.975 895.032 739.244 894.015 743.961 892.639C741.018 904.064 698.178 915.256 695.478 931.154C694.994 934.006 694.804 936.943 694.894 939.788L693.776 939.16C692.544 934.467 693.547 935.917 690.328 932.627Z"/><path fill="#A0A6A9" fill-opacity="0.41568628" transform="scale(0.5 0.5)" d="M655.997 1074.6C657.03 1075.01 658.209 1075.85 659.2 1076.47L659.525 1078.51C657.277 1082.54 594.396 1116.71 585.316 1121.83C583.122 1122.5 584.002 1122.4 581.667 1121.92L581.751 1119.55C586.482 1111.36 642.938 1082.51 655.997 1074.6Z"/><path fill="#A0A6A9" fill-opacity="0.39607844" transform="scale(0.5 0.5)" d="M765.541 1032.06C768.7 1032.27 767.473 1031.63 769.466 1033.8C766.92 1037.77 699.952 1073.31 690.798 1077.83L689.084 1075.93L689.253 1073.88C695.944 1065.95 753.735 1037.53 765.541 1032.06Z"/><path fill="#A0A6A9" fill-opacity="0.41568628" transform="scale(0.5 0.5)" d="M656.582 1090.76C657.631 1091.16 658.294 1091.79 659.251 1092.48L659.459 1094.61C657.217 1098.74 591.862 1134.55 581.145 1141.21C579.396 1139.27 579.983 1140.38 579.778 1137.65C584.879 1130 644.891 1098.11 656.582 1090.76Z"/><path fill="#A0A6A9" fill-opacity="0.45882353" transform="scale(0.5 0.5)" d="M763.891 1016.07C766.175 1015.62 765.28 1015.63 767.591 1016.31L767.626 1018.29C761.991 1025.3 702.568 1055.8 691.306 1061.86C689.392 1062.07 690.273 1062.3 688.696 1061.04L688.621 1058.28C691.978 1052.35 713.04 1043.1 720.317 1039.39C735.058 1032.03 749.589 1024.25 763.891 1016.07Z"/><path fill="#D48E57" transform="scale(0.5 0.5)" d="M770.027 923.824C775.562 924.149 782.09 924.684 787.546 924.763C806.668 925.039 799.948 933.834 792.559 944.022L784.355 954.05C780.303 946.256 770 931.262 770.027 923.824Z"/><path fill="#A0A6A9" fill-opacity="0.36078432" transform="scale(0.5 0.5)" d="M640.388 1118.04L641.642 1118.97L641.446 1121.32C635.984 1127.28 594.679 1149.9 584.353 1156.34C582.169 1154.64 582.8 1155.76 582.072 1153.17C586.927 1145.39 629.907 1123.55 640.388 1118.04Z"/><path fill="#A0A6A9" fill-opacity="0.38039216" transform="scale(0.5 0.5)" d="M743.734 1060.1C744.449 1059.92 745.462 1060.11 746.29 1060.18L746.479 1061.46C743.177 1067.86 702.01 1089.59 693.412 1093.63C691.806 1093.55 692.435 1093.54 690.765 1092.49L690.854 1090.35C695.979 1084.69 734.71 1064.93 743.734 1060.1Z"/><path fill="#D48E57" fill-opacity="0.93333334" transform="scale(0.5 0.5)" d="M802.774 944.868C803.308 944.862 803.842 944.863 804.376 944.872C811.976 945.029 818.652 947.05 817.692 956.005C812.236 954.056 801.163 951.67 802.774 944.868Z"/><path fill="#423A32" transform="scale(0.5 0.5)" d="M920.831 441.503C939.802 447.177 950.838 453.436 966.43 466.074C967.272 475.608 968.252 516.112 966.856 525.081L966.15 525.835L964.392 524.149C959.439 524.477 958.502 526.167 955.774 530.094C775.459 629.605 596.018 730.693 417.472 833.345C392.611 847.408 369.159 862.095 344.02 876.116L342.963 1168.65L343.111 1265.55C343.152 1281.62 342.653 1304.75 343.744 1320.36C338.514 1316.12 339.855 1312.62 339.775 1306.14C339.61 1311.5 339.863 1318.54 338.124 1323.38C338.093 1326.83 337.997 1328.2 337.56 1331.62L335.525 1331.78C326.76 1328.4 317.852 1320.69 312.053 1313.27C311.369 1273.56 312.003 1234.21 311.955 1194.5L311.571 967.423L311.376 890.123C310.161 779.404 299.208 796.811 395.978 742.321L507.768 679.49C604.367 623.979 701.461 569.334 799.038 515.561L883.854 467.721C893.008 462.561 913.636 451.974 921.29 446.863C919.708 445.552 913.479 445.938 910.772 445.867L920.831 441.503ZM342.029 869.546L352.262 863.973L791.017 616.228L907.04 551.157C923.696 541.77 940.858 532.152 957.397 522.492C961.034 520.367 963.236 517.719 964.053 513.561C966.113 503.069 965.467 481.976 963.389 471.89C960.86 469.272 957.544 465.303 954.397 463.843L952.885 463.871C915.941 482.567 873.872 508.147 836.875 528.922L597.947 663.503L443.277 750.17C417.165 764.849 390.371 779.667 364.652 794.971C357.136 799.443 347.243 806.834 344.885 815.285C340.536 830.87 341.913 853.222 342.029 869.546Z"/><path fill="#E08640" transform="scale(0.5 0.5)" d="M921.29 446.863C929.54 450.858 938.718 455.206 946.548 459.814C918.812 477.711 885.787 494.371 856.777 510.866C834.423 523.576 808.588 539.694 785.846 550.639C773.949 558.426 757.731 566.956 745.03 574.065L677.557 611.876L462.835 732.551L400.335 767.622C387.888 774.608 343.529 797.541 340.032 811.799C334.713 833.481 336.776 867.694 336.92 890.604L337.016 991.056L337.585 1214.62C337.729 1247.36 336.596 1291.35 338.124 1323.38C338.093 1326.83 337.997 1328.2 337.56 1331.62L335.525 1331.78C326.76 1328.4 317.852 1320.69 312.053 1313.27C311.369 1273.56 312.003 1234.21 311.955 1194.5L311.571 967.423L311.376 890.123C310.161 779.404 299.208 796.811 395.978 742.321L507.768 679.49C604.367 623.979 701.461 569.334 799.038 515.561L883.854 467.721C893.008 462.561 913.636 451.974 921.29 446.863Z"/><path fill="#D48E57" transform="scale(0.5 0.5)" d="M799.038 515.561C786.8 532.39 755.512 541.352 738.729 552.25C717.956 565.739 697.81 578.192 675.588 589.262C657.604 598.533 639.977 611.286 621.677 620.348C609.154 626.962 596.473 634.078 583.772 640.322C576.71 643.25 564.249 655.975 557.866 658.226C538.114 665.192 524.587 673.713 506.702 684.052C492.077 692.508 479.447 698.217 466.12 710.005C460.304 715.151 450.678 712.412 446.235 722.04C417.191 732.715 383.689 753.705 355.821 768.617C344.115 774.88 322.429 787.612 317.506 801.645C313.054 834.574 315.227 885.996 315.347 918.089L315.934 1106.17C315.999 1157.3 316.398 1208.54 315.162 1259.68C314.789 1275.12 313.728 1290.98 315.867 1306.23C317.15 1313.67 320.483 1324.66 330.186 1321.79C333.818 1318.31 334.722 1314.91 334.578 1309.78C333.708 1278.81 333.306 1247.79 333.256 1216.81L333.223 977.762L332.833 888.495C332.657 866.569 331.355 844.35 334.165 822.361C338.477 788.615 376.616 779.178 400.567 763.68C418.269 752.225 434.668 741.853 453.562 732.389C461.658 728.334 470.009 720.607 478.313 716.454C488.183 710.864 498.925 706.964 508.899 701.579L602.363 650.601C617.553 642.333 630.96 633.058 645.528 624.416C655.092 618.743 672.695 611.126 682.74 605.748C701.361 595.778 768.763 552.428 785.846 550.639C773.949 558.426 757.731 566.956 745.03 574.065L677.557 611.876L462.835 732.551L400.335 767.622C387.888 774.608 343.529 797.541 340.032 811.799C334.713 833.481 336.776 867.694 336.92 890.604L337.016 991.056L337.585 1214.62C337.729 1247.36 336.596 1291.35 338.124 1323.38C338.093 1326.83 337.997 1328.2 337.56 1331.62L335.525 1331.78C326.76 1328.4 317.852 1320.69 312.053 1313.27C311.369 1273.56 312.003 1234.21 311.955 1194.5L311.571 967.423L311.376 890.123C310.161 779.404 299.208 796.811 395.978 742.321L507.768 679.49C604.367 623.979 701.461 569.334 799.038 515.561Z"/><path fill="#59626E" transform="scale(0.5 0.5)" d="M952.885 463.871L954.397 463.843C957.544 465.303 960.86 469.272 963.389 471.89C965.467 481.976 966.113 503.069 964.053 513.561C963.236 517.719 961.034 520.367 957.397 522.492C940.858 532.152 923.696 541.77 907.04 551.157L791.017 616.228L352.262 863.973L342.029 869.546C341.913 853.222 340.536 830.87 344.885 815.285C347.243 806.834 357.136 799.443 364.652 794.971C390.371 779.667 417.165 764.849 443.277 750.17L597.947 663.503L836.875 528.922C873.872 508.147 915.941 482.567 952.885 463.871ZM879.231 544.612C880.401 539.111 881.892 534.082 878.772 529.138C875.589 527.311 877.299 527.722 873.396 528.201C832.378 548.514 791.399 572.329 751.551 594.892L615.986 671.817C578.681 693.348 539.773 712.159 503.872 735.991C495.538 741.524 485.965 758.023 500.598 760.776C517.926 753.996 546.537 736.596 563.513 726.968L667.454 668.008L812.503 586.749C832.916 575.247 864.507 561.634 879.231 544.612ZM452.811 793.329C465 783.009 477.412 762.612 451.753 760.964C444.082 767.703 433.616 780.147 440.284 790.644C444.459 793.857 447.609 793.886 452.811 793.329Z"/><path fill="#343B42" transform="scale(0.5 0.5)" d="M871.737 523.005C897.655 521.387 885.602 551.874 873.356 559.534C857.589 569.395 840.326 577.749 824.033 586.91L717.36 647.287L580.523 724.549C555.82 738.552 528.831 754.475 503.664 767.339C484.884 771.38 488.677 750.404 491.234 739.4C505.708 724.367 564.134 694.606 584.876 682.985L727.919 602.446L823.177 548.444C834.804 541.924 860.358 526.629 871.737 523.005ZM500.598 760.776C517.926 753.996 546.537 736.596 563.513 726.968L667.454 668.008L812.503 586.749C832.916 575.247 864.507 561.634 879.231 544.612C880.401 539.111 881.892 534.082 878.772 529.138C875.589 527.311 877.299 527.722 873.396 528.201C832.378 548.514 791.399 572.329 751.551 594.892L615.986 671.817C578.681 693.348 539.773 712.159 503.872 735.991C495.538 741.524 485.965 758.023 500.598 760.776Z"/><path fill="#423A32" transform="scale(0.5 0.5)" d="M413.719 781.932C439.932 782.819 428.451 804.045 415.904 815.173C389.261 814.872 401.373 793.164 413.719 781.932Z"/><path fill="#E08640" transform="scale(0.5 0.5)" d="M417.019 787.723C419.129 788.028 419.408 788.467 421.437 789.488C427.124 797.511 418.408 805.33 412.774 810.713C398.665 803.892 408.939 793.633 417.019 787.723Z"/><path fill="#423A32" transform="scale(0.5 0.5)" d="M375.416 803.874C400.425 804.516 392.594 825.324 377.487 835.436C355.235 840.818 362.457 814.743 375.416 803.874Z"/><path fill="#D48E57" transform="scale(0.5 0.5)" d="M379.172 808.641C393.49 811.468 381.451 825.344 376.189 830.411C373.034 830.092 373.172 829.915 370.424 828.196C365.482 820.078 373.014 813.405 379.172 808.641Z"/><path fill="#343B42" transform="scale(0.5 0.5)" d="M451.753 760.964C477.412 762.612 465 783.009 452.811 793.329C447.609 793.886 444.459 793.857 440.284 790.644C433.616 780.147 444.082 767.703 451.753 760.964ZM451.217 785.886C456.779 783.074 462.837 779.293 461.636 772C458.84 768.529 458.258 768.315 453.516 768.024C447.435 770.732 442.816 774.864 442.927 782.063C445.46 786.502 446.164 785.942 451.217 785.886Z"/><path fill="#423A32" transform="scale(0.5 0.5)" d="M1583.95 1004.5C1596.79 1006.98 1608.8 1010.91 1620.03 1017.71C1649.17 1035.35 1685.58 1051.71 1711.93 1073.36C1716.17 1084.23 1714.4 1105.57 1714.13 1118.28C1710.21 1124.19 1708.76 1125.44 1703.65 1130.27C1706.66 1132.25 1712.37 1135.25 1712.93 1139C1714.23 1147.7 1713.85 1156.83 1714.05 1165.57C1714.42 1182.21 1714.62 1185 1701.89 1195.88C1704.85 1198.14 1707.89 1199.01 1709.9 1201.94C1714.54 1210.72 1714.45 1219.76 1714.29 1229.11C1713.54 1241.93 1717.48 1251.14 1705.08 1258.93C1681.83 1273.56 1658.22 1287.45 1634.37 1301.04C1623.45 1307.26 1595.16 1329.87 1582.65 1322.96C1570.46 1318.19 1470.1 1260.76 1463.36 1253.41C1459.96 1244.3 1461.39 1214.35 1462.8 1204.23C1465.75 1200.96 1469.86 1197.42 1473.17 1194.4L1464.1 1188.91C1460.29 1182.89 1461.99 1165.99 1461.69 1158.41C1462.28 1151.06 1459.83 1140.59 1466.31 1135.27C1468.33 1133.6 1469.31 1131.94 1470.55 1130.06C1466.1 1127.98 1465.88 1127.58 1462.3 1124.06C1461.7 1108.32 1462 1091.73 1462.04 1075.9C1475.99 1061.01 1563.39 1012.36 1583.95 1004.5Z"/><path fill="#423A32" transform="scale(0.5 0.5)" d="M1583.95 1004.5C1596.79 1006.98 1608.8 1010.91 1620.03 1017.71C1649.17 1035.35 1685.58 1051.71 1711.93 1073.36C1716.17 1084.23 1714.4 1105.57 1714.13 1118.28C1710.21 1124.19 1708.76 1125.44 1703.65 1130.27C1700.96 1131.58 1698.06 1132.72 1695.79 1134.54C1680.44 1145.15 1659.84 1154.24 1643.53 1164.08C1628.05 1173.43 1611.37 1184.4 1595.04 1191.52C1587.04 1195.01 1569.03 1186.46 1561.97 1182.17C1534.27 1166.83 1507.5 1150.07 1479.89 1134.58C1477.21 1132.48 1473.85 1129.51 1470.55 1130.06C1466.1 1127.98 1465.88 1127.58 1462.3 1124.06C1461.7 1108.32 1462 1091.73 1462.04 1075.9C1475.99 1061.01 1563.39 1012.36 1583.95 1004.5Z"/><path fill="#E08640" transform="scale(0.5 0.5)" d="M1469.38 1076.87C1481.92 1065.46 1571.35 1014.68 1587.93 1009.13C1609.46 1018.4 1628.53 1030.08 1648.8 1041.7C1668.34 1052.91 1689.27 1063.92 1707.71 1076.76C1688.65 1088.56 1668.66 1099.32 1649.18 1110.46C1631.16 1120.77 1612.65 1133.24 1593.58 1141.1C1582.02 1145.87 1556.45 1128.52 1546.82 1122.18C1526.08 1111.22 1502.73 1096.61 1481.97 1084.71C1476.68 1081.88 1474.28 1080.6 1469.38 1076.87Z"/><path fill="#D48E57" transform="scale(0.5 0.5)" d="M1469.38 1076.87C1481.92 1065.46 1571.35 1014.68 1587.93 1009.13C1609.46 1018.4 1628.53 1030.08 1648.8 1041.7C1668.34 1052.91 1689.27 1063.92 1707.71 1076.76C1688.65 1088.56 1668.66 1099.32 1649.18 1110.46C1631.16 1120.77 1612.65 1133.24 1593.58 1141.1C1582.02 1145.87 1556.45 1128.52 1546.82 1122.18C1556.74 1121.88 1573.43 1134.78 1588.38 1139.49C1604.56 1134.06 1629.38 1117.6 1645.2 1108.64C1656.42 1102.29 1690.5 1085.23 1696.76 1077.72C1696.75 1077.93 1697.3 1075.34 1696.47 1074.88C1663.68 1056.58 1631.63 1036.24 1598.64 1017.86C1595.07 1015.87 1592.75 1015.17 1590.05 1014.39C1575.85 1017.8 1483.06 1067.27 1481.09 1078.44C1481.87 1080.87 1482.58 1082.14 1481.97 1084.71C1476.68 1081.88 1474.28 1080.6 1469.38 1076.87Z"/><path fill="#E08640" transform="scale(0.5 0.5)" d="M1624.86 1131.29C1648.75 1115.79 1681.42 1097.1 1707.11 1083.99C1708.19 1096.33 1708.28 1108.73 1707.37 1121.08C1685.4 1134.97 1655.18 1150.9 1631.96 1164.31C1618.82 1172.01 1603.75 1181.39 1590.07 1187.51C1589.74 1174.86 1589.97 1161.52 1590.02 1148.82C1600.49 1146.01 1615.1 1136.88 1624.86 1131.29Z"/><path fill="#D48E57" transform="scale(0.5 0.5)" d="M1590.02 1148.82C1600.49 1146.01 1615.1 1136.88 1624.86 1131.29C1620.3 1138.9 1604.89 1146.7 1597.07 1154.34C1595.47 1161 1592.38 1168.76 1595.73 1174.44C1602.95 1177.84 1619.78 1163.45 1631.96 1164.31C1618.82 1172.01 1603.75 1181.39 1590.07 1187.51C1589.74 1174.86 1589.97 1161.52 1590.02 1148.82Z"/><path fill="#D48E57" transform="scale(0.5 0.5)" d="M1467.14 1083.27C1493.96 1096.58 1520.46 1114.68 1546.83 1129.26C1560.13 1136.61 1570.41 1143.68 1585 1148.65C1585.01 1162.11 1585.2 1174.21 1584.08 1187.62C1574.49 1182.64 1561.89 1175.86 1553.07 1169.6C1547.18 1167.75 1534.35 1159.33 1529.08 1155.65C1512.78 1147.19 1480.59 1131.05 1468.54 1118.03C1465.58 1105.48 1466.64 1096.01 1467.14 1083.27Z"/><path fill="#E08640" transform="scale(0.5 0.5)" d="M1517.81 1143.7L1518.88 1142.68C1525.28 1136.53 1525.15 1136.19 1524.88 1127.37C1534.63 1124.86 1571.61 1144.54 1579.41 1151.37C1581.78 1160.89 1581.94 1167.23 1581.71 1177.07C1575.1 1175.15 1559.26 1170.03 1553.07 1169.6C1547.18 1167.75 1534.35 1159.33 1529.08 1155.65C1526.02 1150.88 1521.97 1147.53 1517.81 1143.7Z"/><path fill="#423A32" transform="scale(0.5 0.5)" d="M1477.04 1098.45C1490.77 1102.24 1497.29 1110.91 1492.27 1124.87C1475.81 1121.77 1469.86 1114.23 1477.04 1098.45Z"/><path fill="#423A32" transform="scale(0.5 0.5)" d="M1501.82 1113.8C1516.08 1114.34 1524.3 1125.54 1517.11 1138.39C1504.36 1137.78 1494 1125.72 1501.82 1113.8Z"/><path fill="#59626E" transform="scale(0.5 0.5)" d="M1470.55 1130.06C1473.85 1129.51 1477.21 1132.48 1479.89 1134.58C1507.5 1150.07 1534.27 1166.83 1561.97 1182.17C1569.03 1186.46 1587.04 1195.01 1595.04 1191.52C1611.37 1184.4 1628.05 1173.43 1643.53 1164.08C1659.84 1154.24 1680.44 1145.15 1695.79 1134.54C1698.06 1132.72 1700.96 1131.58 1703.65 1130.27C1706.66 1132.25 1712.37 1135.25 1712.93 1139C1714.23 1147.7 1713.85 1156.83 1714.05 1165.57C1714.42 1182.21 1714.62 1185 1701.89 1195.88L1699.01 1191.49C1686.11 1199.09 1668.41 1208.35 1655.08 1215.97C1639.98 1224.61 1604.15 1247.34 1590.15 1252.21L1584.51 1252.38C1546.98 1235.95 1506.52 1207.05 1470.62 1186.53C1467.41 1184.69 1467.86 1181.57 1467.55 1178.29C1466.71 1183.48 1466.46 1184.21 1464.1 1188.91C1460.29 1182.89 1461.99 1165.99 1461.69 1158.41C1462.28 1151.06 1459.83 1140.59 1466.31 1135.27C1468.33 1133.6 1469.31 1131.94 1470.55 1130.06Z"/><path fill="#59626E" transform="scale(0.5 0.5)" d="M1468.24 1149.03C1506.58 1169.83 1543.37 1194.87 1583.88 1214.81C1584.13 1226.53 1584.79 1240.85 1584.51 1252.38C1546.98 1235.95 1506.52 1207.05 1470.62 1186.53C1467.41 1184.69 1467.86 1181.57 1467.55 1178.29C1467.68 1169.19 1467.54 1157.94 1468.24 1149.03Z"/><path fill="#343B42" transform="scale(0.5 0.5)" d="M1478.35 1163.61C1488.87 1166.54 1490.6 1173.83 1495.34 1183.04C1503.83 1179.99 1512.5 1177.98 1518.78 1187.81C1523.07 1194.53 1520.33 1201.88 1512.99 1205.63C1501.18 1203.93 1502.51 1194.1 1493.55 1186.47C1491.9 1187.65 1489.97 1190.07 1488.39 1189.83C1475.65 1187.94 1468.9 1173.23 1478.35 1163.61Z"/><path fill="#59626E" transform="scale(0.5 0.5)" d="M1707.95 1149.1C1708.29 1163.09 1712.79 1184.02 1699.01 1191.49C1686.11 1199.09 1668.41 1208.35 1655.08 1215.97C1639.98 1224.61 1604.15 1247.34 1590.15 1252.21C1590.58 1239.7 1590.88 1227.19 1591.04 1214.67C1595.33 1213.01 1600.81 1210.83 1604.75 1208.52C1638.84 1188.58 1674.18 1169.48 1707.95 1149.1Z"/><path fill="#343B42" transform="scale(0.5 0.5)" d="M1470.55 1130.06C1473.85 1129.51 1477.21 1132.48 1479.89 1134.58C1476.54 1136.77 1473.01 1138.99 1469.73 1141.25C1475.17 1146.17 1491.23 1156.19 1500.07 1160.33C1520.46 1169.89 1568.29 1203.25 1587.21 1207.27C1595.58 1209.05 1633.29 1184.43 1642.84 1179.05L1686.08 1154.24C1690.08 1151.94 1703.13 1145.01 1706.1 1142.55C1704.74 1138.56 1702.82 1137.96 1698.75 1135.96C1697.77 1135.48 1696.78 1135 1695.79 1134.54C1698.06 1132.72 1700.96 1131.58 1703.65 1130.27C1706.66 1132.25 1712.37 1135.25 1712.93 1139C1714.23 1147.7 1713.85 1156.83 1714.05 1165.57C1714.42 1182.21 1714.62 1185 1701.89 1195.88L1699.01 1191.49C1712.79 1184.02 1708.29 1163.09 1707.95 1149.1C1674.18 1169.48 1638.84 1188.58 1604.75 1208.52C1600.81 1210.83 1595.33 1213.01 1591.04 1214.67C1590.88 1227.19 1590.58 1239.7 1590.15 1252.21L1584.51 1252.38C1584.79 1240.85 1584.13 1226.53 1583.88 1214.81C1543.37 1194.87 1506.58 1169.83 1468.24 1149.03C1467.54 1157.94 1467.68 1169.19 1467.55 1178.29C1466.71 1183.48 1466.46 1184.21 1464.1 1188.91C1460.29 1182.89 1461.99 1165.99 1461.69 1158.41C1462.28 1151.06 1459.83 1140.59 1466.31 1135.27C1468.33 1133.6 1469.31 1131.94 1470.55 1130.06Z"/><path fill="#59626E" transform="scale(0.5 0.5)" d="M1709.9 1201.94C1714.54 1210.72 1714.45 1219.76 1714.29 1229.11C1713.54 1241.93 1717.48 1251.14 1705.08 1258.93C1681.83 1273.56 1658.22 1287.45 1634.37 1301.04C1623.45 1307.26 1595.16 1329.87 1582.65 1322.96L1584.11 1318.95C1583.61 1306.88 1585.2 1292.75 1584.69 1279.02C1586.83 1278.89 1588.25 1278.67 1590.39 1278.94C1609.6 1275.56 1682.97 1224.77 1708.57 1214.75C1709.17 1212.12 1709.08 1206.39 1709.9 1201.94Z"/><path fill="#343B42" transform="scale(0.5 0.5)" d="M1709.9 1201.94C1714.54 1210.72 1714.45 1219.76 1714.29 1229.11C1713.54 1241.93 1717.48 1251.14 1705.08 1258.93C1681.83 1273.56 1658.22 1287.45 1634.37 1301.04C1623.45 1307.26 1595.16 1329.87 1582.65 1322.96L1584.11 1318.95C1583.61 1306.88 1585.2 1292.75 1584.69 1279.02C1586.83 1278.89 1588.25 1278.67 1590.39 1278.94L1591.1 1318.49C1599.15 1314.78 1621 1301.88 1629.71 1296.77C1651.22 1284.12 1689.28 1265.92 1707.77 1250.02C1707.83 1238.25 1707.71 1226.48 1708.57 1214.75C1709.17 1212.12 1709.08 1206.39 1709.9 1201.94Z"/><path fill="#59626E" transform="scale(0.5 0.5)" d="M1467.94 1214.23C1478.35 1221.97 1490.84 1226.4 1500 1233.73L1500.98 1234.88C1511.58 1235.34 1560.35 1272.78 1584.69 1279.02C1585.2 1292.75 1583.61 1306.88 1584.11 1318.95C1565.8 1309.79 1542.87 1294.73 1524.72 1284.08C1511.91 1276.57 1477.88 1258.97 1467.93 1250.52L1467.94 1214.23Z"/><path fill="#343B42" transform="scale(0.5 0.5)" d="M1500.98 1234.88L1500.68 1237.07C1496.43 1241.2 1500.97 1235.5 1494.36 1236.29C1494.76 1238.7 1494.76 1237.55 1494.47 1239.72L1491.63 1238.39C1490.25 1242.66 1493.52 1245.05 1493.43 1251.52C1491.56 1255.26 1492.9 1253.92 1489.48 1255.91C1480.46 1256.1 1469.34 1242.15 1474.35 1232.63C1483.19 1226.45 1490.78 1232.61 1500 1233.73L1500.98 1234.88Z"/><path fill="#343B42" transform="scale(0.5 0.5)" d="M1504.5 1243.41C1517.69 1250.91 1525.93 1257.67 1516.19 1271.97C1504.49 1268.78 1494.43 1254.87 1504.5 1243.41Z"/><path fill="#E08640" transform="scale(0.5 0.5)" d="M1695.73 1199.58C1699.3 1201.74 1701.77 1202.75 1704.09 1206.06L1704.41 1208.51C1696.54 1215.08 1679.65 1223.99 1670.38 1229.45C1647.97 1242.64 1624.88 1254.73 1602.67 1268.31C1588.51 1277.83 1580.22 1273.09 1567.18 1264.74L1565.83 1264.62C1570.88 1260.17 1571.7 1259.5 1571.62 1252.71C1579.46 1256.39 1586.49 1260.18 1595.16 1256.57C1609.99 1250.4 1626.09 1239.9 1639.91 1231.68C1658.41 1220.8 1677.02 1210.1 1695.73 1199.58Z"/><path fill="#D48E57" transform="scale(0.5 0.5)" d="M1567.18 1264.74C1570.94 1265.26 1578.83 1267.52 1581.64 1267.3C1590.24 1266.65 1594.31 1266.71 1602.67 1268.31C1588.51 1277.83 1580.22 1273.09 1567.18 1264.74Z"/><path fill="#E08640" transform="scale(0.5 0.5)" d="M1502.79 1227.68C1495.42 1223.68 1474.82 1213.98 1472.38 1206.91C1477.18 1194.05 1507.11 1215.34 1513.67 1219.41C1510.79 1228.36 1510.06 1223.93 1502.79 1227.68Z"/><path fill="#D48E57" transform="scale(0.5 0.5)" d="M1546.37 1238.47C1555.14 1242.9 1563.17 1247.73 1571.62 1252.71C1571.7 1259.5 1570.88 1260.17 1565.83 1264.62C1557.05 1258.61 1544.08 1251.54 1534.56 1246.03C1539.3 1239.58 1539.22 1241.21 1546.37 1238.47Z"/><path fill="#D48E57" transform="scale(0.5 0.5)" d="M1513.67 1219.41C1523.92 1225.37 1536.52 1232.24 1546.37 1238.47C1539.22 1241.21 1539.3 1239.58 1534.56 1246.03C1524.78 1241.29 1512.19 1233.4 1502.79 1227.68C1510.06 1223.93 1510.79 1228.36 1513.67 1219.41Z"/><path fill="#423A32" transform="scale(0.5 0.5)" d="M1694.66 779.536L1701.24 778.927C1709.07 785.824 1737.17 814.745 1740.69 823.366C1740.06 830.964 1690.29 875.403 1681.3 884.19C1660.21 905.095 1638.78 925.646 1617 945.835C1612.06 950.428 1593.48 968.725 1588.57 971.12C1574.63 965.744 1536.41 921.187 1524.39 909.815C1520.12 905.77 1512.39 896.055 1507.22 892.761C1501.57 885.427 1488.18 872.502 1481.28 865.655C1478.51 854.25 1489.13 849.635 1496.48 842.702C1503.38 836.181 1510.46 825.935 1519.3 822.521C1532.93 823.601 1572.54 871.38 1585.76 883.523L1653.35 817.665C1665.92 805.417 1680.76 789.286 1694.66 779.536Z"/><path fill="#E08640" transform="scale(0.5 0.5)" d="M1696.87 785.658C1706.42 790.714 1726.66 815.034 1734.34 824.357C1715.92 844.217 1693.05 864.427 1673.47 883.463C1645.17 910.973 1616.92 939.051 1588.01 965.848C1567.71 946.847 1545.77 923.025 1526.36 902.854C1512.95 889.384 1499.78 875.672 1486.87 861.726C1498.48 848.962 1508.14 838.798 1521.28 827.56C1544.68 847.078 1562.62 871.636 1586.09 891.896C1623.61 858.006 1659.69 820.372 1696.87 785.658Z"/><path fill="#423A32" fill-opacity="0.8509804" transform="scale(0.5 0.5)" d="M966.43 466.074C968.168 468.331 969.627 470.384 969.747 473.295C970.33 487.523 970.079 502.392 970.048 516.608L969.86 598.331L969.526 841.238C972.868 839.367 976.905 836.949 980.257 835.267C972.969 844.154 974.148 840.257 966.67 844.504C963.262 847.52 961.44 847.652 956.807 847.641C959.236 846.303 961.066 845.111 963.36 843.605C965.137 840.716 964.519 780.326 964.532 771.072L964.298 623.861L964.008 560.992C963.959 553.546 964.28 535.044 963.027 528.648C959.749 528.108 959.223 528.849 955.774 530.094C958.502 526.167 959.439 524.477 964.392 524.149L966.15 525.835L966.856 525.081C968.252 516.112 967.272 475.608 966.43 466.074Z"/><path fill="#F4F4F2" fill-opacity="0.070588239" transform="scale(0.5 0.5)" d="M826.87 1492.25C834.533 1491.92 837.665 1493.06 842.919 1498.98C848.862 1505.66 849.657 1511.07 842.767 1516.72C830.02 1515.24 808.21 1504.15 826.87 1492.25Z"/><path fill="#343B42" fill-opacity="0.96078432" transform="scale(0.5 0.5)" d="M1085.72 1092.74C1096.11 1093.08 1092.32 1092.78 1099.51 1087.63L1103.19 1088.25L1103.15 1090.42C1109.54 1095.55 1139.9 1104.28 1146.84 1111.57C1146.99 1112.61 1147.14 1113.64 1147.29 1114.67C1139.95 1115 1140.39 1113.48 1134.94 1112.87C1132 1112.08 1123.08 1108.05 1119.76 1106.68C1108.44 1101.96 1097.1 1097.32 1085.72 1092.74Z"/><path fill="#F4F4F2" fill-opacity="0.1254902" transform="scale(0.5 0.5)" d="M1293.66 1416.7C1295.48 1417.13 1297.64 1418.13 1298.37 1419.79C1302.45 1429.14 1282.58 1437.28 1277.69 1439.43C1274.47 1438.62 1275.71 1439.52 1273.55 1437.28C1273.38 1428.82 1286.82 1420.51 1293.66 1416.7Z"/><path fill="#343B42" fill-opacity="0.94509804" transform="scale(0.5 0.5)" d="M1132.39 1145.16C1131.95 1140.9 1121.44 1133.78 1119.94 1126.67L1121.35 1125.43C1126.29 1126.03 1121.2 1127.47 1128.52 1130.6C1134.84 1135.42 1142.03 1144 1147.14 1150.21C1147.88 1153.09 1150.49 1158.01 1150.52 1159.73C1147.77 1157.99 1145.37 1155.95 1142.28 1155.02C1138.58 1152.77 1135.34 1148.51 1132.39 1145.16Z"/><path fill="#343B42" fill-opacity="0.83137256" transform="scale(0.5 0.5)" d="M1134.94 1112.87C1140.39 1113.48 1139.95 1115 1147.29 1114.67C1141.73 1118.92 1128.26 1122.51 1126.69 1127.81L1128.52 1130.6C1121.2 1127.47 1126.29 1126.03 1121.35 1125.43L1119.94 1126.67C1121.44 1133.78 1131.95 1140.9 1132.39 1145.16C1128.13 1142.64 1118.12 1129.72 1114.61 1125.32C1121.61 1121.68 1130.03 1119.04 1134.94 1112.87Z"/><path fill="#F4F4F2" fill-opacity="0.015686275" transform="scale(0.5 0.5)" d="M1481.28 865.655C1488.18 872.502 1501.57 885.427 1507.22 892.761C1497.42 891.37 1482.55 879.967 1479.59 869.978C1479.05 868.15 1480.22 867.353 1481.28 865.655Z"/><path fill="#D48E57" fill-opacity="0.94901961" transform="scale(0.5 0.5)" d="M675.149 1409.53C681.659 1409.55 689.813 1414.9 694.113 1419.57C696.3 1421.95 695.376 1423.74 694.894 1426.55C687.352 1426.05 673.688 1418.99 675.149 1409.53Z"/><path fill="#D48E57" fill-opacity="0.8509804" transform="scale(0.5 0.5)" d="M935.697 1310.34C940.846 1311.01 950.065 1315.9 952.865 1320.63C954.313 1323.08 953.063 1324.79 952.198 1327.16C948.061 1326.48 937.166 1321.64 934.837 1317.36C933.275 1314.49 934.494 1313.37 935.697 1310.34Z"/><path fill="#D48E57" fill-opacity="0.92941177" transform="scale(0.5 0.5)" d="M884.442 1532.47C888.791 1533.26 900.935 1538.46 903.785 1542.21C905.856 1544.93 904.922 1546 904.255 1549.16C899.617 1548.1 887.239 1543.09 884.394 1538.8C882.729 1536.29 883.688 1535.08 884.442 1532.47Z"/><path fill="#D48E57" fill-opacity="0.97647059" transform="scale(0.5 0.5)" d="M706.414 1427.4C712.108 1429.02 720.26 1432.51 724.144 1437.05C725.02 1440.98 725.242 1439.13 723.336 1442.78C717.164 1442.24 709.504 1439.67 705.577 1434.7C704.657 1430.36 704.759 1432 706.414 1427.4Z"/><path fill="#D48E57" fill-opacity="0.94509804" transform="scale(0.5 0.5)" d="M943.21 1565.57C949.023 1566.91 957.735 1571.19 961.705 1575.73C964.019 1578.38 963.318 1579.39 963.018 1582.55C957.913 1582.02 946.855 1576.85 943.486 1572.5C941.475 1569.9 942.501 1568.43 943.21 1565.57Z"/><path fill="#D48E57" fill-opacity="0.96078432" transform="scale(0.5 0.5)" d="M973.389 1583.8C979.751 1585.09 987.949 1587.79 992.726 1592.27C993.981 1595.98 993.913 1594.11 992.607 1598.08C985.422 1597.66 969.687 1593.63 973.389 1583.8Z"/><path fill="#D48E57" fill-opacity="0.94901961" transform="scale(0.5 0.5)" d="M913.017 1548.52C917.744 1549.46 929.419 1554.92 932.974 1558.77C935.345 1561.34 934.47 1562.65 934.088 1566.07C929.794 1565.39 917.955 1558.93 914.814 1555.45C912.205 1552.55 912.899 1552.09 913.017 1548.52Z"/><path fill="#D48E57" fill-opacity="0.91764706" transform="scale(0.5 0.5)" d="M586.749 1357.18C592.451 1358.13 601.064 1362.89 605.089 1367.54C606.146 1371.64 606.198 1369.6 604.456 1373.86C598.226 1370.88 586.484 1366.84 584.815 1359.95L586.749 1357.18Z"/><path fill="#D48E57" fill-opacity="0.94901961" transform="scale(0.5 0.5)" d="M616.19 1375.61C621.328 1375.79 630.526 1378.74 633.849 1383.15C635.772 1385.71 634.393 1387.83 633.59 1390.6C626.428 1388.9 614.288 1384.45 616.19 1375.61Z"/><path fill="#D48E57" fill-opacity="0.93333334" transform="scale(0.5 0.5)" d="M854.639 1515.14C860.968 1515.96 868.756 1520.82 873.304 1525.42C874.501 1529.17 874.348 1527.21 873.004 1531.51C868.054 1530.37 855.913 1524.36 853.742 1519.14C853.157 1517.73 854.057 1516.61 854.639 1515.14Z"/><path fill="#D48E57" fill-opacity="0.96078432" transform="scale(0.5 0.5)" d="M1200.91 1473.95C1203.97 1476.27 1203.72 1476.1 1203.85 1479.37C1200.81 1484.98 1193.1 1488.08 1187.31 1491.15C1184.46 1487.95 1184.99 1489.69 1184.72 1486.14C1187.9 1480.93 1195.41 1477.3 1200.91 1473.95Z"/><path fill="#D48E57" fill-opacity="0.94117647" transform="scale(0.5 0.5)" d="M557.577 1340.77C566.46 1342.97 576.771 1346.05 574.121 1356.66C567.562 1354 561.157 1352.23 556.763 1346.83C555.937 1342.88 555.843 1344.85 557.577 1340.77Z"/><path fill="#D48E57" fill-opacity="0.96470588" transform="scale(0.5 0.5)" d="M1171.1 1492.01C1172.99 1492.22 1173.26 1492.49 1175.09 1493.15L1175.93 1495.03C1173.96 1499.82 1163.29 1504.73 1158.61 1507.28C1156.01 1506.26 1155.99 1506.48 1154.49 1504.2L1155.07 1502.03C1159.52 1497.77 1165.59 1494.99 1171.1 1492.01Z"/><path fill="#D48E57" fill-opacity="0.9137255" transform="scale(0.5 0.5)" d="M961.806 1328.66C970.338 1328.73 982.603 1334.79 983.037 1344.46C975.248 1343.29 962.71 1337.29 961.806 1328.66Z"/><path fill="#D48E57" fill-opacity="0.95686275" transform="scale(0.5 0.5)" d="M1219.67 1246.67C1222.83 1247.65 1223.43 1247.8 1224.48 1250.49C1222.79 1255.08 1213.01 1259.1 1208.43 1261.4C1208.03 1261.44 1205.58 1261.06 1205.09 1261L1204.02 1259.4L1204.95 1256.57C1210.25 1251.25 1212.85 1249.9 1219.67 1246.67Z"/><path fill="#343B42" fill-opacity="0.80784315" transform="scale(0.5 0.5)" d="M1147.14 1150.21C1151.03 1153.52 1154.28 1156.39 1158.52 1159.28C1151.07 1164.27 1147.26 1167.01 1141.25 1173.99L1140.1 1171.11L1136.81 1169.94L1136.46 1167.97C1139.97 1166.75 1142.26 1165.32 1144.24 1162.14C1144.84 1157.91 1144.87 1159.49 1142.28 1155.02C1145.37 1155.95 1147.77 1157.99 1150.52 1159.73C1150.49 1158.01 1147.88 1153.09 1147.14 1150.21Z"/><path fill="#D48E57" fill-opacity="0.93333334" transform="scale(0.5 0.5)" d="M498.072 1304.52C503.818 1306.81 510.613 1310.5 514.765 1315.14C515.937 1319.01 516 1317.11 514.236 1321.03C509.127 1320.04 500.851 1316.02 497.878 1311.42C495.927 1308.4 496.971 1307.65 498.072 1304.52Z"/><path fill="#D48E57" fill-opacity="0.96470588" transform="scale(0.5 0.5)" d="M1078.64 1544.62C1081.31 1545.52 1081.19 1545.36 1082.86 1547.6L1082.45 1550C1078.93 1554.41 1073.45 1557.34 1068.59 1560.46C1064.88 1557.98 1064.27 1557.81 1065.34 1553.8C1068.66 1549.81 1074.02 1547.3 1078.64 1544.62Z"/><path fill="#D48E57" fill-opacity="0.9254902" transform="scale(0.5 0.5)" d="M757.02 1206.25C761.849 1207.4 771.987 1212.7 775.084 1216.87C776.723 1219.07 775.808 1220.45 775.177 1222.9C771.356 1221.83 760.851 1216.86 758.291 1213.57C755.854 1210.44 756.631 1210.02 757.02 1206.25Z"/><path fill="#D48E57" fill-opacity="0.89019608" transform="scale(0.5 0.5)" d="M992.243 1346.74C998.664 1346.56 1011.99 1353.23 1013.67 1359.88C1005.8 1362.52 993.638 1355.74 992.243 1346.74Z"/><path fill="#D48E57" fill-opacity="0.94901961" transform="scale(0.5 0.5)" d="M1126.72 1298.48C1129.48 1298.69 1128.94 1298.77 1131.66 1299.83C1134.75 1305.82 1122.02 1310.85 1117.46 1313.22C1116.01 1313.45 1115.66 1313.22 1114.13 1312.99L1113.6 1311.38C1114.78 1306.19 1122.33 1301.62 1126.72 1298.48Z"/><path fill="#D48E57" fill-opacity="0.96470588" transform="scale(0.5 0.5)" d="M1350.65 1386.67C1353.74 1386.76 1354.87 1387.06 1356.62 1389.25C1354.65 1395.09 1348.13 1397.35 1342.42 1400.27C1340.89 1400.47 1340.01 1400.2 1338.42 1400C1335.5 1394.37 1346.45 1389.19 1350.65 1386.67Z"/><path fill="#D48E57" fill-opacity="0.96862745" transform="scale(0.5 0.5)" d="M1139.01 1508.68L1142.25 1510.95C1145.16 1518.15 1135.08 1520.99 1129.46 1523.64C1128.79 1523.59 1127.18 1522.83 1126.47 1522.54C1124.06 1516.67 1134.63 1511.4 1139.01 1508.68Z"/><path fill="#D48E57" fill-opacity="0.95294118" transform="scale(0.5 0.5)" d="M1279.38 1211.87C1282.23 1211.83 1281.35 1211.86 1284.23 1212.86L1284.79 1214.78C1282.91 1219.88 1274.36 1223.48 1269.49 1225.94C1266.47 1226.8 1267.75 1227.08 1265.42 1225.96C1265.42 1219.4 1274.29 1215.05 1279.38 1211.87Z"/><path fill="#D48E57" fill-opacity="0.95686275" transform="scale(0.5 0.5)" d="M1018.14 1580.02C1020.74 1580.53 1020.58 1580.42 1022.41 1582.33L1022.09 1584.39C1018.49 1588.49 1012.28 1591.76 1007.47 1594.71C1004.61 1594.86 1005.66 1595.02 1003.01 1593.83C1001.94 1587.69 1013.47 1582.57 1018.14 1580.02Z"/><path fill="#D48E57" fill-opacity="0.93725491" transform="scale(0.5 0.5)" d="M905.569 1293.79C909.813 1294.73 919.325 1298.7 922.268 1302.42C924.212 1304.87 923.394 1305.63 922.781 1308.48C917.582 1308.19 906.818 1303.41 904.583 1298.12C903.958 1296.64 904.953 1295.37 905.569 1293.79Z"/><path fill="#D48E57" fill-opacity="0.95686275" transform="scale(0.5 0.5)" d="M1444.07 1333.9C1446.4 1334.76 1446.25 1334.84 1447.99 1336.68L1447.8 1338.8C1444.75 1342.4 1436.59 1346.34 1431.98 1348.93C1428.19 1348.08 1429.39 1349.11 1427.7 1346.46C1429.02 1341.72 1439.54 1336.57 1444.07 1333.9Z"/><path fill="#D48E57" fill-opacity="0.9137255" transform="scale(0.5 0.5)" d="M845.268 1259.65C851.416 1259.79 858.006 1263.26 862.32 1267.71C864.623 1270.08 863.945 1271.45 863.79 1274.52C855.604 1273.5 845.916 1268.74 845.268 1259.65Z"/><path fill="#D48E57" fill-opacity="0.93333334" transform="scale(0.5 0.5)" d="M727.397 1189.48C732.364 1190.09 743.072 1195.37 745.627 1199.94C746.384 1201.3 745.294 1202.93 744.747 1204.5C740.612 1203.91 728.409 1198.37 726.548 1194.11C725.945 1192.72 726.913 1191.01 727.397 1189.48Z"/><path fill="#D48E57" fill-opacity="0.95294118" transform="scale(0.5 0.5)" d="M1410.84 1351.96C1413.9 1352.34 1415.42 1352.58 1417.12 1355.09C1415.55 1358.7 1407.29 1362.64 1403.46 1364.78C1402.9 1365.21 1400.85 1365.95 1400.09 1366.26L1398.63 1365.62C1396.87 1358.35 1405.49 1354.82 1410.84 1351.96Z"/><path fill="#D48E57" fill-opacity="0.94901961" transform="scale(0.5 0.5)" d="M1260.68 1438.8C1264.52 1439.67 1264.32 1439.87 1265.9 1442.12C1263.96 1447.43 1255.82 1450.38 1250.41 1453.13C1248.04 1453.09 1247.36 1452.53 1246.31 1450.84C1247.65 1445.75 1256.02 1441.64 1260.68 1438.8Z"/><path fill="#D48E57" fill-opacity="0.93725491" transform="scale(0.5 0.5)" d="M1419.49 1140.64C1423.79 1141.59 1434.14 1146.93 1436.57 1150.77C1438.04 1153.08 1437.39 1152.01 1436.93 1155.74C1429.63 1154.95 1416.06 1150.14 1419.49 1140.64Z"/><path fill="#D48E57" fill-opacity="0.95294118" transform="scale(0.5 0.5)" d="M1068.87 1334.1C1071.08 1334.27 1070.67 1334.42 1072.84 1335.53L1073.05 1337.59C1069.62 1342.46 1061.76 1345.41 1056.26 1347.73C1052.94 1346.14 1053.95 1347.34 1052.58 1344.56C1054.57 1339.86 1064.03 1336.37 1068.87 1334.1Z"/><path fill="#D48E57" fill-opacity="0.95686275" transform="scale(0.5 0.5)" d="M1036.18 1352.01C1039.97 1352.19 1040.08 1352.46 1041.9 1354.35L1041.22 1356.67C1037.29 1360.79 1033.09 1362.64 1028.1 1365.28C1024.22 1365.55 1025.6 1366.21 1023.2 1364.42C1023.44 1358.2 1031.27 1354.43 1036.18 1352.01Z"/><path fill="#D48E57" fill-opacity="0.92941177" transform="scale(0.5 0.5)" d="M527.463 1322.59C531.844 1323.4 540.373 1328.39 543.547 1331.55C546.535 1334.53 545.868 1334.7 546.072 1338.57C537.197 1337.58 527.398 1332.61 527.463 1322.59Z"/><path fill="#D48E57" fill-opacity="0.98039216" transform="scale(0.5 0.5)" d="M1404.29 1140.88C1404.99 1141.23 1406.11 1142.43 1406.76 1143.05C1408.49 1149.93 1396.61 1152.58 1391.34 1154.42C1388.57 1152.39 1389.47 1153.67 1388.42 1150.54C1390.75 1145.32 1398.89 1143.01 1404.29 1140.88Z"/><path fill="#D48E57" fill-opacity="0.90980393" transform="scale(0.5 0.5)" d="M793.679 1479.6C801.633 1479.56 813.578 1484.87 812.68 1494.28C805.049 1493.48 795.108 1487.73 793.679 1479.6Z"/><path fill="#D48E57" fill-opacity="0.96470588" transform="scale(0.5 0.5)" d="M1340.66 1175.78C1343.32 1176.59 1343.18 1176.46 1344.89 1178.64L1344.41 1181.15C1340.87 1185.38 1335.51 1188.29 1330.78 1191.34C1327.82 1189.55 1327.28 1189.64 1326.74 1186.68C1328.9 1182.53 1336.39 1178.52 1340.66 1175.78Z"/><path fill="#D48E57" fill-opacity="0.94509804" transform="scale(0.5 0.5)" d="M1471.98 1316.53C1474.46 1316.49 1474.46 1316.72 1476.77 1317.76L1477.31 1319.57C1475.1 1324.49 1466.45 1328.43 1461.58 1330.99C1458.34 1331.12 1459.73 1331.56 1457.19 1329.99L1457.57 1327.78C1461.62 1323.37 1467.02 1320.01 1471.98 1316.53Z"/><path fill="#D48E57" fill-opacity="0.93333334" transform="scale(0.5 0.5)" d="M1097.76 1315.84C1101.49 1317.82 1100.53 1316.41 1101.72 1319.49C1100.06 1324.33 1092.02 1327.84 1087.45 1330.3C1085.05 1330.25 1085.83 1330.25 1083.44 1329.2L1082.99 1327.42C1085.36 1322.34 1092.86 1318.6 1097.76 1315.84Z"/><path fill="#D48E57" fill-opacity="0.93333334" transform="scale(0.5 0.5)" d="M786.58 1223.81C791.003 1225.33 800.077 1229.91 803.217 1233.47C805.357 1235.9 804.56 1236.69 804.103 1239.73C797.211 1238.26 783.622 1232.66 786.58 1223.81Z"/><path fill="#D48E57" fill-opacity="0.95294118" transform="scale(0.5 0.5)" d="M1228.06 1457.96C1231.72 1458.41 1231.82 1458.62 1233.47 1460.58C1231.83 1465.78 1226.55 1467.83 1221.74 1470.39C1217.75 1471.22 1219.59 1471.39 1216 1470.3L1215.77 1467.95C1219.18 1462.06 1222.07 1460.89 1228.06 1457.96Z"/><path fill="#D48E57" fill-opacity="0.96470588" transform="scale(0.5 0.5)" d="M1049.14 1561.72C1051.95 1562.77 1052.14 1563.63 1052.65 1566.14C1049.97 1571.7 1043.05 1574.35 1037.52 1577.1C1036.56 1576.1 1035.8 1575.03 1034.95 1573.92L1035.4 1571.8C1038.78 1567.43 1044.29 1564.69 1049.14 1561.72Z"/><path fill="#D48E57" fill-opacity="0.9137255" transform="scale(0.5 0.5)" d="M815.517 1240.84C819.94 1241.51 827.717 1246.22 830.816 1249.38C834.22 1252.85 833.802 1253.22 833.836 1257.42C828.61 1256.49 821.08 1251.56 817.522 1247.68C814.714 1244.62 815.328 1244.36 815.517 1240.84Z"/><path fill="#D48E57" fill-opacity="0.9137255" transform="scale(0.5 0.5)" d="M1189.05 1263.79C1190.19 1263.92 1191.62 1264.4 1192.77 1264.72L1193.78 1266.53C1192.44 1271.35 1183.95 1275.54 1179.54 1278.14C1175.34 1276.78 1176.53 1278.06 1174.85 1275.16C1176.53 1271.24 1185.07 1266.41 1189.05 1263.79Z"/><path fill="#D48E57" fill-opacity="0.94117647" transform="scale(0.5 0.5)" d="M1504.13 1297.85C1506.48 1298.17 1505.76 1298.13 1508 1299.5L1508.17 1301.65C1505.45 1306.53 1498.79 1309.48 1493.85 1311.91C1492.38 1312.16 1491.96 1311.93 1490.42 1311.72C1488.17 1306.47 1500.15 1300.38 1504.13 1297.85Z"/><path fill="#D48E57" fill-opacity="0.95294118" transform="scale(0.5 0.5)" d="M1310.29 1193.88C1312.83 1193.68 1312.34 1193.84 1314.96 1194.47L1315.85 1196.17C1314.17 1201.36 1306.59 1204.81 1301.86 1207.38C1298.38 1207.4 1299.76 1207.99 1297.38 1206.07C1298.45 1201.14 1305.91 1196.95 1310.29 1193.88Z"/><path fill="#D48E57" fill-opacity="0.9254902" transform="scale(0.5 0.5)" d="M1249.56 1230.04C1252.16 1230.12 1252.92 1230.42 1254.32 1232.21C1252.71 1236.99 1245.66 1240.03 1240.99 1242.71C1238.6 1243.05 1238.65 1242.88 1236.31 1242.1L1235.78 1240.4C1238.36 1235.33 1244.6 1232.46 1249.56 1230.04Z"/><path fill="#D48E57" fill-opacity="0.89019608" transform="scale(0.5 0.5)" d="M697.89 1172.02C705.229 1174.5 713.774 1178.39 714.947 1186.49C708.23 1186.63 695.196 1180.68 697.89 1172.02Z"/></svg>