<?xml version="1.0" encoding="utf-8" ?><svg xmlns="http://www.w3.org/2000/svg" xmlns:xlink="http://www.w3.org/1999/xlink" width="1024" height="1024" viewBox="0 0 1024 1024"><path fill="#576169" transform="scale(0.5 0.5)" d="M1038.91 746.613C1048.13 743.238 1056.62 741.223 1066.52 742.5C1080.62 744.183 1093.45 751.432 1102.17 762.631C1123.15 764.717 1131.58 775.057 1146.87 788.515C1167.17 803.73 1158.15 804.762 1167.03 822.373C1176.83 841.807 1172.26 849.016 1176.74 864.247C1185.59 870.953 1194.01 874.724 1202.85 880.308C1230.06 897.494 1277.05 919.153 1299.63 939.508C1300.26 943.717 1300.86 947.666 1301.29 951.914C1302.52 968.371 1302.48 981.821 1297.23 997.816C1293.86 1001.18 1290.54 1004.44 1287.33 1007.96C1287.36 1014.5 1288.36 1021.72 1288.38 1027.31C1288.4 1034.25 1279.13 1050.96 1270.78 1043.14C1264.58 1037.33 1265.94 1024.43 1262.3 1022.52C1256.95 1025.53 1249.67 1029.24 1245.28 1033.18C1245.5 1037.46 1245.76 1042.3 1246.69 1046.59C1251.52 1068.81 1226.19 1079.87 1223.63 1047.99C1218.59 1047.1 1210.82 1053.58 1204.97 1055.92L1201.12 1060.47C1205.39 1067.42 1206.72 1073.35 1204.92 1081.39C1202.26 1093.18 1187.78 1099.45 1181.57 1086.3C1179.32 1081.54 1179.79 1074.56 1179.62 1069.31C1172.04 1074.27 1166.67 1077.42 1158.66 1081.65C1160.25 1089.32 1160.86 1096.23 1161.66 1104.03C1158.04 1113.12 1154.8 1119.46 1143.99 1117.57C1135.65 1111.5 1143.44 1103.38 1137.02 1093.81C1127.95 1098.46 1118.64 1101.07 1118.48 1112.4C1118.81 1118.08 1119.78 1134.23 1115.54 1137.2C1090.23 1154.96 1097.88 1125.94 1095.26 1119.86C1088.17 1122.31 1080.38 1128.08 1073.7 1131.84C1033.29 1154.62 1018.87 1133.18 985.411 1119.85C982.182 1128.6 987.513 1153.65 967.212 1139.1C957.613 1132.22 965.058 1117.56 963.108 1107.67C955.48 1104.04 951.527 1098.5 943.052 1094.42C940.409 1100.82 943.233 1107.51 940.478 1115.26C937.897 1117.94 936.274 1118.19 932.458 1118.43C917.914 1119.35 920.199 1092.1 920.11 1083.72C914.155 1080.07 909.05 1076.14 902.553 1073.93C899.153 1075.22 901.76 1085.62 896.322 1092.37C885.348 1094.96 881.044 1089.81 876.117 1080.68C876.054 1073.86 876.91 1065.85 877.475 1058.95C872.127 1055.33 864.06 1050.96 858.05 1048.71C856.067 1056.34 858.863 1062.86 853.157 1068.56C844.822 1070.75 837.724 1063.15 834.124 1056.39C834.23 1049.25 834.258 1043.98 836.539 1037.23L834.271 1032.41C827.284 1029.07 823.202 1025.13 815.476 1022.47C815.403 1039.58 812.074 1052.06 794.525 1037.6C788.791 1024.39 796.315 1015.24 791.78 1006.01C775.646 993.637 779.571 961.22 779.933 942.429C806.096 912.107 857.718 896.41 889.655 871.314C894.935 867.165 894.188 865.087 894.729 858.775C898.305 845.402 903.574 839.852 913.56 831.213C916.323 807.512 921.871 797.545 943.766 787.218C944.117 786.554 944.478 785.896 944.851 785.244C954.156 769.043 964.303 765.218 980.92 760.882C997.254 742.396 1016.31 740.562 1038.91 746.613Z"/><path fill="#D38546" transform="scale(0.5 0.5)" d="M1038.91 746.613C1048.13 743.238 1056.62 741.223 1066.52 742.5C1080.62 744.183 1093.45 751.432 1102.17 762.631C1123.15 764.717 1131.58 775.057 1146.87 788.515L1147.38 796.65C1156.83 806.515 1162.72 815.507 1157.01 829.399C1155.68 833.979 1154.47 834.77 1155.98 837.961C1160.39 838.319 1160.96 834.747 1162.92 830.932C1167.72 834.82 1169.14 854.866 1168.66 861.303C1172.17 868.328 1172.81 859.745 1171.48 869.917C1170.84 873.552 1170.89 874.803 1168.71 877.84C1164.65 881.592 1162.7 883.103 1161.79 888.773C1165.15 890.526 1171.97 894.102 1174.24 896.979C1172.27 898.928 1171.34 900.382 1168.92 901.236C1166.43 905.744 1165.92 905.078 1165.89 909.562C1167.79 912.733 1170.54 914.532 1173.45 916.847L1172.61 928.817C1169.04 931.849 1164.58 934.758 1164.66 939.821C1164.88 953.06 1164.66 961.472 1148.82 961.787C1144.23 965.072 1144.87 968.142 1144.4 973.635C1133.13 979.91 1135.27 979.097 1121.74 975.926C1118.05 976.838 1117.25 977.662 1114.18 979.784C1108.34 976.542 1099.92 973.005 1097.17 967.266C1098 952.191 1091.12 958.134 1088.59 950.515C1088.59 945.557 1090.88 937.601 1090.04 935.581C1083.28 938.409 1080.53 940.117 1074.26 944C1052.91 962.463 1032.68 959.518 1009.84 946.198C983.655 955.885 960.42 952.292 943.448 928.395C915.495 924.591 917.944 918.221 905.335 896.439C900.223 882.368 894.307 873.195 894.729 858.775C898.305 845.402 903.574 839.852 913.56 831.213C916.323 807.512 921.871 797.545 943.766 787.218C944.117 786.554 944.478 785.896 944.851 785.244C954.156 769.043 964.303 765.218 980.92 760.882C997.254 742.396 1016.31 740.562 1038.91 746.613Z"/><path fill="#D38546" transform="scale(0.5 0.5)" d="M1038.91 746.613C1048.13 743.238 1056.62 741.223 1066.52 742.5C1080.62 744.183 1093.45 751.432 1102.17 762.631C1123.15 764.717 1131.58 775.057 1146.87 788.515L1147.38 796.65L1143.56 793.371L1142.06 793.783C1137.2 804.997 1141.75 824.171 1124.76 825.948C1125.18 820.338 1129.46 816.606 1132.02 811.037C1138.93 796.033 1136.46 780.262 1119.29 774.305C1104.85 766.751 1092.39 768.96 1077.38 771.999C1085.07 775.716 1088.1 776.408 1092.75 783.591C1082.59 783.231 1076.38 777.188 1066.3 776.678C1061.08 776.414 1041.76 780.823 1040.79 786.678L1038.99 787.819C1035.55 787.042 1036.44 786.902 1033.67 783.175C1010.54 792.519 1006.09 796.3 994.472 818.618C972.765 827.248 964.914 836.259 962.605 859.971C952.128 871.238 946.795 879.74 943.116 895.042L950.031 893.011C947.273 904.748 944.152 917.929 951.155 928.716C964.781 949.706 991.155 946.316 1010.89 939.064C1011.75 939.654 1012.61 940.237 1013.48 940.813C1025.81 948.938 1036.18 952.536 1051.15 949.215C1057.05 947.904 1063.16 945.709 1066.57 940.5L1066.23 938.933L1061.78 937.914C1067.16 937.436 1067.04 936.62 1071.33 938.493C1072.76 940.76 1073.33 941.46 1074.26 944C1052.91 962.463 1032.68 959.518 1009.84 946.198C983.655 955.885 960.42 952.292 943.448 928.395C915.495 924.591 917.944 918.221 905.335 896.439C900.223 882.368 894.307 873.195 894.729 858.775C898.305 845.402 903.574 839.852 913.56 831.213C916.323 807.512 921.871 797.545 943.766 787.218C944.117 786.554 944.478 785.896 944.851 785.244C954.156 769.043 964.303 765.218 980.92 760.882C997.254 742.396 1016.31 740.562 1038.91 746.613Z"/><path fill="#443D36" transform="scale(0.5 0.5)" d="M1038.91 746.613C1048.13 743.238 1056.62 741.223 1066.52 742.5C1080.62 744.183 1093.45 751.432 1102.17 762.631C1123.15 764.717 1131.58 775.057 1146.87 788.515L1147.38 796.65L1143.56 793.371L1142.06 793.783C1137.2 804.997 1141.75 824.171 1124.76 825.948C1125.18 820.338 1129.46 816.606 1132.02 811.037C1138.93 796.033 1136.46 780.262 1119.29 774.305C1104.85 766.751 1092.39 768.96 1077.38 771.999C1085.07 775.716 1088.1 776.408 1092.75 783.591C1082.59 783.231 1076.38 777.188 1066.3 776.678C1061.08 776.414 1041.76 780.823 1040.79 786.678L1038.99 787.819C1035.55 787.042 1036.44 786.902 1033.67 783.175C1048.66 770.567 1078.22 765.164 1097.26 763.418C1080.85 750.234 1067.45 745.725 1046.75 752.066L1051.94 756.139L1052.08 757.42C1042.42 762.962 1021.11 734.636 985.521 764.159C996.443 763.663 1004.52 763.394 1013.79 770.385C1018.26 773.748 1017.47 778.695 1014.03 782.322L1012.08 782.599C1009.57 779.711 1007.93 774.8 1006.42 771.138C984.32 768.97 967.55 764.127 952.174 784.2C960.349 785.981 964.744 786.896 973.007 787.517C977.544 785.343 983.6 781.417 988.456 783.966C987.335 788.361 981.21 789.212 977.12 790.393C979.288 794.856 982.914 800.346 980.927 805.227C976.456 805.482 973.94 798.37 972 794.712C944.881 782.043 928.742 799.624 920.331 824.126C928.043 822.006 935.147 819.312 942.973 820.989L944.562 822.323C943.991 828.154 933.121 826.557 929.012 827.816C915.068 832.087 905.019 847.033 902.201 860.812C898.086 881.176 907.297 887.913 916.909 903.784C919.575 908.186 921.637 913.459 924.168 917.295C930.494 920.502 934.945 921.615 941.741 923.602C941.844 913.081 941.98 905.609 943.116 895.042L950.031 893.011C947.273 904.748 944.152 917.929 951.155 928.716C964.781 949.706 991.155 946.316 1010.89 939.064C1011.75 939.654 1012.61 940.237 1013.48 940.813C1025.81 948.938 1036.18 952.536 1051.15 949.215C1057.05 947.904 1063.16 945.709 1066.57 940.5L1066.23 938.933L1061.78 937.914C1067.16 937.436 1067.04 936.62 1071.33 938.493C1072.76 940.76 1073.33 941.46 1074.26 944C1052.91 962.463 1032.68 959.518 1009.84 946.198C983.655 955.885 960.42 952.292 943.448 928.395C915.495 924.591 917.944 918.221 905.335 896.439C900.223 882.368 894.307 873.195 894.729 858.775C898.305 845.402 903.574 839.852 913.56 831.213C916.323 807.512 921.871 797.545 943.766 787.218C944.117 786.554 944.478 785.896 944.851 785.244C954.156 769.043 964.303 765.218 980.92 760.882C997.254 742.396 1016.31 740.562 1038.91 746.613Z"/><path fill="#4E3521" transform="scale(0.5 0.5)" d="M947.382 810.748C952.007 811.212 955.924 815.82 956.754 820.235C958.901 831.644 952.72 842.239 947.148 851.668L944.733 850.275C942.418 843.567 951.139 835.462 952.14 829.37C953.207 822.881 948.062 818.027 947.382 810.748Z"/><path fill="#4E3521" transform="scale(0.5 0.5)" d="M916.91 855.677C926.255 860.37 918.461 866.986 923.175 873.971C928.201 881.416 932.361 878.782 936.472 888.35C918.91 886.605 913.332 871.312 916.91 855.677Z"/><path fill="#443D36" transform="scale(0.5 0.5)" d="M1079.58 829.794C1094.8 843.247 1100.62 829.583 1115.66 852.864C1113.22 855.105 1112.4 855.751 1110.43 858.537C1110.89 863.61 1117.09 865.463 1118.89 871.551C1123.47 887.063 1111.93 884.317 1106.16 893.551C1103.92 897.131 1106.78 903.041 1111.28 904.794C1122.58 901.497 1115.84 884.854 1134.7 889.578C1139.28 890.723 1142.84 888.895 1146.99 886.984C1161.05 890.208 1166.36 872.033 1168.66 861.303C1172.17 868.328 1172.81 859.745 1171.48 869.917C1170.84 873.552 1170.89 874.803 1168.71 877.84C1164.65 881.592 1162.7 883.103 1161.79 888.773C1165.15 890.526 1171.97 894.102 1174.24 896.979C1172.27 898.928 1171.34 900.382 1168.92 901.236C1166.43 905.744 1165.92 905.078 1165.89 909.562C1167.79 912.733 1170.54 914.532 1173.45 916.847L1172.61 928.817C1169.04 931.849 1164.58 934.758 1164.66 939.821C1164.88 953.06 1164.66 961.472 1148.82 961.787C1144.23 965.072 1144.87 968.142 1144.4 973.635C1133.13 979.91 1135.27 979.097 1121.74 975.926C1118.05 976.838 1117.25 977.662 1114.18 979.784C1108.34 976.542 1099.92 973.005 1097.17 967.266C1098 952.191 1091.12 958.134 1088.59 950.515C1088.59 945.557 1090.88 937.601 1090.04 935.581C1083.28 938.409 1080.53 940.117 1074.26 944C1073.33 941.46 1072.76 940.76 1071.33 938.493C1067.04 936.62 1067.16 937.436 1061.78 937.914C1059.49 935.934 1058.29 933.308 1056.65 930.603C1053.47 932.602 1049.96 934.687 1046.95 936.87C1040.42 932.566 1029.06 925.987 1026.91 918.524C1030.49 900.378 1003.5 892.687 1034.24 875.052C1032.9 868.2 1032.14 864.94 1034.11 858.321C1040.23 852.856 1047.78 850.279 1053.86 845.645C1065.04 837.132 1066.04 833.431 1079.58 829.794Z"/><path fill="#CDD0D0" transform="scale(0.5 0.5)" d="M1074.94 846.635C1078.33 845.556 1082.05 844.695 1085.52 843.818C1085.69 847.601 1085.39 849.86 1087.44 853.016C1093.71 856.949 1101.15 851.557 1107.65 848.601C1094.42 878.313 1112.57 863.099 1113.57 878.982C1111.04 885.52 1101.89 884.999 1099.87 891.851C1097.59 899.542 1103.73 906.964 1097.9 913.296L1090.22 913.041C1085.83 912.858 1082.82 914.137 1079.25 916.77C1082.58 918.659 1085.48 919.755 1087.4 922.956C1084.88 927.488 1083.79 923.524 1081.99 929.062L1082.81 931.405C1085.87 931.457 1084.78 931.535 1087.8 930.516L1089.52 931.65L1090.04 935.581C1083.28 938.409 1080.53 940.117 1074.26 944C1073.33 941.46 1072.76 940.76 1071.33 938.493C1067.04 936.62 1067.16 937.436 1061.78 937.914C1059.49 935.934 1058.29 933.308 1056.65 930.603C1052.73 929.638 1050.67 928.954 1047.93 926.213C1045.45 927.321 1046.72 927.324 1044.05 926.441L1043.52 924.38C1046.21 919.935 1047.98 917.527 1047.62 912.42C1043.22 902.759 1038.35 908.269 1034.73 899.481C1043.58 886.387 1052.75 894.719 1049.08 869.82C1047.88 861.653 1062.6 864.539 1071.35 858.711L1072.48 857.948L1074.94 846.635Z"/><path fill="#3C3C3B" transform="scale(0.5 0.5)" d="M1079.25 916.77C1082.58 918.659 1085.48 919.755 1087.4 922.956C1084.88 927.488 1083.79 923.524 1081.99 929.062L1082.81 931.405C1085.87 931.457 1084.78 931.535 1087.8 930.516L1089.52 931.65L1090.04 935.581C1083.28 938.409 1080.53 940.117 1074.26 944C1073.33 941.46 1072.76 940.76 1071.33 938.493C1067.04 936.62 1067.16 937.436 1061.78 937.914C1059.49 935.934 1058.29 933.308 1056.65 930.603C1052.73 929.638 1050.67 928.954 1047.93 926.213C1052.7 922.251 1057.62 923.515 1064.08 923.798C1065.32 927.03 1065.5 927.877 1067.7 930.673C1070.77 931.846 1069.3 931.882 1072.24 930.719C1075.83 926.624 1077.21 921.894 1079.25 916.77Z"/><path fill="#3C3C3B" transform="scale(0.5 0.5)" d="M1055.7 905.707C1053.28 900.16 1053.02 888.075 1055.69 882.938C1074.5 846.701 1118.25 870.487 1083.51 906.285C1072.79 914.247 1065.71 913.806 1055.7 905.707Z"/><path fill="#CDD0D0" transform="scale(0.5 0.5)" d="M1066.06 904.699C1089.81 892.317 1081.82 879.825 1086.46 873.121L1088.32 873.491C1096.41 881.538 1083.11 897.461 1077.08 903.677C1072.75 905.571 1070.65 906.947 1066.06 904.699Z"/><path fill="#384146" transform="scale(0.5 0.5)" d="M1077.08 903.677L1083.51 906.285C1072.79 914.247 1065.71 913.806 1055.7 905.707C1059.83 905.083 1061.91 904.816 1066.06 904.699C1070.65 906.947 1072.75 905.571 1077.08 903.677Z"/><path fill="#C98959" transform="scale(0.5 0.5)" d="M1077.14 870.695L1079.17 871.813C1084.33 881.805 1071.24 895.243 1063.55 900.225C1057.12 896.462 1060.76 887.409 1063.8 882.621C1067.99 876.006 1070.2 873.926 1077.14 870.695Z"/><path fill="#384146" transform="scale(0.5 0.5)" d="M1080.25 836.976C1082.91 839.502 1084.25 840.349 1085.52 843.818C1082.05 844.695 1078.33 845.556 1074.94 846.635L1072.48 857.948L1071.35 858.711C1062.6 864.539 1047.88 861.653 1049.08 869.82C1052.75 894.719 1043.58 886.387 1034.73 899.481C1034.29 898.913 1033.15 898.414 1032.41 898.002C1030.75 893.109 1031.22 892.847 1026.73 891.008L1025.3 888.977L1025.85 886.444C1028.24 883.946 1028.09 884.146 1031.5 883.408C1036.26 882.005 1036.61 882.055 1039.89 878.566C1036.76 875.05 1036.41 874.373 1037.65 870.156C1042.26 867.531 1049.33 859.71 1050.57 854.444C1052.26 854.391 1054.6 854.522 1056.35 854.564C1060.71 851.357 1061.34 850.78 1064.59 846.464L1065.26 841.906C1071.04 838.252 1073.45 836.947 1080.25 836.976Z"/><path fill="#CDD0D0" transform="scale(0.5 0.5)" d="M1039.89 878.566L1041.65 877.326L1043.47 878.206C1045.08 883.079 1043.04 886.508 1038.17 887.496C1034.26 886.203 1034.47 886.294 1031.5 883.408C1036.26 882.005 1036.61 882.055 1039.89 878.566Z"/><path fill="#CDD0D0" transform="scale(0.5 0.5)" d="M1064.59 846.464C1067.82 849.397 1066.98 847.68 1067.78 851.47C1065.44 857.176 1061.38 858.126 1056.35 854.564C1060.71 851.357 1061.34 850.78 1064.59 846.464Z"/><path fill="#F5F9F7" transform="scale(0.5 0.5)" d="M1065.26 841.906C1071.04 838.252 1073.45 836.947 1080.25 836.976C1076.31 841.574 1071.31 843.922 1065.26 841.906Z"/><path fill="#CDD0D0" transform="scale(0.5 0.5)" d="M1161.79 888.773C1165.15 890.526 1171.97 894.102 1174.24 896.979C1172.27 898.928 1171.34 900.382 1168.92 901.236C1164.7 896.523 1160.6 896.691 1158.93 891.964L1161.79 888.773Z"/><path fill="#CDD0D0" transform="scale(0.5 0.5)" d="M1050.57 854.444C1049.33 859.71 1042.26 867.531 1037.65 870.156C1039.48 862.167 1043.64 858.524 1050.57 854.444Z"/><path fill="#CDD0D0" transform="scale(0.5 0.5)" d="M1026.73 891.008C1031.22 892.847 1030.75 893.109 1032.41 898.002C1029.76 900.656 1031.26 900.003 1028.11 900.695C1026.36 898.373 1026.78 894.169 1026.73 891.008Z"/><path fill="#D38546" transform="scale(0.5 0.5)" d="M1134.99 900.199C1137.56 900.623 1141.53 904.342 1145.07 905.981C1149.46 906.278 1155.18 902.988 1159.5 901.029L1158.87 906.498C1156.87 922.675 1163.94 916.384 1166.76 921.985C1166.22 924.054 1165.37 925.572 1163.7 926.828C1151.68 935.848 1162.59 943.366 1157.22 951.164C1153.55 952.989 1150.14 952.254 1145.91 951.987C1141.03 958.149 1139.23 962.781 1135.95 969.906C1135.02 970.747 1135.7 970.245 1133.61 970.872C1132.23 969.36 1130.84 967.865 1129.42 966.388C1123.57 964.993 1117.44 969.223 1112.04 972.052L1113.36 967.568C1116.59 956.762 1113.45 956.338 1105.23 950.231C1112.03 937.362 1115.25 938.597 1112.96 924.492C1116.15 916.35 1122.04 918.765 1127.73 914.066C1132.81 909.861 1129.27 906.576 1134.99 900.199Z"/><path fill="#443D36" transform="scale(0.5 0.5)" d="M1135.11 914.999C1136.73 914.939 1138.36 914.932 1139.98 914.978C1158.99 915.574 1153.28 935.969 1145.35 945.685C1141.48 950.435 1139.35 952.259 1134.54 955.846C1132.49 956.203 1130.39 956.319 1128.31 956.193C1111.42 955.144 1118.39 933.142 1124.57 924.883C1128.23 919.988 1130.31 918.454 1135.11 914.999Z"/><path fill="#CDD0D0" transform="scale(0.5 0.5)" d="M1136.16 920.604C1145.21 924.717 1131.4 939.476 1127.53 943.348C1125.75 943.699 1126.67 943.649 1124.61 942.688C1123.22 934.252 1130.4 925.854 1136.16 920.604Z"/><path fill="#D38546" transform="scale(0.5 0.5)" d="M1144.61 924.714C1153.8 933.727 1136.68 946.889 1129.68 951.01C1128.8 950.695 1129.41 950.977 1128.19 949.635C1136.72 939.814 1140.2 945.798 1144.61 924.714Z"/><path fill="#CDD0D0" transform="scale(0.5 0.5)" d="M1037.36 911.439C1039.15 912.801 1038.7 912.57 1040.05 914.524C1040.46 917.976 1038.96 919.649 1037.17 922.721C1035.12 920.94 1035.26 920.878 1034 918.428C1034.02 915.19 1035.37 914.057 1037.36 911.439Z"/><path fill="#4E3521" transform="scale(0.5 0.5)" d="M994.472 818.618C1006.09 796.3 1010.54 792.519 1033.67 783.175C1036.44 786.902 1035.55 787.042 1038.99 787.819L1040.79 786.678C1051.31 789.932 1068.51 801.005 1062.63 813.831L1060.96 814.163C1057.66 811.413 1056.98 807.086 1055.69 802.803C1033.77 782.596 1009.62 793.363 1000.26 819.331C1006.42 823.193 1014.75 828.78 1021.13 831.755L1032.09 827.089C1033.59 823.674 1034.61 820.394 1037.43 818.058C1040.23 819.206 1039.09 818.271 1040.61 821.309C1039.43 828.33 1032.23 831.764 1027.93 836.076C1026.3 837.71 1031.14 838.552 1030.76 844.743L1029.07 845.705C1025.62 844.43 1024.4 842.163 1022.47 838.725C1010.69 834.437 1006.41 827.008 995.93 824.063C985.601 829.383 967.831 842.464 967.455 855.145C969.956 857.668 972.247 857.052 975.472 855.945C991.182 848.976 1014.15 852.526 1012.86 873.728L1011.83 875.5C1009.73 874.646 1008.93 873.124 1007.71 871.138C998.571 856.349 994.622 857.697 978.063 860.48C960.071 868.528 956.072 874.11 950.031 893.011L943.116 895.042C946.795 879.74 952.128 871.238 962.605 859.971C964.914 836.259 972.765 827.248 994.472 818.618Z"/><path fill="#C98959" transform="scale(0.5 0.5)" d="M1056.65 930.603C1058.29 933.308 1059.49 935.934 1061.78 937.914L1066.23 938.933L1066.57 940.5C1063.16 945.709 1057.05 947.904 1051.15 949.215C1036.18 952.536 1025.81 948.938 1013.48 940.813C1012.61 940.237 1011.75 939.654 1010.89 939.064C1020.12 940.123 1028.24 944.753 1037.24 946.962C1044.03 948.627 1058.4 948.287 1059.64 939.371L1057.86 937.415C1053.9 935.817 1052.88 936.26 1048.39 936.714L1046.95 936.87C1049.96 934.687 1053.47 932.602 1056.65 930.603Z"/><path fill="#4E3521" transform="scale(0.5 0.5)" d="M984.763 893.47C988.687 896.67 989.005 901.906 989.087 906.786C989.311 920.122 1005.08 913.975 1012.19 919.789L1010.94 921.353C1003.95 924.538 1002.2 924.129 994.536 922.701L986.169 916.821C980.407 917.211 968.481 918.842 965.733 912.463L967.313 910.328C973.805 908.825 975.492 913.898 980.965 910.953C982.937 907.922 983.919 898.108 984.763 893.47Z"/><path fill="#4E3521" transform="scale(0.5 0.5)" d="M1124.46 839.422C1132.47 840.644 1131.77 845.897 1139.19 849.419C1144.05 849.662 1144.59 847.078 1149.34 846.205C1150.01 851.137 1140.73 857.7 1138.26 865.968C1135.83 869.814 1134.11 872.867 1129.52 873.662L1127.82 872.138C1127.69 869.137 1129.96 866.238 1131.85 863.769C1139.91 853.282 1126.99 851.614 1124.46 839.422Z"/><path fill="#4E3521" transform="scale(0.5 0.5)" d="M1094.89 787.185C1094.82 793.884 1093.8 795.13 1089.42 800.326C1092.42 803.951 1095.57 807.937 1098.68 811.421C1103.16 810.179 1107.24 808.375 1111.46 809.649L1112.67 811.078C1111.4 814.196 1112.4 812.974 1109.49 814.81C1104.35 815.091 1103.92 814.293 1100.21 816.666C1098.9 820.79 1098.78 822.965 1098.28 827.315C1094.94 826.765 1096.45 827.408 1093.71 825.031C1092.5 821.555 1093.3 818.829 1093.81 815.123C1086.68 805.242 1081.09 795.221 1094.89 787.185Z"/><path fill="#F5F9F7" transform="scale(0.5 0.5)" d="M849.552 945.733C838.867 932.271 857.196 924.337 866.471 918.737C879.224 911.037 892.235 903.536 905.335 896.439C917.944 918.221 915.495 924.591 943.448 928.395C960.42 952.292 983.655 955.885 1009.84 946.198C1032.68 959.518 1052.91 962.463 1074.26 944C1080.53 940.117 1083.28 938.409 1090.04 935.581C1090.88 937.601 1088.59 945.557 1088.59 950.515C1091.12 958.134 1098 952.191 1097.17 967.266C1099.92 973.005 1108.34 976.542 1114.18 979.784C1117.25 977.662 1118.05 976.838 1121.74 975.926C1135.27 979.097 1133.13 979.91 1144.4 973.635C1144.87 968.142 1144.23 965.072 1148.82 961.787C1164.66 961.472 1164.88 953.06 1164.66 939.821C1164.58 934.758 1169.04 931.849 1172.61 928.817L1173.45 916.847C1170.54 914.532 1167.79 912.733 1165.89 909.562C1165.92 905.078 1166.43 905.744 1168.92 901.236C1171.34 900.382 1172.27 898.928 1174.24 896.979C1188.03 904.064 1229.34 923.294 1234.45 937.244C1233.54 940.39 1232.96 942.705 1230.23 944.712C1219.84 952.357 1208.2 958.673 1196.97 965.054C1156.2 988.224 1115.75 1012.49 1075.22 1036.04C1061.78 1043.85 1040.8 1052.18 1025.9 1046.06C1009.56 1039.36 992.044 1028.27 976.701 1019.39L882.718 964.688C873.518 959.311 858.771 948.53 849.552 945.733Z"/><path fill="#384146" transform="scale(0.5 0.5)" d="M1013.99 965.156L1027.13 972.114L1026.56 972.666C1015.43 983.674 1005.3 1001.57 997.815 1015.5C994.03 1013.67 989.675 1010.65 986.069 1008.32L992.198 999.076L984.669 994.049C980.862 991.796 976.567 989.609 972.639 987.508C967.66 988.69 962.405 989.768 957.387 990.872C953.921 988.938 949.926 986.291 946.5 984.156C968.34 979.773 992.89 972.01 1013.99 965.156Z"/><path fill="#CDD0D0" transform="scale(0.5 0.5)" d="M1004.29 977.033L1005.4 977.377C1006.41 982.664 1003.04 987.177 998.409 989.485C994.114 989.535 995.517 989.578 991.299 986.922L985.621 983.048L1004.29 977.033Z"/><path fill="#384146" transform="scale(0.5 0.5)" d="M1052.19 986.142L1063.99 992.519C1047.53 1000.82 1029.01 1012.73 1013.4 1022.52C1010.09 1022.97 1004.55 1018.92 1001.6 1017.08C1015.07 1006.96 1037.08 994.866 1052.19 986.142Z"/><path fill="#576169" transform="scale(0.5 0.5)" d="M785.233 961.352C800.685 973.084 820.526 983.791 837.506 993.565L910.392 1035.53C930.035 1046.68 949.56 1058.04 968.964 1069.6C989.201 1081.55 1014.61 1099.16 1037.98 1101.26L1038.02 1135.07C1007.8 1128.81 1011.65 1124.28 988.563 1113.88C987.567 1117.01 987.69 1117.4 985.411 1119.85C982.182 1128.6 987.513 1153.65 967.212 1139.1C957.613 1132.22 965.058 1117.56 963.108 1107.67C955.48 1104.04 951.527 1098.5 943.052 1094.42C940.409 1100.82 943.233 1107.51 940.478 1115.26C937.897 1117.94 936.274 1118.19 932.458 1118.43C917.914 1119.35 920.199 1092.1 920.11 1083.72C914.155 1080.07 909.05 1076.14 902.553 1073.93C899.153 1075.22 901.76 1085.62 896.322 1092.37C885.348 1094.96 881.044 1089.81 876.117 1080.68C876.054 1073.86 876.91 1065.85 877.475 1058.95C872.127 1055.33 864.06 1050.96 858.05 1048.71C856.067 1056.34 858.863 1062.86 853.157 1068.56C844.822 1070.75 837.724 1063.15 834.124 1056.39C834.23 1049.25 834.258 1043.98 836.539 1037.23L834.271 1032.41C827.284 1029.07 823.202 1025.13 815.476 1022.47C815.403 1039.58 812.074 1052.06 794.525 1037.6C788.791 1024.39 796.315 1015.24 791.78 1006.01C794.624 1004.65 794.505 1004.42 796.596 1001.95C792.635 997.858 789.985 994.981 786.357 990.522C786.067 981.347 786.003 970.366 785.233 961.352Z"/><path fill="#3C3C3B" transform="scale(0.5 0.5)" d="M856.143 1016.51C868.471 1023.41 876.007 1027.67 862.445 1039.84L861.131 1041.03C868.945 1046.06 874.015 1048.68 882.409 1052.81C880.49 1055.69 878.221 1057.74 878.599 1060.29C880.843 1061.04 881.087 1061.2 883.414 1061.39C888.183 1055.91 893.188 1049.91 901.026 1050.59C904.879 1052.77 903.274 1051.33 905.735 1055.37L904.697 1057.69C896.145 1063.74 893.079 1066.89 894.596 1077.74C895.955 1084.08 896.069 1085.94 896.322 1092.37C885.348 1094.96 881.044 1089.81 876.117 1080.68C876.054 1073.86 876.91 1065.85 877.475 1058.95C872.127 1055.33 864.06 1050.96 858.05 1048.71C856.067 1056.34 858.863 1062.86 853.157 1068.56C844.822 1070.75 837.724 1063.15 834.124 1056.39C834.23 1049.25 834.258 1043.98 836.539 1037.23L834.271 1032.41L837.524 1032.21C840.968 1029.87 839.837 1030.86 841.789 1026.72C846.338 1020.95 849.46 1019.66 856.143 1016.51Z"/><path fill="#443D36" transform="scale(0.5 0.5)" d="M848.988 1027.11C856.549 1024.84 858.254 1024.01 864.904 1028.6C862.788 1034.18 858.766 1042.63 857.267 1047.67L858.05 1048.71C856.067 1056.34 858.863 1062.86 853.157 1068.56C844.822 1070.75 837.724 1063.15 834.124 1056.39C834.23 1049.25 834.258 1043.98 836.539 1037.23C840.879 1032.22 843.008 1029.95 848.988 1027.11Z"/><path fill="#D38546" transform="scale(0.5 0.5)" d="M848.988 1027.11C856.549 1024.84 858.254 1024.01 864.904 1028.6C862.659 1030.52 851.512 1039.22 850.948 1040.8C849.282 1045.47 850.41 1055.99 847.009 1060.41L845.112 1060.28C838.112 1053.98 840.461 1045.31 841.222 1036.64C844.811 1032.87 846.114 1031.42 848.988 1027.11Z"/><path fill="#D38546" transform="scale(0.5 0.5)" d="M883.414 1061.39C888.183 1055.91 893.188 1049.91 901.026 1050.59C904.879 1052.77 903.274 1051.33 905.735 1055.37L904.697 1057.69C896.145 1063.74 893.079 1066.89 894.596 1077.74C894.09 1081.27 894.059 1081.11 892.448 1084.33C889.098 1086.58 890.827 1086.17 887.291 1086.25C881.331 1082.24 883.08 1067.74 883.414 1061.39Z"/><path fill="#443D36" transform="scale(0.5 0.5)" d="M894.596 1077.74C893.079 1066.89 896.145 1063.74 904.697 1057.69C905.019 1060.99 905.607 1062.83 904.739 1065.85C912.09 1070.19 919.089 1072.21 925.389 1077.27C930.877 1072.91 937.211 1066.89 944.417 1068.59C957.501 1071.68 956.25 1082.99 946.304 1089.27C945.213 1091.07 944.236 1092.67 943.052 1094.42C940.409 1100.82 943.233 1107.51 940.478 1115.26C937.897 1117.94 936.274 1118.19 932.458 1118.43C917.914 1119.35 920.199 1092.1 920.11 1083.72C914.155 1080.07 909.05 1076.14 902.553 1073.93C899.153 1075.22 901.76 1085.62 896.322 1092.37C896.069 1085.94 895.955 1084.08 894.596 1077.74Z"/><path fill="#D38546" transform="scale(0.5 0.5)" d="M936.562 1074.96C941.291 1074.97 942.337 1074.67 946.486 1076.55C947.723 1078.82 947.588 1080.1 944.97 1082.05C935.129 1089.36 935.909 1097.5 935.091 1109.82C931.801 1111.2 930.581 1110.13 928.021 1108.34C924.456 1101.74 926.428 1092.06 927.168 1084.45L936.562 1074.96Z"/><path fill="#443D36" transform="scale(0.5 0.5)" d="M967.584 1101.27C974.322 1093.88 986.654 1089.08 995.68 1094.98C1002.34 1104.52 992.622 1108.09 988.563 1113.88C987.567 1117.01 987.69 1117.4 985.411 1119.85C982.182 1128.6 987.513 1153.65 967.212 1139.1C957.613 1132.22 965.058 1117.56 963.108 1107.67C965.613 1105.11 966.279 1104.7 967.584 1101.27Z"/><path fill="#D38546" transform="scale(0.5 0.5)" d="M980.495 1097.75C984.597 1098.14 986.383 1098.18 989.678 1100.41C992.581 1106.91 984.424 1110.52 979.65 1113.24C978.046 1121.83 977.938 1125.43 977.852 1134.26C966.005 1138.22 968.597 1117.25 968.894 1110.87C972.788 1104.13 974.656 1102.52 980.495 1097.75Z"/><path fill="#443D36" transform="scale(0.5 0.5)" d="M796.596 1001.95C807.647 993.373 811.253 989.845 824.295 997.483C824.206 1000.94 824.64 1003.27 822.467 1005.79L819.962 1008.08C818.172 1012.2 815.771 1017.03 814.936 1021.34L815.476 1022.47C815.403 1039.58 812.074 1052.06 794.525 1037.6C788.791 1024.39 796.315 1015.24 791.78 1006.01C794.624 1004.65 794.505 1004.42 796.596 1001.95Z"/><path fill="#D38546" transform="scale(0.5 0.5)" d="M807.619 1016.94C807.986 1023.23 809.608 1031.71 804.026 1035.77C786.721 1030.17 806.556 984.752 822.467 1005.79L819.962 1008.08C813.894 1011.09 812.577 1012.24 807.619 1016.94Z"/><path fill="#384146" transform="scale(0.5 0.5)" d="M824.295 997.483C838.035 1013.27 808.417 1015.49 841.789 1026.72C839.837 1030.86 840.968 1029.87 837.524 1032.21L834.271 1032.41C827.284 1029.07 823.202 1025.13 815.476 1022.47L814.936 1021.34C815.771 1017.03 818.172 1012.2 819.962 1008.08L822.467 1005.79C824.64 1003.27 824.206 1000.94 824.295 997.483Z"/><path fill="#443D36" transform="scale(0.5 0.5)" d="M894.862 1044.11C898.315 1044.86 901.856 1045.31 905.356 1045.84C905.514 1048.42 905.929 1052.98 905.735 1055.37C903.274 1051.33 904.879 1052.77 901.026 1050.59C893.188 1049.91 888.183 1055.91 883.414 1061.39C881.087 1061.2 880.843 1061.04 878.599 1060.29C878.221 1057.74 880.49 1055.69 882.409 1052.81C885.867 1050.66 891.381 1046.55 894.862 1044.11Z"/><path fill="#384146" transform="scale(0.5 0.5)" d="M943.052 1094.42C944.236 1092.67 945.213 1091.07 946.304 1089.27C952.367 1092.77 961.487 1098.41 967.584 1101.27C966.279 1104.7 965.613 1105.11 963.108 1107.67C955.48 1104.04 951.527 1098.5 943.052 1094.42Z"/><path fill="#384146" transform="scale(0.5 0.5)" d="M905.356 1045.84C909.815 1049.08 910.399 1050.42 913.505 1054.96C910.138 1059.89 909.023 1061.48 904.739 1065.85C905.607 1062.83 905.019 1060.99 904.697 1057.69L905.735 1055.37C905.929 1052.98 905.514 1048.42 905.356 1045.84Z"/><path fill="#576169" transform="scale(0.5 0.5)" d="M1294.83 961.219C1295.15 978.986 1297.9 988.494 1283.73 1001.83C1284.88 1003.62 1286.67 1006.06 1287.33 1007.96C1287.36 1014.5 1288.36 1021.72 1288.38 1027.31C1288.4 1034.25 1279.13 1050.96 1270.78 1043.14C1264.58 1037.33 1265.94 1024.43 1262.3 1022.52C1256.95 1025.53 1249.67 1029.24 1245.28 1033.18C1245.5 1037.46 1245.76 1042.3 1246.69 1046.59C1251.52 1068.81 1226.19 1079.87 1223.63 1047.99C1218.59 1047.1 1210.82 1053.58 1204.97 1055.92L1201.12 1060.47C1205.39 1067.42 1206.72 1073.35 1204.92 1081.39C1202.26 1093.18 1187.78 1099.45 1181.57 1086.3C1179.32 1081.54 1179.79 1074.56 1179.62 1069.31C1172.04 1074.27 1166.67 1077.42 1158.66 1081.65C1160.25 1089.32 1160.86 1096.23 1161.66 1104.03C1158.04 1113.12 1154.8 1119.46 1143.99 1117.57C1135.65 1111.5 1143.44 1103.38 1137.02 1093.81C1127.95 1098.46 1118.64 1101.07 1118.48 1112.4C1118.81 1118.08 1119.78 1134.23 1115.54 1137.2C1090.23 1154.96 1097.88 1125.94 1095.26 1119.86L1095.08 1118.79L1091.79 1114.34C1071.91 1124.31 1067.03 1130.58 1044.08 1134.75C1043.96 1123.81 1044.19 1112.44 1044.28 1101.46C1049.33 1100.85 1058.25 1099.43 1062.61 1097.23C1079.92 1088.55 1097.05 1078.01 1113.8 1068.23L1188.04 1025.27L1248.51 990.036C1264.45 980.753 1280 972.28 1294.83 961.219Z"/><path fill="#443D36" transform="scale(0.5 0.5)" d="M1176.76 1057.58C1176.09 1055.03 1176.52 1054.09 1177 1051.47C1182.22 1045.57 1189.15 1052.87 1194.31 1055.59C1198.51 1057.18 1198.35 1056.99 1201.12 1060.47C1205.39 1067.42 1206.72 1073.35 1204.92 1081.39C1202.26 1093.18 1187.78 1099.45 1181.57 1086.3C1179.32 1081.54 1179.79 1074.56 1179.62 1069.31C1172.04 1074.27 1166.67 1077.42 1158.66 1081.65C1160.25 1089.32 1160.86 1096.23 1161.66 1104.03C1158.04 1113.12 1154.8 1119.46 1143.99 1117.57C1135.65 1111.5 1143.44 1103.38 1137.02 1093.81C1136.93 1088.48 1134.56 1085.48 1132.21 1080.66C1131.54 1077.67 1131.5 1077.74 1131.72 1074.71C1138.71 1068.79 1144.95 1072.02 1153.16 1074.06C1158.98 1078.3 1171.36 1068.55 1175.01 1063.93L1174.71 1062.43L1172.69 1062.31C1174.94 1060.57 1175.09 1059.93 1176.76 1057.58Z"/><path fill="#D38546" transform="scale(0.5 0.5)" d="M1131.72 1074.71C1161.34 1071.73 1159.46 1107.62 1147.56 1109.32C1142.44 1104.72 1148.45 1088.33 1132.21 1080.66C1131.54 1077.67 1131.5 1077.74 1131.72 1074.71Z"/><path fill="#D38546" transform="scale(0.5 0.5)" d="M1176.76 1057.58C1176.09 1055.03 1176.52 1054.09 1177 1051.47C1182.22 1045.57 1189.15 1052.87 1194.31 1055.59C1197.63 1062.79 1204.19 1079.76 1192.7 1083.49C1183.99 1078.87 1189.96 1060.63 1176.76 1057.58Z"/><path fill="#D38546" transform="scale(0.5 0.5)" d="M1091.79 1114.34C1080.92 1104.03 1078.75 1099.73 1092.71 1090.98C1103.85 1090.94 1105.8 1092.87 1113.15 1100.97L1112.57 1103.42C1117.06 1106.75 1116.98 1106.78 1118.48 1112.4C1118.81 1118.08 1119.78 1134.23 1115.54 1137.2C1090.23 1154.96 1097.88 1125.94 1095.26 1119.86L1095.08 1118.79L1091.79 1114.34Z"/><path fill="#3C3C3B" transform="scale(0.5 0.5)" d="M1091.79 1114.34C1080.92 1104.03 1078.75 1099.73 1092.71 1090.98C1103.85 1090.94 1105.8 1092.87 1113.15 1100.97L1112.57 1103.42L1108.43 1104.81C1103.64 1100.57 1102.73 1099.86 1097.03 1097.03C1094.18 1098.35 1092.96 1098.59 1091.24 1101.23C1091.67 1107.5 1098.1 1109.43 1101.99 1114.35C1102.03 1121.85 1101.35 1129.57 1103.91 1136.42L1103.64 1137.37L1102.16 1137.61C1099.12 1132.55 1102.35 1122.19 1098 1117.7L1095.08 1118.79L1091.79 1114.34Z"/><path fill="#443D36" transform="scale(0.5 0.5)" d="M1112.57 1103.42C1117.06 1106.75 1116.98 1106.78 1118.48 1112.4C1118.81 1118.08 1119.78 1134.23 1115.54 1137.2C1090.23 1154.96 1097.88 1125.94 1095.26 1119.86L1095.08 1118.79L1098 1117.7C1102.35 1122.19 1099.12 1132.55 1102.16 1137.61L1103.64 1137.37L1103.91 1136.42L1106.51 1135.99C1116.37 1128.88 1112.46 1114.18 1108.43 1104.81L1112.57 1103.42Z"/><path fill="#443D36" transform="scale(0.5 0.5)" d="M1260.88 1013.8C1257.65 1011.58 1254.09 1008.86 1253.24 1004.81C1252.75 1002.51 1253.42 1000.11 1255.04 998.394C1263.18 989.631 1276.27 994.932 1283.73 1001.83C1284.88 1003.62 1286.67 1006.06 1287.33 1007.96C1287.36 1014.5 1288.36 1021.72 1288.38 1027.31C1288.4 1034.25 1279.13 1050.96 1270.78 1043.14C1264.58 1037.33 1265.94 1024.43 1262.3 1022.52L1264.45 1022.21L1265.12 1020.63C1263.49 1018.55 1262.98 1017.92 1261.76 1015.54L1260.88 1013.8Z"/><path fill="#D38546" transform="scale(0.5 0.5)" d="M1264.61 998.781C1283.41 1000.72 1289.31 1024.9 1278.01 1037.02C1267.4 1038.11 1273.41 1023.68 1272.12 1017.79C1270.82 1011.84 1264.3 1010.37 1260.47 1005.33C1260.9 1001.54 1261.33 1002.27 1264.61 998.781Z"/><path fill="#443D36" transform="scale(0.5 0.5)" d="M1217.98 1037.29C1207.27 1034.07 1208.29 1026.73 1215.79 1020.54C1218.03 1021.67 1222.32 1023.21 1223.54 1023.88L1229.04 1025.92L1234.22 1021.48C1237.03 1023.71 1238.09 1024.41 1240.39 1027.27C1242.23 1030.2 1242.52 1030.94 1245.28 1033.18C1245.5 1037.46 1245.76 1042.3 1246.69 1046.59C1251.52 1068.81 1226.19 1079.87 1223.63 1047.99C1223.83 1043.59 1223.92 1043.72 1222.7 1039.55C1220.06 1036.82 1221.61 1037.49 1217.98 1037.29Z"/><path fill="#D38546" transform="scale(0.5 0.5)" d="M1223.54 1023.88L1229.04 1025.92C1240.16 1031.82 1244.32 1055.5 1234.99 1059.08C1229.79 1054.95 1230.58 1043.63 1227.83 1038.16C1226.04 1034.58 1218.45 1032.35 1216.92 1028C1218.48 1025.32 1220.55 1025.01 1223.54 1023.88Z"/><path fill="#384146" transform="scale(0.5 0.5)" d="M1133.46 1088.46C1113.62 1074.84 1132.65 1058.17 1153.16 1074.06C1144.95 1072.02 1138.71 1068.79 1131.72 1074.71C1131.5 1077.74 1131.54 1077.67 1132.21 1080.66C1134.56 1085.48 1136.93 1088.48 1137.02 1093.81C1127.95 1098.46 1118.64 1101.07 1118.48 1112.4C1116.98 1106.78 1117.06 1106.75 1112.57 1103.42L1113.15 1100.97C1117.18 1099.18 1129.16 1091.19 1133.46 1088.46Z"/><path fill="#3C3C3B" transform="scale(0.5 0.5)" d="M1172.69 1062.31C1166.38 1055.7 1170.05 1047.72 1177.18 1043.81C1184.06 1040.05 1193.44 1047.9 1200.35 1051C1202.64 1055.32 1201.45 1054.73 1204.97 1055.92L1201.12 1060.47C1198.35 1056.99 1198.51 1057.18 1194.31 1055.59C1189.15 1052.87 1182.22 1045.57 1177 1051.47C1176.52 1054.09 1176.09 1055.03 1176.76 1057.58C1175.09 1059.93 1174.94 1060.57 1172.69 1062.31Z"/><path fill="#384146" transform="scale(0.5 0.5)" d="M1217.98 1037.29C1221.61 1037.49 1220.06 1036.82 1222.7 1039.55C1223.92 1043.72 1223.83 1043.59 1223.63 1047.99C1218.59 1047.1 1210.82 1053.58 1204.97 1055.92C1201.45 1054.73 1202.64 1055.32 1200.35 1051C1205.79 1046.7 1216.11 1042.88 1217.98 1037.29Z"/><path fill="#384146" transform="scale(0.5 0.5)" d="M1260.88 1013.8L1261.76 1015.54C1262.98 1017.92 1263.49 1018.55 1265.12 1020.63L1264.45 1022.21L1262.3 1022.52C1256.95 1025.53 1249.67 1029.24 1245.28 1033.18C1242.52 1030.94 1242.23 1030.2 1240.39 1027.27C1247.35 1022.34 1253.61 1019.48 1260.88 1013.8Z"/><path fill="#3C3C3B" transform="scale(0.5 0.5)" d="M1215.79 1020.54C1223.77 1016.62 1226.6 1016.73 1234.22 1021.48L1229.04 1025.92L1223.54 1023.88C1222.32 1023.21 1218.03 1021.67 1215.79 1020.54Z"/><path fill="#443D36" transform="scale(0.5 0.5)" d="M1234.45 937.244L1234.67 938.119C1237.44 948.88 1237.8 945.713 1239.74 959.447C1240.03 961.793 1240.28 965.214 1238.74 967.185C1234.78 972.241 1085.5 1058.93 1071.41 1065.82C1062.26 1070.29 1052.2 1074.16 1041.98 1075.03C1033.62 1075.74 1025.96 1074.36 1018.26 1071.01C1000.72 1063.37 979.911 1049.33 962.83 1039.48C933.234 1022.59 903.844 1005.35 874.665 987.751C864.943 981.862 853.342 975.146 844.296 968.321C841.121 965.927 841.14 957.956 841.003 954.008C843.102 949.313 845.219 948.551 849.552 945.733C858.771 948.53 873.518 959.311 882.718 964.688L976.701 1019.39C992.044 1028.27 1009.56 1039.36 1025.9 1046.06C1040.8 1052.18 1061.78 1043.85 1075.22 1036.04C1115.75 1012.49 1156.2 988.224 1196.97 965.054C1208.2 958.673 1219.84 952.357 1230.23 944.712C1232.96 942.705 1233.54 940.39 1234.45 937.244Z"/><path fill="#D38546" transform="scale(0.5 0.5)" d="M1232.65 951.015C1237.13 959.033 1232.2 965.598 1225.14 969.555C1171.88 999.429 1120.08 1031.75 1066.39 1060.88C1040.41 1074.98 1024.23 1067.83 1000.53 1053.81C950.674 1024.32 899.411 996.584 850.462 965.61C847.781 962.496 846.486 959.743 846.708 955.844L848.583 954.56C858.032 954.875 876.162 967.763 885.692 973.349L953.804 1013.15C1044.46 1066.56 1031.37 1067.99 1121.03 1016.02L1232.65 951.015Z"/><path fill="#384146" transform="scale(0.5 0.5)" d="M779.933 942.429C806.096 912.107 857.718 896.41 889.655 871.314C894.935 867.165 894.188 865.087 894.729 858.775C894.307 873.195 900.223 882.368 905.335 896.439C892.235 903.536 879.224 911.037 866.471 918.737C857.196 924.337 838.867 932.271 849.552 945.733C845.219 948.551 843.102 949.313 841.003 954.008C839.694 925.288 842.885 924.887 867.659 910.616C878.289 904.493 889.841 897.815 900.561 891.662C898.283 886.464 896.689 883.329 893.974 878.388C870.324 888.492 845.173 906.193 823.125 919.335C806.097 929.484 766.496 943.67 798.687 962.897C813.348 971.654 827.818 980.052 842.488 988.561L921.67 1034.37C949.198 1050.1 976.48 1067.17 1004.14 1082.69C1044.69 1105.45 1058.5 1092.34 1093.4 1072.23L1148.56 1040.34L1230.34 992.66C1247.91 982.517 1265.77 972.578 1283.08 962.019C1291.49 956.892 1292.83 955.96 1295.01 946.586L1296.46 947.999L1297.17 950.425L1301.29 951.914C1302.52 968.371 1302.48 981.821 1297.23 997.816C1293.86 1001.18 1290.54 1004.44 1287.33 1007.96C1286.67 1006.06 1284.88 1003.62 1283.73 1001.83C1297.9 988.494 1295.15 978.986 1294.83 961.219C1280 972.28 1264.45 980.753 1248.51 990.036L1188.04 1025.27L1113.8 1068.23C1097.05 1078.01 1079.92 1088.55 1062.61 1097.23C1058.25 1099.43 1049.33 1100.85 1044.28 1101.46C1044.19 1112.44 1043.96 1123.81 1044.08 1134.75C1067.03 1130.58 1071.91 1124.31 1091.79 1114.34L1095.08 1118.79L1095.26 1119.86C1088.17 1122.31 1080.38 1128.08 1073.7 1131.84C1033.29 1154.62 1018.87 1133.18 985.411 1119.85C987.69 1117.4 987.567 1117.01 988.563 1113.88C1011.65 1124.28 1007.8 1128.81 1038.02 1135.07L1037.98 1101.26C1014.61 1099.16 989.201 1081.55 968.964 1069.6C949.56 1058.04 930.035 1046.68 910.392 1035.53L837.506 993.565C820.526 983.791 800.685 973.084 785.233 961.352C786.003 970.366 786.067 981.347 786.357 990.522C789.985 994.981 792.635 997.858 796.596 1001.95C794.505 1004.42 794.624 1004.65 791.78 1006.01C775.646 993.637 779.571 961.22 779.933 942.429Z"/><path fill="#3C3C3B" transform="scale(0.5 0.5)" d="M1146.87 788.515C1167.17 803.73 1158.15 804.762 1167.03 822.373C1176.83 841.807 1172.26 849.016 1176.74 864.247C1185.59 870.953 1194.01 874.724 1202.85 880.308C1230.06 897.494 1277.05 919.153 1299.63 939.508C1300.26 943.717 1300.86 947.666 1301.29 951.914L1297.17 950.425L1296.46 947.999L1295.01 946.586C1276.43 926.334 1240.44 910.329 1216.5 895.77C1203.86 888.08 1184.57 875.451 1171.48 869.917C1172.81 859.745 1172.17 868.328 1168.66 861.303C1169.14 854.866 1167.72 834.82 1162.92 830.932C1160.96 834.747 1160.39 838.319 1155.98 837.961C1154.47 834.77 1155.68 833.979 1157.01 829.399C1162.72 815.507 1156.83 806.515 1147.38 796.65L1146.87 788.515Z"/><path fill="#384146" transform="scale(0.5 0.5)" d="M1161.79 888.773C1162.7 883.103 1164.65 881.592 1168.71 877.84L1167.32 883.077C1174.6 894.518 1230.95 914.203 1237.9 929.822C1241.1 937.034 1240.02 951.039 1239.74 959.447C1237.8 945.713 1237.44 948.88 1234.67 938.119L1234.45 937.244C1229.34 923.294 1188.03 904.064 1174.24 896.979C1171.97 894.102 1165.15 890.526 1161.79 888.773Z"/><path fill="#F5F9F7" transform="scale(0.5 0.5)" d="M361.506 570.875C376.81 555.394 437.066 526.238 458.445 513.659C470.145 506.776 485.476 498.429 497.628 491.42C500.765 489.61 502.069 489.658 505.299 490.711C509.383 494.757 506.043 500.812 510.972 502.721C512.133 502.293 516.066 500.76 517.008 500.689C531.721 499.571 521.661 528.028 528.65 532.154C532.531 531.541 534.574 529.495 537.781 527.131C550.319 525.107 572.452 550.676 584.091 556.926C586.212 565.722 585.588 761.687 584.749 763.426C583.232 766.569 575.454 770.977 572.331 772.884C559.935 780.452 546.582 786.606 533.962 793.836C515.298 804.529 434.593 854.765 419.521 857.402C418.146 857.643 417.292 857.316 416.315 856.38C410.277 850.601 410.784 836.624 410.223 828.721C399.834 835.724 397.089 837.263 385.074 840.648C382.352 838.846 374.779 830.925 375.295 831.007C357.909 828.243 362.112 819.536 362.028 798.18L361.6 751.781L361.506 570.875Z"/><path fill="#384146" transform="scale(0.5 0.5)" d="M361.506 570.875C376.81 555.394 437.066 526.238 458.445 513.659C470.145 506.776 485.476 498.429 497.628 491.42C500.765 489.61 502.069 489.658 505.299 490.711C509.383 494.757 506.043 500.812 510.972 502.721C512.133 502.293 516.066 500.76 517.008 500.689C531.721 499.571 521.661 528.028 528.65 532.154C532.531 531.541 534.574 529.495 537.781 527.131C539.068 530.542 539.042 530.475 539.353 534.113C521.296 544.374 502.092 555.632 483.802 565.27C460.286 577.663 440.152 587.011 418.165 602.275C418.21 685.863 419.845 769.518 418.113 853.055L521.09 794.417C539.449 783.951 561.83 772.126 579.12 760.808C580.554 743.86 580.281 567.848 578.812 565.767L576.895 565.039L576.302 562.534C578.152 559.436 580.543 558.883 584.091 556.926C586.212 565.722 585.588 761.687 584.749 763.426C583.232 766.569 575.454 770.977 572.331 772.884C559.935 780.452 546.582 786.606 533.962 793.836C515.298 804.529 434.593 854.765 419.521 857.402C418.146 857.643 417.292 857.316 416.315 856.38C410.277 850.601 410.784 836.624 410.223 828.721C399.834 835.724 397.089 837.263 385.074 840.648C382.352 838.846 374.779 830.925 375.295 831.007C357.909 828.243 362.112 819.536 362.028 798.18L361.6 751.781L361.506 570.875Z"/><path fill="#CDD0D0" transform="scale(0.5 0.5)" d="M517.68 506.889C520.182 512.58 519.116 531.016 518.964 538.128C497.939 551.289 421.196 587.361 412.05 602.483C411.492 674.587 411.482 746.694 412.02 818.798C403.638 824.004 395.069 828.9 386.328 833.477C383.362 830.403 384.942 775.413 384.95 767.445L385.032 657.019C385.111 632.205 385.725 607.422 384.959 582.625C397.5 573.751 419.115 562.577 433.076 554.727L517.68 506.889Z"/><path fill="#F5F9F7" transform="scale(0.5 0.5)" d="M499.396 497.915L500.191 498.028C501.761 500.116 503.226 506.882 501.269 508.234C465.245 533.113 414.03 552.53 380.297 579.269C377.573 599.422 377.881 628.668 377.687 649.366C377.366 687.111 377.318 724.857 377.543 762.603C377.68 779.97 378.432 800.405 377.699 817.965C377.597 820.407 374.074 821.722 371.467 823.343L369.917 823.844L368.458 822.808C366.636 814.994 367.912 771.314 367.877 760.846C367.5 698.157 367.531 635.467 367.971 572.779C378.986 564.907 398.511 554.874 410.903 547.835L499.396 497.915Z"/><path fill="#3C3C3B" transform="scale(0.5 0.5)" d="M537.781 527.131C550.319 525.107 572.452 550.676 584.091 556.926C580.543 558.883 578.152 559.436 576.302 562.534L576.895 565.039C531.387 597.596 541.838 567.11 539.464 535.504L539.353 534.113C539.042 530.475 539.068 530.542 537.781 527.131Z"/><path fill="#D38546" transform="scale(0.5 0.5)" d="M546.056 536.401C552.386 540.096 570.277 554.037 576.128 558.906L565.16 564.051C558.766 567.368 552.627 570.253 546.091 573.287C545.74 560.348 545.618 549.323 546.056 536.401Z"/><path fill="#98A1A3" transform="scale(0.5 0.5)" d="M557.822 673.878C560.021 675.683 559.235 674.567 560.07 677.464C556.306 685.915 455.99 738.615 441.325 745.374C440.918 744.908 439.702 742.958 439.316 742.365C442.313 733.732 543.49 681.373 557.822 673.878Z"/><path fill="#98A1A3" transform="scale(0.5 0.5)" d="M555.858 712.863C559.242 714.511 558.148 713.299 559.799 716.051C554.386 725.183 458.86 775.702 443.151 784.122C441.045 784.012 441.745 784.047 439.692 783.062L439.401 781.187C444.524 772.139 540.268 721.398 555.858 712.863Z"/><path fill="#98A1A3" transform="scale(0.5 0.5)" d="M556.928 634.899C559.996 636.801 560.299 638.139 559.323 641.231C551.914 647.693 520.536 663.466 510.159 669.309C487.862 681.864 465.403 695.321 442.353 706.252C441.69 706.102 440.145 705.386 439.448 705.091L438.914 703.089C443.218 695.888 543.388 642.342 556.928 634.899Z"/><path fill="#98A1A3" transform="scale(0.5 0.5)" d="M555.602 693.917C557.734 694.116 556.841 694.054 558.988 695.567L559.156 697.874C553.426 706.088 458.774 756.211 444.251 764.119C440.927 763.673 442.179 764.474 440.085 762.269L440.472 759.836C446.226 752.857 539.099 702.579 555.602 693.917Z"/><path fill="#98A1A3" transform="scale(0.5 0.5)" d="M555.649 596.962C558.466 597.142 557.122 596.824 559.568 598.432L559.504 600.511C552.922 608.795 458.202 659.88 443.311 666.787L440.637 666.684L439.141 664.941C441.362 658.673 459.815 650.264 466.302 646.464C495.66 629.268 525.751 613.209 555.649 596.962Z"/><path fill="#98A1A3" transform="scale(0.5 0.5)" d="M556.651 654.951L559.165 655.891L560.003 657.967C557.076 665.86 456.311 718.421 442.266 725.611C439.334 724.03 440.406 725.152 438.987 722.083C439.802 720.189 439.921 719.425 441.973 718.314C480.332 697.544 517.743 674.676 556.651 654.951Z"/><path fill="#98A1A3" transform="scale(0.5 0.5)" d="M554.596 616.909C557.835 616.691 558.089 616.872 560.035 618.855C557.586 626.567 457.183 679.219 443.352 686.618C440.804 686.758 442.021 687.016 439.711 685.795L439.297 683.767C444.128 675.889 540.965 624.416 554.596 616.909Z"/><path fill="#98A1A3" transform="scale(0.5 0.5)" d="M515.621 754.898C517.907 756.946 518.267 757.805 517.698 760.46C507.253 769.625 454.707 798.038 441.44 804.043C439.202 802.111 439.956 803.264 439.055 800.487C442.079 793.719 504.065 761.115 515.621 754.898Z"/><path fill="#98A1A3" transform="scale(0.5 0.5)" d="M509.751 592.853C512.993 595.633 512.303 594.001 512.727 597.508C506.597 604.55 453.604 632.066 442.292 638.107C440.114 637.395 441.147 637.89 439.435 635.928L439.747 633.971C446.416 626.085 498.138 599.184 509.751 592.853Z"/><path fill="#443D36" transform="scale(0.5 0.5)" d="M871.456 1361.02C891.358 1364.26 963.714 1412.51 983.883 1424.66C985.973 1443.77 988.317 1471.47 987.553 1490.35C959.96 1507.15 932.883 1525.53 905.948 1542.91C889.245 1553.68 845.071 1584.91 828.103 1589.7C803.216 1583.46 790.473 1563.14 761.489 1557.85C759.428 1559.11 757.218 1560.4 754.842 1560.77C743.563 1562.56 734.799 1568.76 725.478 1575.15C712.711 1583.27 684.13 1606.4 669.8 1604.43C663.792 1603.6 658.944 1599.78 655.54 1594.92C651.796 1589.57 648.152 1581.79 649.533 1575.09C652.616 1560.16 700.673 1534.31 714.591 1525.35C701.308 1516.79 672.255 1506.65 670.201 1490.66C675.736 1478.58 768.035 1424.44 787.056 1412.24C805.45 1400.44 852.692 1368.07 871.456 1361.02Z"/><path fill="#C98959" transform="scale(0.5 0.5)" d="M830.617 1410.41C855.57 1406.48 889.139 1414.48 909.056 1430.53C926.175 1444.32 935.413 1465.53 919.367 1484.37C902.886 1503.73 878.32 1509.22 854.079 1511.6C826.271 1513.57 797.477 1508.77 774.432 1491.95C755.151 1477.88 749.456 1457.45 765.64 1438C781.032 1419.5 807.577 1412.72 830.617 1410.41Z"/><path fill="#443D36" transform="scale(0.5 0.5)" d="M811.169 1418.5C822.651 1416.96 834.114 1415.13 845.701 1415.97C866.604 1416.46 890.136 1421.1 905.148 1437.37C919.99 1453.45 918.29 1472.91 901.535 1488.89C870.354 1518.64 767.39 1512.57 768.39 1457.56C768.632 1444.26 786.624 1426.94 799.104 1423.13C802.81 1421.67 807.787 1420.18 811.169 1418.5Z"/><path fill="#C98959" transform="scale(0.5 0.5)" d="M838.961 1421.54C851.865 1421.45 861.813 1421.78 874.086 1426.47C869.849 1426.67 868.387 1425.97 865.559 1428C866.269 1430.65 866.585 1430.57 868.573 1432.58C850.068 1430.35 824.162 1428.91 806.498 1435.3C797.728 1438.47 789.873 1442.17 780.378 1445.35C794.675 1428.04 807.646 1426.25 828.192 1422.11C831.233 1421.96 836.094 1421.88 838.961 1421.54Z"/><path fill="#D38546" transform="scale(0.5 0.5)" d="M868.573 1432.58C866.585 1430.57 866.269 1430.65 865.559 1428C868.387 1425.97 869.849 1426.67 874.086 1426.47C893.936 1433.03 898.708 1436.79 910.661 1453.78C896.122 1442.41 886.998 1436.1 868.573 1432.58Z"/><path fill="#4E3521" transform="scale(0.5 0.5)" d="M811.169 1418.5C822.651 1416.96 834.114 1415.13 845.701 1415.97C844.473 1419.58 843.312 1419.32 838.961 1421.54C836.094 1421.88 831.233 1421.96 828.192 1422.11C820.966 1421.53 814.924 1424.72 810.619 1421.49L811.169 1418.5Z"/><path fill="#F5F9F7" transform="scale(0.5 0.5)" d="M806.56 1440.82C837.763 1432.9 868.601 1433.56 896.927 1450.05C927.531 1467.86 895.575 1486.54 878.42 1495.61C875.438 1496.96 874.383 1497.73 871.081 1497.63L859.72 1500.54C856.318 1500.95 847.153 1502.45 844.346 1501.15C834.545 1501.19 824.418 1499.2 814.834 1497.35C802.443 1492.54 784.927 1485.79 777.436 1474.36C768.138 1460.18 787.281 1450.52 796.58 1445.24L806.56 1440.82Z"/><path fill="#F5F9F7" transform="scale(0.5 0.5)" d="M796.58 1445.24L806.56 1440.82C808.487 1445.89 808.572 1446.23 808.028 1451.45C829.457 1467.22 854.823 1477.81 878.42 1495.61C875.438 1496.96 874.383 1497.73 871.081 1497.63L859.72 1500.54C856.318 1500.95 847.153 1502.45 844.346 1501.15C834.545 1501.19 824.418 1499.2 814.834 1497.35C802.443 1492.54 784.927 1485.79 777.436 1474.36C768.138 1460.18 787.281 1450.52 796.58 1445.24Z"/><path fill="#98A1A3" transform="scale(0.5 0.5)" d="M802.605 1456.78C804.306 1452.21 803.759 1452.71 808.028 1451.45C829.457 1467.22 854.823 1477.81 878.42 1495.61C875.438 1496.96 874.383 1497.73 871.081 1497.63C868.131 1494 811.259 1462.65 802.605 1456.78Z"/><path fill="#98A1A3" transform="scale(0.5 0.5)" d="M831.046 1492.64C821.078 1487.16 792.328 1472.05 786.09 1464.18L786.22 1462.71C800.662 1459.74 840.164 1495.13 859.72 1500.54C856.318 1500.95 847.153 1502.45 844.346 1501.15C839.686 1496.8 836.603 1495.46 831.046 1492.64Z"/><path fill="#CDD0D0" transform="scale(0.5 0.5)" d="M831.046 1492.64C836.603 1495.46 839.686 1496.8 844.346 1501.15C834.545 1501.19 824.418 1499.2 814.834 1497.35C823.41 1494.76 824.77 1498.42 831.046 1492.64Z"/><path fill="#CDD0D0" transform="scale(0.5 0.5)" d="M796.58 1445.24L806.56 1440.82C808.487 1445.89 808.572 1446.23 808.028 1451.45C803.759 1452.71 804.306 1452.21 802.605 1456.78C802.949 1453.39 803.667 1452.73 803.611 1448.66C801.396 1446.02 800.548 1446.51 796.58 1445.24Z"/><path fill="#98A1A3" transform="scale(0.5 0.5)" d="M816.325 1443.07C818.105 1442.95 822.606 1442.6 823.913 1443.34C835.344 1449.76 889.356 1475.43 891.916 1485.98C891.076 1486.17 888.46 1486.79 887.502 1486.31C864.796 1474.96 841.899 1460.31 819.667 1447.59C818.233 1446.77 816.882 1444.13 816.325 1443.07Z"/><path fill="#98A1A3" transform="scale(0.5 0.5)" d="M839.247 1438.05C853.817 1439.3 900.189 1461.68 903.866 1475.56C893.853 1473.5 848.091 1445.6 839.247 1438.05Z"/><path fill="#F5F9F7" transform="scale(0.5 0.5)" d="M873.431 1367.18C894.029 1377.72 914.967 1390.67 934.96 1402.47C946.078 1409.03 965.896 1419.9 975.936 1427.66C924.539 1455.4 933.418 1462.67 980.891 1487.39C934.844 1515.85 890.368 1547.02 844.532 1575.84C839.649 1578.92 834.151 1582.16 828.923 1584.59C818.956 1579.56 770.54 1553.63 765.87 1546.68C764.127 1536.35 775.647 1531.86 783.373 1528.08C813.343 1539.35 841.03 1546.24 872.717 1538.4C895.062 1532.87 923.288 1521.08 930.742 1497.15C953.354 1424.58 883.583 1399.94 826.931 1404.4C825.114 1400.69 824.786 1400.38 824.604 1396.36C839.951 1386.56 857.137 1375.27 873.431 1367.18Z"/><path fill="#F5F9F7" transform="scale(0.5 0.5)" d="M753.723 1440.89L754.908 1442.47C747.906 1463.93 745.556 1487.96 759.111 1507.37L750.627 1512.69L739.219 1510.07L720.035 1521.98L701.953 1510.45C691.8 1504.83 683.565 1500.53 674.659 1493.07C691.733 1477.75 733.054 1453.57 753.723 1440.89Z"/><path fill="#D38546" transform="scale(0.5 0.5)" d="M741.659 1518.03C743.16 1518.01 743.339 1517.97 745.003 1518.15C749.112 1518.59 753.794 1520.79 756.208 1524.23C758.831 1527.97 759.921 1534.68 758.976 1539.1C756.414 1551.09 700.639 1584.07 687.744 1592.1C683.77 1578.65 677.911 1572.99 667.982 1563.87C681.46 1554.34 728.015 1521.91 741.659 1518.03Z"/><path fill="#D38546" transform="scale(0.5 0.5)" d="M926.812 1483.93L927.729 1485.48C925.219 1526.24 859.617 1538.77 828.012 1533.79C813.832 1531.55 803.982 1528.87 790.494 1523.96C788.472 1518.74 788.07 1513.74 787.275 1508.18C832.417 1525.17 893.687 1523.52 926.812 1483.93Z"/><path fill="#D38546" transform="scale(0.5 0.5)" d="M976.609 1434.89C979.945 1443.36 980.403 1470.03 980.915 1480.73C975.012 1477.53 967.33 1472.37 961.5 1468.7C955.022 1464.5 950.561 1461.48 944.544 1456.69C955.325 1446.29 963.663 1442.31 976.609 1434.89Z"/><path fill="#D38546" transform="scale(0.5 0.5)" d="M661.14 1568.61C673.889 1572.33 685.574 1585.85 676.373 1599.22C661.312 1595.05 648.599 1583.39 661.14 1568.61Z"/><path fill="#F5F9F7" transform="scale(0.5 0.5)" d="M775.275 1505.9C793.486 1514.77 775.689 1524.67 766.631 1529.42C762.815 1522.42 762.095 1521.64 756.87 1515.87C762.906 1512.36 769.103 1509.16 775.275 1505.9Z"/><path fill="#C98959" transform="scale(0.5 0.5)" d="M755.424 1483.29C759.106 1485.39 771.813 1497.33 774.374 1500.9C772.735 1501.36 771.067 1501.72 769.381 1501.96C757.26 1503.76 756.286 1491.9 755.424 1483.29Z"/><path fill="#CDD0D0" transform="scale(0.5 0.5)" d="M824.604 1396.36C824.786 1400.38 825.114 1400.69 826.931 1404.4C819.696 1405.24 811.867 1406.82 804.646 1408.13L824.604 1396.36Z"/><path fill="#F5F9F7" transform="scale(0.5 0.5)" d="M1488.65 1032.9C1496.63 1036.8 1503.22 1041.31 1510.58 1046.24L1610.46 1103.92C1627.67 1113.97 1645.32 1123.41 1661.3 1135.33C1674.79 1145.38 1671.72 1162.19 1672.53 1176.99C1673.17 1199.41 1672.12 1222.06 1671.98 1244.49C1671.9 1254.58 1671.17 1275.96 1672.67 1285.44C1671.48 1300.87 1665.47 1302.01 1652.84 1309.44C1644.79 1311.51 1642.93 1312.86 1635.34 1309.51C1607.88 1293.08 1581.14 1275.83 1553.01 1260.13C1527.62 1245.65 1502.34 1230.99 1477.43 1215.69C1462.61 1206.59 1461.39 1199.15 1460.58 1183.04C1459.34 1158.54 1460.99 1134.56 1461.67 1110.12C1462.15 1092.79 1458.53 1074.46 1461.53 1057.28C1463.7 1045.72 1478.82 1038.59 1488.65 1032.9Z"/><path fill="#443D36" transform="scale(0.5 0.5)" d="M1477.82 1046.5L1488.94 1042.21C1495.64 1045.84 1503.89 1050.02 1510.32 1053.87L1510.58 1046.24L1610.46 1103.92C1627.67 1113.97 1645.32 1123.41 1661.3 1135.33C1674.79 1145.38 1671.72 1162.19 1672.53 1176.99C1673.17 1199.41 1672.12 1222.06 1671.98 1244.49C1671.9 1254.58 1671.17 1275.96 1672.67 1285.44C1671.48 1300.87 1665.47 1302.01 1652.84 1309.44C1644.79 1311.51 1642.93 1312.86 1635.34 1309.51C1637.72 1308.6 1638.7 1306.68 1640.26 1304.56C1643.32 1304.9 1643.13 1304.77 1645.98 1303.47C1651.3 1294.92 1646.74 1182.45 1647.13 1162.23C1636.78 1144.98 1601.94 1128.09 1584.16 1117.83L1504.97 1072.23C1497.32 1067.86 1479.44 1058.29 1473.41 1053.4C1475.18 1051.52 1475.42 1049.46 1476.32 1046.97L1477.82 1046.5Z"/><path fill="#D38546" transform="scale(0.5 0.5)" d="M1477.82 1046.5L1488.94 1042.21C1495.64 1045.84 1503.89 1050.02 1510.32 1053.87C1545.9 1075.15 1582.24 1095.47 1618.03 1116.41C1631.39 1124.23 1647.59 1132.14 1658.5 1143.11L1647.45 1148.41C1632.86 1138.13 1614.67 1128.18 1599.07 1119.12L1523.24 1075.08C1514.57 1070.05 1482.83 1052.72 1477.82 1046.5Z"/><path fill="#D38546" transform="scale(0.5 0.5)" d="M1660.53 1148.94C1662.01 1149.31 1661.9 1149.58 1663.25 1150.74C1668.12 1165.36 1666.04 1271.97 1665.51 1293.48C1662.58 1295.64 1659.13 1297.87 1656.09 1299.94C1649.48 1291.01 1659.54 1182.32 1649.89 1154.4L1660.53 1148.94Z"/><path fill="#3C3C3B" transform="scale(0.5 0.5)" d="M1488.65 1032.9C1496.63 1036.8 1503.22 1041.31 1510.58 1046.24L1510.32 1053.87C1503.89 1050.02 1495.64 1045.84 1488.94 1042.21L1477.82 1046.5L1476.32 1046.97C1475.42 1049.46 1475.18 1051.52 1473.41 1053.4C1471.1 1053.77 1470.06 1053.96 1468.6 1056.08C1466.86 1058.62 1466.72 1063.46 1466.63 1066.4C1466.03 1084.67 1467.17 1103.15 1467.09 1121.45C1467.02 1139.56 1465.72 1157.78 1466.33 1175.88C1466.57 1182.97 1466.65 1191.88 1469.11 1198.61C1475.01 1214.69 1595.75 1278.32 1616.31 1289.88C1624.31 1294.38 1632.16 1300.67 1640.26 1304.56C1638.7 1306.68 1637.72 1308.6 1635.34 1309.51C1607.88 1293.08 1581.14 1275.83 1553.01 1260.13C1527.62 1245.65 1502.34 1230.99 1477.43 1215.69C1462.61 1206.59 1461.39 1199.15 1460.58 1183.04C1459.34 1158.54 1460.99 1134.56 1461.67 1110.12C1462.15 1092.79 1458.53 1074.46 1461.53 1057.28C1463.7 1045.72 1478.82 1038.59 1488.65 1032.9Z"/><path fill="#384146" transform="scale(0.5 0.5)" d="M1483.46 1155.92C1494.21 1161.43 1503.66 1166.86 1514.09 1172.92C1514.09 1182.69 1514.36 1193.99 1513.6 1203.61C1514.1 1206.86 1513.95 1208.38 1516.35 1210.57C1519.8 1210.63 1518.1 1211 1521.4 1208.69C1522.17 1211.45 1522.52 1213.33 1524.03 1215.8L1524.85 1216.19C1530.96 1218.08 1536.66 1221.12 1541.64 1225.14L1541.8 1226.43C1544.86 1227.09 1543.36 1227.16 1546.45 1226.02C1549.13 1222.97 1549.58 1219.48 1550.65 1215.45C1550.7 1221.91 1550.1 1226.07 1554.41 1231.13L1555.59 1230.64C1558.28 1220.61 1552.66 1201.21 1562.07 1196.55C1569.53 1196.77 1580.42 1205.35 1587.07 1209.76C1588.24 1220.41 1586.3 1245.73 1590.46 1253.17L1591.69 1252.84C1595.39 1245.93 1593.9 1189.5 1593.93 1176.77C1603.27 1180.79 1614.16 1187.46 1623.14 1192.61C1626.06 1197.98 1625.73 1251.31 1624.34 1258.74C1624.47 1268.21 1626.93 1271.17 1628.64 1280.21L1627.82 1280.67C1614.32 1274.89 1476.62 1196.84 1474.38 1192.31L1474.89 1191.08L1481.5 1189.66C1483.83 1187.45 1483.04 1187.16 1483.33 1182.84C1482.87 1174.5 1482.82 1164.26 1483.46 1155.92Z"/><path fill="#D38546" transform="scale(0.5 0.5)" d="M1599.92 1187.6C1604.28 1189.83 1606.41 1190.93 1611.04 1192.44C1616.96 1193.6 1618.26 1194.81 1623.14 1192.61C1626.06 1197.98 1625.73 1251.31 1624.34 1258.74C1623.93 1263.19 1624.08 1267.48 1621.44 1270.94C1618.2 1271.27 1619.47 1271.2 1616.84 1268.91C1611.56 1264.92 1604.82 1261.07 1599.06 1257.59C1598.86 1234.26 1599.14 1210.92 1599.92 1187.6Z"/><path fill="#443D36" transform="scale(0.5 0.5)" d="M1623.14 1192.61C1626.06 1197.98 1625.73 1251.31 1624.34 1258.74C1623.93 1263.19 1624.08 1267.48 1621.44 1270.94C1618.2 1271.27 1619.47 1271.2 1616.84 1268.91C1619.54 1261.15 1618.39 1210.34 1617.58 1199.16C1617.39 1196.57 1613.32 1194.13 1611.04 1192.44C1616.96 1193.6 1618.26 1194.81 1623.14 1192.61Z"/><path fill="#443D36" transform="scale(0.5 0.5)" d="M1483.46 1155.92C1494.21 1161.43 1503.66 1166.86 1514.09 1172.92C1514.09 1182.69 1514.36 1193.99 1513.6 1203.61C1511.46 1206.63 1512.8 1205.56 1509.52 1207.05C1506.83 1206.32 1507.66 1207.11 1506.5 1205.15C1502.57 1201.95 1493.41 1196.99 1488.64 1194.24C1487.48 1192.75 1484.28 1185.01 1483.33 1182.84C1482.87 1174.5 1482.82 1164.26 1483.46 1155.92Z"/><path fill="#D38546" transform="scale(0.5 0.5)" d="M1489.02 1166.1C1495.17 1169.46 1502.07 1173.03 1507.9 1176.8C1508.22 1185.67 1509.22 1196.93 1506.5 1205.15C1502.57 1201.95 1493.41 1196.99 1488.64 1194.24C1489.7 1185.65 1489.18 1174.94 1489.02 1166.1Z"/><path fill="#D38546" transform="scale(0.5 0.5)" d="M1563.08 1204.15C1569.96 1207.32 1575.23 1209.84 1581.8 1213.57C1582.01 1224.64 1581.99 1235.72 1581.75 1246.8C1575.08 1244.79 1569.25 1240.76 1563.43 1237.01L1563.08 1204.15Z"/><path fill="#D38546" transform="scale(0.5 0.5)" d="M1521.4 1208.69C1517.79 1196.59 1519.39 1157.32 1521.68 1144.34C1532.64 1149.42 1539.92 1153.91 1550.2 1160.18C1551.13 1168.69 1551.75 1206.65 1550.65 1215.45C1549.58 1219.48 1549.13 1222.97 1546.45 1226.02C1543.36 1227.16 1544.86 1227.09 1541.8 1226.43L1541.64 1225.14C1536.66 1221.12 1530.96 1218.08 1524.85 1216.19L1524.03 1215.8C1522.52 1213.33 1522.17 1211.45 1521.4 1208.69Z"/><path fill="#443D36" transform="scale(0.5 0.5)" d="M1521.4 1208.69C1517.79 1196.59 1519.39 1157.32 1521.68 1144.34C1532.64 1149.42 1539.92 1153.91 1550.2 1160.18C1551.13 1168.69 1551.75 1206.65 1550.65 1215.45C1549.58 1219.48 1549.13 1222.97 1546.45 1226.02C1543.36 1227.16 1544.86 1227.09 1541.8 1226.43L1541.64 1225.14C1546.58 1216.76 1544.78 1177.19 1544.6 1164.66C1538.62 1160.96 1532.13 1157.35 1526.01 1153.83C1525.75 1165.06 1526.83 1208.1 1524.85 1216.19L1524.03 1215.8C1522.52 1213.33 1522.17 1211.45 1521.4 1208.69Z"/><path fill="#384146" transform="scale(0.5 0.5)" d="M1535.69 1121C1539.95 1124.91 1568.37 1166.06 1573.32 1173.1C1585.31 1168.3 1597.15 1163.37 1608.56 1157.29C1604.8 1155.2 1603.08 1154.69 1601.47 1151.17L1602.97 1149.97C1611.76 1149.78 1614.68 1151.41 1622.78 1154.6C1621.11 1159.59 1617.23 1174.26 1611.71 1175.05C1609.83 1171.76 1610.75 1169.3 1610.66 1165.31C1606.63 1165.47 1600.94 1168.35 1597.02 1170.02C1588.53 1173.84 1580 1177.58 1571.44 1181.24C1558.23 1164.33 1546.08 1146.48 1533.91 1128.81C1523.94 1133.6 1507.05 1142.89 1496.67 1142.77L1495.8 1141.51C1500.22 1134.35 1526.96 1124.65 1535.69 1121Z"/><path fill="#D38546" transform="scale(0.5 0.5)" d="M712.438 845.405C718.748 844.267 724.155 844.818 730.292 846.697C743.308 850.682 809.273 886.721 814.028 896.869C814.96 898.857 814.78 899.249 814.082 901.181C810.251 904.169 800.478 903.505 796.693 901.447C781.387 893.125 765.848 883.914 751.006 874.831C742.465 869.783 734.142 864.702 725.219 860.342C720.883 860.961 717.336 861.789 713.101 862.686C700.84 865.282 662.286 898.539 651.947 888.924C651.326 886.935 650.579 885.113 652.007 883.103C659.182 873.005 702.572 848.019 712.438 845.405Z"/><path fill="#D38546" transform="scale(0.5 0.5)" d="M831.37 1246.97C849.588 1249.42 898.631 1285.34 919.09 1294.23C922.616 1295.77 929.357 1300.54 932.78 1303.04C939.795 1308.15 935.779 1314.07 930.272 1318.1C916.683 1314.43 846.327 1272 832.634 1261.96C829.165 1259.41 826.834 1257.09 826.407 1252.66C828.124 1249.08 828.295 1249.23 831.37 1246.97Z"/><path fill="#D38546" transform="scale(0.5 0.5)" d="M804.289 1172.02C808.032 1171.57 810.029 1171.65 812.995 1174.01C822.662 1192.87 776.731 1198.89 776.287 1210.33C783.764 1219.28 831.118 1233.91 811.892 1248.04C811.244 1247.91 810.596 1247.79 809.949 1247.66C734.838 1218.61 751.799 1199.38 804.289 1172.02Z"/><path fill="#D38546" transform="scale(0.5 0.5)" d="M1273.96 1084.73C1266.17 1081.07 1256.48 1075.57 1256.26 1065.8C1261.28 1056.67 1275.9 1066.41 1282.05 1069.79C1295.74 1077.81 1309.39 1085.8 1323.15 1093.71C1329.95 1097.61 1342.05 1103.39 1348 1107.69C1354.64 1111.82 1362.7 1116.38 1357.98 1125.31C1351.7 1129.28 1346.37 1126.08 1340.79 1122.53C1335.59 1120.29 1316.11 1108.58 1310.58 1105.18C1298.3 1097.63 1286.06 1091.74 1273.96 1084.73Z"/><path fill="#C98959" transform="scale(0.5 0.5)" d="M1273.96 1084.73C1266.17 1081.07 1256.48 1075.57 1256.26 1065.8C1261.28 1056.67 1275.9 1066.41 1282.05 1069.79C1277.13 1070.26 1275.17 1069.67 1271.64 1072.37C1270.6 1075.79 1272.85 1080.87 1273.96 1084.73Z"/><path fill="#D38546" transform="scale(0.5 0.5)" d="M950.764 1316.04C951.956 1316.09 954.862 1316.26 955.841 1316.66C1007.65 1338.1 1002.78 1357.24 958.605 1381.19C952.162 1383.81 951.25 1384.31 944.802 1381.74C934.306 1369.08 970.131 1356.43 972.554 1351.56C979.837 1336.93 933.513 1337.83 950.764 1316.04Z"/><path fill="#D38546" transform="scale(0.5 0.5)" d="M406.503 876.708C412.034 876.358 417.529 878.172 422.243 880.88C433.224 887.189 479.189 910.753 481.941 920.426C481.751 924.083 480.913 924.655 478.669 927.531C476.442 927.727 474.254 927.755 472.105 927.06C462.819 924.055 406.748 893.58 404.051 886.192C402.79 882.736 404.814 879.556 406.503 876.708Z"/><path fill="#D38546" transform="scale(0.5 0.5)" d="M495.254 928.074C507.738 927.534 521.768 939.898 536.141 944.823C546.796 942.015 556.762 933.561 567.909 935.404C573.438 939.104 570.739 943.404 567.648 948.186C548.891 962.409 531.251 963.189 510.531 952.904C500.808 948.078 489.152 940.138 495.254 928.074Z"/><path fill="#D38546" transform="scale(0.5 0.5)" d="M859.884 1139.41C868.481 1134.21 894.601 1116.3 903.226 1124.46C904.734 1133.61 885.356 1144.06 878.196 1146.81C877.264 1148.03 857.254 1159.64 854.88 1160.67C846.247 1164.44 833.111 1176.76 824.575 1169.63C821.77 1158.69 850.739 1144.8 859.884 1139.41Z"/><path fill="#D38546" transform="scale(0.5 0.5)" d="M1374.67 1126.83C1383.2 1127.41 1397.75 1136.65 1405.55 1141.04C1413.68 1145.61 1430.66 1153.69 1432.45 1163.33C1431.21 1167.83 1431.96 1166.22 1428.37 1169.69L1427.89 1169.64C1416.04 1168.36 1371.88 1145.47 1370.35 1132.58C1371.67 1128.53 1371.04 1129.91 1374.67 1126.83Z"/><path fill="#D38546" transform="scale(0.5 0.5)" d="M627.084 894.289C627.46 894.252 630.631 893.917 631.005 894.062C656.86 904.061 602.761 927.014 595.267 929.687C582.3 931.314 582.155 921.102 591.246 914.759C602.464 906.932 615.036 900.83 627.084 894.289Z"/><path fill="#F5F9F7" fill-opacity="0.023529412" transform="scale(0.5 0.5)" d="M1672.67 1285.44C1673.84 1289.24 1674.82 1302.77 1672.67 1306.33C1669.85 1311.02 1658.07 1309.52 1652.84 1309.44C1665.47 1302.01 1671.48 1300.87 1672.67 1285.44Z"/></svg>