<svg xmlns="http://www.w3.org/2000/svg" width="1200" height="630" viewBox="0 0 1200 630">
  <defs>
    <linearGradient id="bg" x1="0" y1="0" x2="1" y2="1">
      <stop offset="0%" stop-color="#0B1F17"/>
      <stop offset="100%" stop-color="#142E22"/>
    </linearGradient>
  </defs>

  <!-- Background -->
  <rect width="1200" height="630" fill="url(#bg)"/>

  <!-- Subtle decorative circles -->
  <circle cx="950" cy="150" r="300" fill="#2D6A4F" opacity="0.06"/>
  <circle cx="200" cy="500" r="200" fill="#2D6A4F" opacity="0.04"/>
  <circle cx="1100" cy="550" r="150" fill="#52B788" opacity="0.04"/>

  <!-- Topographic lines -->
  <path d="M0 400 Q300 350 600 380 Q900 410 1200 360" fill="none" stroke="#2D6A4F" stroke-width="0.8" opacity="0.15"/>
  <path d="M0 430 Q300 380 600 410 Q900 440 1200 390" fill="none" stroke="#2D6A4F" stroke-width="0.8" opacity="0.12"/>
  <path d="M0 460 Q300 410 600 440 Q900 470 1200 420" fill="none" stroke="#2D6A4F" stroke-width="0.8" opacity="0.09"/>

  <!-- Wordmark -->
  <g transform="translate(80, 112.9592290687561)">
    <path d="M16.55-25.11L16.55-25.11L7.94 5.62Q7.70 6.53 7.83 7.37Q7.96 8.21 9.10 8.48L9.10 8.48L10.64 8.80Q11.58 9.02 11.93 9.53Q12.29 10.04 12.29 10.58L12.29 10.58Q12.31 11.53 11.64 12.11Q10.96 12.69 9.88 12.72L9.88 12.72L-1.73 12.91Q-2.46 12.93-3.04 12.49Q-3.62 12.04-3.62 11.10L-3.62 11.10Q-3.62 10.50-3.19 9.87Q-2.75 9.23-1.65 8.69L-1.65 8.69Q-0.97 8.45-0.57 8.11Q-0.16 7.78 0.09 7.30Q0.35 6.83 0.51 6.21L0.51 6.21L9.88-26.16Q10.10-26.97 10.42-27.62Q10.75-28.27 11.18-28.77Q11.61-29.27 12.15-29.61Q12.69-29.94 13.32-30.12Q13.96-30.29 14.69-30.29L14.69-30.29Q16.36-30.29 16.81-28.96Q17.25-27.62 16.55-25.11ZM5.51-17.39L5.51-17.39Q4.75-16.79 3.97-16.75Q3.19-16.71 2.70-17.20L2.70-17.20Q2.16-17.71 2.47-18.62Q2.78-19.52 3.73-20.36L3.73-20.36Q5.64-22.17 8.01-23.37Q10.37-24.57 13.07-25.15Q15.77-25.73 18.68-25.68L18.68-25.68Q22.38-25.60 24.96-24.03Q27.54-22.46 28.69-19.43Q29.84-16.39 29.21-11.88L29.21-11.88Q28.67-7.88 26.76-5.04Q24.84-2.19 21.99-0.73Q19.14 0.73 15.77 0.62L15.77 0.62Q12.31 0.57 10.22-1.04Q8.13-2.65 7.61-5.16L7.61-5.16L10.31-6.40Q10.88-5.10 11.84-4.36Q12.80-3.62 14.20-3.51L14.20-3.51Q15.96-3.43 17.52-4.36Q19.09-5.29 20.25-7.40Q21.41-9.50 21.92-12.88L21.92-12.88Q22.36-15.69 21.90-17.67Q21.44-19.66 20.30-20.80Q19.17-21.95 17.55-22.14L17.55-22.14Q14.90-22.46 11.91-21.32Q8.91-20.17 5.51-17.39ZM34.59-18.41L34.59-18.41Q34.07-18.47 33.66-18.98Q33.24-19.49 33.59-20.41L33.59-20.41Q34.07-21.76 35.29-22.95Q36.50-24.14 38.26-24.89Q40.01-25.65 42.07-25.65L42.07-25.65Q43.79-25.65 44.69-24.80Q45.58-23.95 45.58-22.52L45.58-22.52Q45.58-21.30 45.10-19.62Q44.63-17.93 43.97-16.13Q43.31-14.34 42.81-12.74Q42.31-11.15 42.26-10.07L42.26-10.07L41.26-10.34Q42.20-13.72 43.52-16.51Q44.85-19.30 46.47-21.33Q48.09-23.36 49.91-24.45Q51.73-25.54 53.68-25.54L53.68-25.54Q55.89-25.54 57.12-24.18Q58.35-22.82 58.35-20.49L58.35-20.49Q58.35-18.63 57.63-17.21Q56.92-15.79 55.77-15.00Q54.62-14.20 53.38-14.20L53.38-14.20Q52.11-14.20 51.61-14.84Q51.11-15.47 51.11-16.09L51.11-16.09Q51.11-16.71 51.33-17.36Q51.54-18.01 51.54-18.79L51.54-18.79Q51.54-19.41 51.29-19.78Q51.03-20.14 50.46-20.14L50.46-20.14Q49.36-20.14 48.10-19.08Q46.84-18.01 45.67-16.08Q44.50-14.15 43.61-11.56L43.61-11.56Q42.90-9.56 42.65-8.29Q42.39-7.02 42.39-5.97L42.39-5.97Q42.39-5.29 42.66-4.75Q42.93-4.21 43.19-3.74Q43.44-3.27 43.44-2.78L43.44-2.78Q43.44-1.78 42.55-1.03Q41.66-0.27 40.08 0.16Q38.50 0.59 36.48 0.59L36.48 0.59Q34.70 0.59 33.95-0.27Q33.21-1.13 33.37-2.73Q33.53-4.32 34.45-6.53L34.45-6.53L37.88-15.66Q38.66-17.66 38.60-18.67Q38.53-19.68 37.53-19.68L37.53-19.68Q37.15-19.68 36.80-19.53Q36.45-19.39 36.05-19.06L36.05-19.06Q35.69-18.77 35.32-18.56Q34.94-18.36 34.59-18.41ZM62.77-8.80L62.50-11.34Q62.50-11.34 63.44-11.65Q64.37-11.96 65.91-12.47Q67.45-12.99 69.25-13.59Q71.06-14.20 72.82-14.81Q74.57-15.42 75.92-15.93L75.92-15.93L75.28-15.17Q75.57-15.90 75.71-16.78Q75.84-17.66 75.84-18.71L75.84-18.71Q75.84-20.14 75.14-20.97Q74.44-21.79 73.17-21.79L73.17-21.79Q72.09-21.79 70.94-20.95Q69.80-20.11 68.81-18.64Q67.82-17.17 67.18-15.27Q66.53-13.37 66.45-11.23L66.45-11.23Q66.26-7.59 67.65-5.82Q69.04-4.05 71.52-4.05L71.52-4.05Q73.03-4.05 74.43-4.56Q75.82-5.08 76.96-6.05Q78.11-7.02 78.89-8.40L78.89-8.40Q79.57-9.23 80.04-9.57Q80.51-9.91 81.16-9.91L81.16-9.91Q81.86-9.91 82.16-9.41Q82.46-8.91 82.46-8.21L82.46-8.21Q82.46-6.13 80.78-4.09Q79.11-2.05 75.96-0.70Q72.82 0.65 68.36 0.65L68.36 0.65Q64.96 0.65 62.79-0.58Q60.61-1.81 59.66-4.02Q58.70-6.24 58.86-9.15L58.86-9.15Q59.05-12.47 60.36-15.44Q61.67-18.41 63.88-20.70Q66.10-22.98 68.98-24.29Q71.87-25.60 75.19-25.60L75.19-25.60Q77.44-25.60 78.91-24.84Q80.38-24.08 81.20-22.73Q82.03-21.38 82.32-19.60L82.32-19.60Q82.43-19.17 82.63-18.82Q82.84-18.47 83.11-18.41L83.11-18.41Q83.54-18.36 83.81-18.06Q84.08-17.77 84.08-17.14L84.08-17.14Q84.08-16.42 83.58-15.78Q83.08-15.15 81.81-14.82L81.81-14.82Q80.27-14.34 78.30-13.70Q76.33-13.07 74.18-12.39Q72.04-11.72 70.00-11.08Q67.96-10.45 66.34-9.94Q64.72-9.42 63.75-9.11Q62.77-8.80 62.77-8.80L62.77-8.80ZM99.39-17.39L96.01-8.99Q95.26-7.16 95.38-6.37Q95.50-5.59 96.34-5.59L96.34-5.59Q96.71-5.59 97.08-5.74Q97.44-5.89 98.04-6.26L98.04-6.26Q98.50-6.56 98.90-6.64Q99.31-6.72 99.68-6.43L99.68-6.43Q100.12-6.13 100.13-5.40Q100.14-4.67 99.63-3.73L99.63-3.73Q98.58-1.86 96.51-0.61Q94.45 0.65 91.94 0.65L91.94 0.65Q89.83 0.65 88.69-0.30Q87.56-1.24 87.47-2.97Q87.37-4.70 88.40-7.07L88.40-7.07L91.99-15.93Q92.88-18.09 92.79-18.87Q92.69-19.66 91.80-19.66L91.80-19.66Q91.39-19.66 90.96-19.45Q90.53-19.25 89.96-18.93L89.96-18.93Q89.40-18.60 88.94-18.51Q88.48-18.41 88.10-18.66L88.10-18.66Q87.61-18.98 87.59-19.72Q87.56-20.47 88.16-21.33L88.16-21.33Q89.32-23.06 91.52-24.33Q93.72-25.60 96.07-25.60L96.07-25.60Q98.01-25.60 99.14-24.66Q100.28-23.73 100.40-21.91Q100.52-20.09 99.39-17.39L99.39-17.39ZM98.12-29.81L98.12-29.81Q95.93-29.81 94.80-30.91Q93.66-32.02 93.77-33.59L93.77-33.59Q93.85-34.86 94.65-35.95Q95.44-37.04 96.86-37.72Q98.28-38.39 100.14-38.39L100.14-38.39Q102.36-38.39 103.37-37.25Q104.38-36.10 104.27-34.37L104.27-34.37Q104.19-33.13 103.40-32.09Q102.60-31.05 101.25-30.43Q99.90-29.81 98.12-29.81ZM113.64-15.77L114.48-15.36Q114.64-16.15 114.99-17.27Q115.34-18.39 115.80-19.89Q116.26-21.38 116.82-23.23Q117.37-25.08 117.94-27.30L117.94-27.30Q118.64-29.92 119.62-31.44Q120.61-32.97 121.88-33.63Q123.15-34.29 124.58-34.29L124.58-34.29Q125.44-34.29 126.25-33.80Q127.06-33.32 127.91-32.68Q128.76-32.05 129.78-31.56Q130.79-31.08 132.00-31.08L132.00-31.08Q133.97-31.08 135.01-32.12Q136.05-33.16 136.05-34.56L136.05-34.56Q136.05-36.21 134.53-37.52Q133.00-38.83 129.87-38.83L129.87-38.83Q124.98-38.83 121.11-37.54Q117.23-36.26 114.56-33.49Q111.89-30.73 110.59-26.27L110.59-26.27L104.52-5.00Q103.98-3.13 104.11-1.89Q104.25-0.65 105.04-0.03Q105.84 0.59 107.24 0.59L107.24 0.59Q108.57 0.59 109.70 0.26Q110.83-0.08 111.54-0.70Q112.24-1.32 112.24-2.11L112.24-2.11Q112.24-2.81 112.09-3.43Q111.94-4.05 111.94-5.13L111.94-5.13Q111.94-5.54 112.05-6.14Q112.16-6.75 112.51-8.07Q112.86-9.40 113.56-11.96L113.56-11.96Q114.10-13.93 115.15-15.65Q116.21-17.36 117.58-18.67Q118.96-19.98 120.43-20.68Q121.90-21.38 123.25-21.30L123.25-21.30Q124.66-21.25 125.32-20.40Q125.98-19.55 125.68-18.14L125.68-18.14Q125.41-16.71 123.96-15.40Q122.50-14.09 119.46-13.01Q116.42-11.93 111.37-11.12L111.37-11.12L111.37-8.64Q118.37-9.69 123.07-11.31Q127.76-12.93 130.25-15.04Q132.73-17.14 133.06-19.71L133.06-19.71Q133.43-22.46 131.92-23.99Q130.41-25.52 127.49-25.60L127.49-25.60Q125.52-25.65 123.51-25.00Q121.50-24.35 119.61-23.09Q117.72-21.82 116.18-19.98Q114.64-18.14 113.64-15.77L113.64-15.77ZM123.34-12.07L117.15-10.69L119.18-3.94Q119.77-1.92 120.73-0.76Q121.69 0.40 123.28 0.57L123.28 0.57Q125.25 0.73 126.97 0.01Q128.68-0.70 129.78-1.96Q130.87-3.21 131.06-4.56L131.06-4.56Q131.19-5.62 130.99-6.09Q130.79-6.56 130.19-6.75L130.19-6.75Q129.82-6.88 129.40-6.76Q128.98-6.64 128.60-6.34L128.60-6.34Q128.22-5.89 127.74-5.70Q127.25-5.51 126.68-5.59L126.68-5.59Q126.09-5.67 125.63-6.12Q125.17-6.56 124.82-7.59L124.82-7.59L123.34-12.07Z" fill="#F0F4F2"/>
  </g>

  <!-- Main headline -->
  <text x="80" y="240" font-family="system-ui, -apple-system, 'Segoe UI', sans-serif" font-size="52" font-weight="700" fill="#F0F4F2" letter-spacing="-0.02em">AI-chatbot for</text>
  <text x="80" y="302" font-family="system-ui, -apple-system, 'Segoe UI', sans-serif" font-size="52" font-weight="700" fill="#F0F4F2" letter-spacing="-0.02em">norske bedrifter</text>

  <!-- Subheading -->
  <text x="80" y="355" font-family="system-ui, -apple-system, 'Segoe UI', sans-serif" font-size="20" fill="#AABEB5" letter-spacing="0.01em">Skreddersydde AI-assistenter som forstår</text>
  <text x="80" y="382" font-family="system-ui, -apple-system, 'Segoe UI', sans-serif" font-size="20" fill="#AABEB5" letter-spacing="0.01em">bedriften din – på ordentlig norsk.</text>

  <!-- Feature pills -->
  <g transform="translate(80, 420)">
    <rect x="0" y="0" width="132" height="34" rx="17" fill="#2D6A4F" opacity="0.4"/>
    <text x="66" y="22" text-anchor="middle" font-family="system-ui, sans-serif" font-size="13" fill="#52B788" font-weight="500">24/7 support</text>
    <rect x="146" y="0" width="140" height="34" rx="17" fill="#2D6A4F" opacity="0.4"/>
    <text x="216" y="22" text-anchor="middle" font-family="system-ui, sans-serif" font-size="13" fill="#52B788" font-weight="500">Norsk språk</text>
    <rect x="300" y="0" width="180" height="34" rx="17" fill="#2D6A4F" opacity="0.4"/>
    <text x="390" y="22" text-anchor="middle" font-family="system-ui, sans-serif" font-size="13" fill="#52B788" font-weight="500">Trent på dine data</text>
  </g>

  <!-- Domain -->
  <text x="80" y="545" font-family="system-ui, -apple-system, 'Segoe UI', sans-serif" font-size="18" fill="#405249" font-weight="500" letter-spacing="0.05em">preik.ai</text>

  <!-- Chat mockup card -->
  <g transform="translate(660, 140)">
    <rect x="0" y="0" width="460" height="370" rx="24" fill="#1F332B" stroke="#2D4036" stroke-width="1.5"/>

    <!-- Card header -->
    <rect x="0" y="0" width="460" height="60" rx="24" fill="#1A2D25"/>
    <rect x="0" y="36" width="460" height="24" fill="#1A2D25"/>
    <line x1="0" y1="60" x2="460" y2="60" stroke="#2D4036" stroke-width="1"/>

    <!-- Bot avatar -->
    <circle cx="36" cy="30" r="14" fill="#2D6A4F"/>
    <text x="36" y="36" text-anchor="middle" font-family="Georgia, serif" font-size="16" font-style="italic" fill="#F0F4F2" font-weight="600">P</text>

    <!-- Bot name -->
    <text x="60" y="28" font-family="system-ui, sans-serif" font-size="15" fill="#F0F4F2" font-weight="600">Preik Assistent</text>
    <circle cx="60" cy="42" r="4" fill="#52B788"/>
    <text x="72" y="46" font-family="system-ui, sans-serif" font-size="11" fill="#AABEB5">Online</text>

    <!-- User message -->
    <rect x="110" y="80" width="320" height="44" rx="16" fill="#2D6A4F"/>
    <text x="270" y="107" text-anchor="middle" font-family="system-ui, sans-serif" font-size="14" fill="#F0F4F2">Hva koster frakt til Tromsø?</text>

    <!-- Bot response -->
    <rect x="20" y="144" width="380" height="64" rx="16" fill="#253D33"/>
    <text x="40" y="171" font-family="system-ui, sans-serif" font-size="14" fill="#F0F4F2">Frakt til Tromsø koster 99 kr</text>
    <text x="40" y="191" font-family="system-ui, sans-serif" font-size="14" fill="#F0F4F2">og tar 2–3 virkedager!</text>

    <!-- User message 2 -->
    <rect x="180" y="228" width="250" height="44" rx="16" fill="#2D6A4F"/>
    <text x="305" y="255" text-anchor="middle" font-family="system-ui, sans-serif" font-size="14" fill="#F0F4F2">Kan jeg hente i butikk?</text>

    <!-- Bot typing -->
    <rect x="20" y="292" width="80" height="34" rx="16" fill="#253D33"/>
    <circle cx="42" cy="309" r="4" fill="#AABEB5" opacity="0.4"/>
    <circle cx="58" cy="309" r="4" fill="#AABEB5" opacity="0.6"/>
    <circle cx="74" cy="309" r="4" fill="#AABEB5" opacity="0.8"/>
  </g>
</svg>